<svg width="143" height="340" viewBox="0 0 143 340" fill="none" xmlns="http://www.w3.org/2000/svg">
    <g clip-path="url(#clip0_303_174551)">
        <path d="M-1.70518 133.13L2.57236 128.828L1.6064 127.857L-2.67114 132.159L-1.70518 133.13ZM6.8499 124.526L11.1274 120.224L10.1615 119.252L5.88393 123.554L6.8499 124.526ZM15.4028 115.924L19.6804 111.621L18.7144 110.65L14.4369 114.952L15.4028 115.924ZM23.9579 107.319L28.2355 103.017L27.2695 102.045L22.992 106.348L23.9579 107.319ZM32.513 98.7148L36.7905 94.4126L35.8246 93.441L31.547 97.7433L32.513 98.7148ZM41.0659 90.1125L45.3435 85.8103L44.3775 84.8388L40.1 89.141L41.0659 90.1125ZM49.621 81.5081L53.8986 77.2059L52.9326 76.2343L48.6551 80.5365L49.621 81.5081ZM58.174 72.9058L62.4515 68.6036L61.4855 67.632L57.208 71.9343L58.174 72.9058Z" fill="#07847F"/>
        <path d="M65.7631 63.33L67.6331 61.4491L67.6331 58.7897L69 58.7897L69 62.0174L66.729 64.3015L65.7631 63.33Z" fill="#07847F"/>
        <path d="M69 52.7676L69 46.7475L67.6332 46.7475L67.6332 52.7676L69 52.7676ZM69 40.7274L69 34.7073L67.6332 34.7073L67.6332 40.7274L69 40.7274ZM69 28.6872L69 22.6671L67.6332 22.6671L67.6332 28.6872L69 28.6872ZM69 16.6448L69 10.6247L67.6332 10.6247L67.6332 16.6448L69 16.6448Z" fill="#07847F"/>
        <path d="M65.7631 3.25574L69 0.000116065L69 4.60474L67.6331 4.60474L67.6331 3.31793L66.729 4.22727L65.7631 3.25574Z" fill="#07847F"/>
        <path d="M-1.70518 73.0562L2.57236 68.7539L1.6064 67.7824L-2.67114 72.0846L-1.70518 73.0562ZM6.8499 64.4517L11.1274 60.1495L10.1615 59.178L5.88393 63.4802L6.8499 64.4517ZM15.4028 55.8494L19.6804 51.5472L18.7144 50.5757L14.4369 54.8779L15.4028 55.8494ZM23.9579 47.245L28.2355 42.9428L27.2695 41.9713L22.992 46.2735L23.9579 47.245ZM32.513 38.6427L36.7905 34.3405L35.8246 33.369L31.547 37.6712L32.513 38.6427ZM41.0659 30.0383L45.3435 25.7361L44.3775 24.7645L40.1 29.0668L41.0659 30.0383ZM49.621 21.4339L53.8986 17.1317L52.9326 16.1601L48.6551 20.4623L49.621 21.4339ZM58.174 12.8316L62.4515 8.52937L61.4855 7.55784L57.208 11.8601L58.174 12.8316Z" fill="#07847F"/>
    </g>
    <g clip-path="url(#clip1_303_174551)">
        <path d="M-1.70518 233.13L2.57236 228.828L1.6064 227.857L-2.67114 232.159L-1.70518 233.13ZM6.8499 224.526L11.1274 220.224L10.1615 219.252L5.88393 223.554L6.8499 224.526ZM15.4028 215.924L19.6804 211.621L18.7144 210.65L14.4369 214.952L15.4028 215.924ZM23.9579 207.319L28.2355 203.017L27.2695 202.045L22.992 206.348L23.9579 207.319ZM32.513 198.715L36.7905 194.413L35.8246 193.441L31.547 197.743L32.513 198.715ZM41.0659 190.113L45.3435 185.81L44.3775 184.839L40.1 189.141L41.0659 190.113ZM49.621 181.508L53.8986 177.206L52.9326 176.234L48.6551 180.537L49.621 181.508ZM58.174 172.906L62.4515 168.604L61.4855 167.632L57.208 171.934L58.174 172.906Z" fill="#07847F"/>
        <path d="M65.7631 163.33L67.6331 161.449L67.6331 158.79L69 158.79L69 162.018L66.729 164.302L65.7631 163.33Z" fill="#07847F"/>
        <path d="M69 152.768L69 146.747L67.6332 146.747L67.6332 152.768L69 152.768ZM69 140.727L69 134.707L67.6332 134.707L67.6332 140.727L69 140.727ZM69 128.687L69 122.667L67.6332 122.667L67.6332 128.687L69 128.687ZM69 116.645L69 110.625L67.6332 110.625L67.6332 116.645L69 116.645Z" fill="#07847F"/>
        <path d="M65.7631 103.256L69 100L69 104.605L67.6331 104.605L67.6331 103.318L66.729 104.227L65.7631 103.256Z" fill="#07847F"/>
        <path d="M-1.70518 173.056L2.57236 168.754L1.6064 167.782L-2.67114 172.085L-1.70518 173.056ZM6.8499 164.452L11.1274 160.15L10.1615 159.178L5.88393 163.48L6.8499 164.452ZM15.4028 155.849L19.6804 151.547L18.7144 150.576L14.4369 154.878L15.4028 155.849ZM23.9579 147.245L28.2355 142.943L27.2695 141.971L22.992 146.273L23.9579 147.245ZM32.513 138.643L36.7905 134.341L35.8246 133.369L31.547 137.671L32.513 138.643ZM41.0659 130.038L45.3435 125.736L44.3775 124.765L40.1 129.067L41.0659 130.038ZM49.621 121.434L53.8986 117.132L52.9326 116.16L48.6551 120.462L49.621 121.434ZM58.174 112.832L62.4515 108.529L61.4855 107.558L57.208 111.86L58.174 112.832Z" fill="#07847F"/>
    </g>
    <g clip-path="url(#clip2_303_174551)">
        <path d="M-3.70518 333.13L0.57236 328.828L-0.393605 327.857L-4.67114 332.159L-3.70518 333.13ZM4.8499 324.526L9.12744 320.224L8.16147 319.252L3.88393 323.554L4.8499 324.526ZM13.4028 315.924L17.6804 311.621L16.7144 310.65L12.4369 314.952L13.4028 315.924ZM21.9579 307.319L26.2355 303.017L25.2695 302.045L20.992 306.348L21.9579 307.319ZM30.513 298.715L34.7905 294.413L33.8246 293.441L29.547 297.743L30.513 298.715ZM39.0659 290.113L43.3435 285.81L42.3775 284.839L38.1 289.141L39.0659 290.113ZM47.621 281.508L51.8986 277.206L50.9326 276.234L46.6551 280.537L47.621 281.508ZM56.174 272.906L60.4515 268.604L59.4855 267.632L55.208 271.934L56.174 272.906Z" fill="#07847F"/>
        <path d="M63.7631 263.33L65.6331 261.449L65.6331 258.79L67 258.79L67 262.018L64.729 264.302L63.7631 263.33Z" fill="#07847F"/>
        <path d="M67 252.768L67 246.747L65.6332 246.747L65.6332 252.768L67 252.768ZM67 240.727L67 234.707L65.6332 234.707L65.6332 240.727L67 240.727ZM67 228.687L67 222.667L65.6332 222.667L65.6332 228.687L67 228.687ZM67 216.645L67 210.625L65.6332 210.625L65.6332 216.645L67 216.645Z" fill="#07847F"/>
        <path d="M63.7631 203.255L67 200L67 204.604L65.6331 204.604L65.6331 203.318L64.729 204.227L63.7631 203.255Z" fill="#07847F"/>
        <path d="M-3.70518 273.056L0.57236 268.754L-0.393605 267.782L-4.67114 272.085L-3.70518 273.056ZM4.8499 264.452L9.12744 260.15L8.16147 259.178L3.88393 263.48L4.8499 264.452ZM13.4028 255.849L17.6804 251.547L16.7144 250.576L12.4369 254.878L13.4028 255.849ZM21.9579 247.245L26.2355 242.943L25.2695 241.971L20.992 246.273L21.9579 247.245ZM30.513 238.643L34.7905 234.341L33.8246 233.369L29.547 237.671L30.513 238.643ZM39.0659 230.038L43.3435 225.736L42.3775 224.765L38.1 229.067L39.0659 230.038ZM47.621 221.434L51.8986 217.132L50.9326 216.16L46.6551 220.462L47.621 221.434ZM56.174 212.832L60.4515 208.529L59.4855 207.558L55.208 211.86L56.174 212.832Z" fill="#07847F"/>
    </g>
    <path d="M105 117.965L105 109L124.002 126.682L143 109L143 117.965L124.002 135.647L105 117.965Z" fill="#07847F"/>
    <path d="M105 139.748L105 130.783L124.002 148.469L143 130.783L143 139.748L124.002 157.431L105 139.748Z" fill="#07847F"/>
    <path d="M105 161.535L105 152.57L124.002 170.252L143 152.57L143 161.535L124.002 179.217L105 161.535Z" fill="#07847F"/>
    <path d="M105 183.318L105 174.353L124.002 192.035L143 174.353L143 183.318L124.002 201L105 183.318Z" fill="#07847F"/>
    <path d="M105 122.965L105 114L124.002 131.682L143 114L143 122.965L124.002 140.647L105 122.965Z" fill="#07847F"/>
    <path d="M105 144.748L105 135.783L124.002 153.469L143 135.783L143 144.748L124.002 162.431L105 144.748Z" fill="#07847F"/>
    <path d="M105 166.535L105 157.569L124.002 175.251L143 157.569L143 166.535L124.002 184.217L105 166.535Z" fill="#07847F"/>
    <path d="M105 188.318L105 179.353L124.002 197.035L143 179.353L143 188.318L124.002 206L105 188.318Z" fill="#07847F"/>
    <path d="M42 155.596L42 144L66.5023 166.871L91 144L91 155.596L66.5023 178.468L42 155.596Z" fill="#FF7D44"/>
    <path d="M42 183.772L42 172.176L66.5023 195.052L91 172.176L91 183.772L66.5023 206.643L42 183.772Z" fill="#FF7D44"/>
    <path d="M42 211.953L42 200.356L66.5023 223.228L91 200.356L91 211.953L66.5023 234.824L42 211.953Z" fill="#FF7D44"/>
    <path d="M42 240.129L42 228.532L66.5023 251.404L91 228.532L91 240.129L66.5023 263L42 240.129Z" fill="#FF7D44"/>
    <path d="M42 150.596L42 139L66.5023 161.871L91 139L91 150.596L66.5023 173.468L42 150.596Z" fill="#FF7D44"/>
    <path d="M42 178.772L42 167.176L66.5023 190.052L91 167.176L91 178.772L66.5023 201.643L42 178.772Z" fill="#FF7D44"/>
    <path d="M42 206.953L42 195.356L66.5023 218.228L91 195.356L91 206.953L66.5023 229.824L42 206.953Z" fill="#FF7D44"/>
    <path d="M42 235.129L42 223.532L66.5023 246.404L91 223.532L91 235.129L66.5023 258L42 235.129Z" fill="#FF7D44"/>
    <path d="M123.524 287.629L123.524 282.298L112.261 292.812L101 282.298L101 287.629L112.261 298.142L123.524 287.629Z" fill="#CBF6FF"/>
    <path d="M123.524 300.581L123.524 295.25L112.261 305.766L101 295.25L101 300.581L112.261 311.094L123.524 300.581Z" fill="#CBF6FF"/>
    <path d="M123.524 313.535L123.524 308.204L112.261 318.718L101 308.204L101 313.535L112.261 324.048L123.524 313.535Z" fill="#CBF6FF"/>
    <path d="M123.524 326.486L123.524 321.156L112.261 331.669L101 321.156L101 326.486L112.261 337L123.524 326.486Z" fill="#CBF6FF"/>
    <path d="M123.524 285.331L123.524 280L112.261 290.513L101 280L101 285.331L112.261 295.844L123.524 285.331Z" fill="#CBF6FF"/>
    <path d="M123.524 298.282L123.524 292.952L112.261 303.467L101 292.952L101 298.282L112.261 308.796L123.524 298.282Z" fill="#CBF6FF"/>
    <path d="M123.524 311.236L123.524 305.906L112.261 316.419L101 305.906L101 311.236L112.261 321.75L123.524 311.236Z" fill="#CBF6FF"/>
    <path d="M123.524 324.188L123.524 318.857L112.261 329.371L101 318.857L101 324.188L112.261 334.701L123.524 324.188Z" fill="#CBF6FF"/>
    <defs>
        <clipPath id="clip0_303_174551">
            <rect width="155" height="140" fill="white" transform="matrix(1 -8.74228e-08 -8.74228e-08 -1 -86 140)"/>
        </clipPath>
        <clipPath id="clip1_303_174551">
            <rect width="155" height="140" fill="white" transform="matrix(1 -8.74228e-08 -8.74228e-08 -1 -86 240)"/>
        </clipPath>
        <clipPath id="clip2_303_174551">
            <rect width="155" height="140" fill="white" transform="matrix(1 -8.74228e-08 -8.74228e-08 -1 -88 340)"/>
        </clipPath>
    </defs>
</svg>
