<svg width="109" height="139" viewBox="0 0 109 139" fill="none" xmlns="http://www.w3.org/2000/svg">
    <path d="M1.65076 3.29914C2.56097 3.29914 3.29884 2.5606 3.29884 1.64957C3.29884 0.73854 2.56097 0 1.65076 0C0.740555 0 0.00268555 0.73854 0.00268555 1.64957C0.00268555 2.5606 0.740555 3.29914 1.65076 3.29914Z" fill="#DE4F10"/>
    <path d="M20.8148 1.64976C20.8148 2.56315 20.0793 3.29932 19.1668 3.29932C18.2542 3.29932 17.5187 2.56315 17.5187 1.64976C17.5187 0.73636 18.2542 0.000186323 19.1668 0.000186323C20.0793 -0.0134465 20.8148 0.722727 20.8148 1.64976Z" fill="#DE4F10"/>
    <path d="M38.3172 1.64976C38.3172 2.56315 37.5816 3.29932 36.6691 3.29932C35.7565 3.29932 35.021 2.56315 35.021 1.64976C35.021 0.73636 35.7565 0.000186323 36.6691 0.000186323C37.5816 -0.0134465 38.3172 0.722727 38.3172 1.64976Z" fill="#DE4F10"/>
    <path d="M54.1714 3.29962C55.0816 3.29962 55.8195 2.56109 55.8195 1.65006C55.8195 0.739028 55.0816 0.000488281 54.1714 0.000488281C53.2612 0.000488281 52.5233 0.739028 52.5233 1.65006C52.5233 2.56109 53.2612 3.29962 54.1714 3.29962Z" fill="#DE4F10"/>
    <path d="M71.6737 3.29962C72.5839 3.29962 73.3218 2.56109 73.3218 1.65006C73.3218 0.739028 72.5839 0.000488281 71.6737 0.000488281C70.7635 0.000488281 70.0256 0.739028 70.0256 1.65006C70.0256 2.56109 70.7635 3.29962 71.6737 3.29962Z" fill="#DE4F10"/>
    <path d="M90.8378 1.64976C90.8378 2.56315 90.1023 3.29932 89.1897 3.29932C88.2771 3.29932 87.5416 2.56315 87.5416 1.64976C87.5416 0.73636 88.2771 0.000186323 89.1897 0.000186323C90.0886 -0.0134465 90.8378 0.722727 90.8378 1.64976Z" fill="#DE4F10"/>
    <path d="M106.678 3.29962C107.589 3.29962 108.326 2.56109 108.326 1.65006C108.326 0.739028 107.589 0.000488281 106.678 0.000488281C105.768 0.000488281 105.03 0.739028 105.03 1.65006C105.03 2.56109 105.768 3.29962 106.678 3.29962Z" fill="#DE4F10"/>
    <path d="M3.31252 21.0355C3.31252 21.9489 2.57701 22.6851 1.66444 22.6851C0.751863 22.6851 0.0163574 21.9489 0.0163574 21.0355C0.0163574 20.1221 0.751863 19.3859 1.66444 19.3859C2.56339 19.3723 3.31252 20.1221 3.31252 21.0355Z" fill="#DE4F10"/>
    <path d="M20.8148 21.0355C20.8148 21.9489 20.0793 22.6851 19.1668 22.6851C18.2542 22.6851 17.5187 21.9489 17.5187 21.0355C17.5187 20.1221 18.2542 19.3859 19.1668 19.3859C20.0793 19.3723 20.8148 20.1221 20.8148 21.0355Z" fill="#DE4F10"/>
    <path d="M38.3172 21.0355C38.3172 21.9489 37.5816 22.6851 36.6691 22.6851C35.7565 22.6851 35.021 21.9489 35.021 21.0355C35.021 20.1221 35.7565 19.3859 36.6691 19.3859C37.5816 19.3723 38.3172 20.1221 38.3172 21.0355Z" fill="#DE4F10"/>
    <path d="M55.8195 21.0358C55.8195 21.9492 55.084 22.6854 54.1714 22.6854C53.2588 22.6854 52.5233 21.9492 52.5233 21.0358C52.5233 20.1224 53.2588 19.3862 54.1714 19.3862C55.084 19.3862 55.8195 20.1224 55.8195 21.0358Z" fill="#DE4F10"/>
    <path d="M73.3218 21.0358C73.3218 21.9492 72.5863 22.6854 71.6737 22.6854C70.7611 22.6854 70.0256 21.9492 70.0256 21.0358C70.0256 20.1224 70.7611 19.3862 71.6737 19.3862C72.5863 19.3862 73.3218 20.1224 73.3218 21.0358Z" fill="#DE4F10"/>
    <path d="M90.8378 21.0355C90.8378 21.9489 90.1023 22.6851 89.1897 22.6851C88.2771 22.6851 87.5416 21.9489 87.5416 21.0355C87.5416 20.1221 88.2771 19.3859 89.1897 19.3859C90.0886 19.3723 90.8378 20.1221 90.8378 21.0355Z" fill="#DE4F10"/>
    <path d="M108.34 21.0355C108.34 21.9489 107.605 22.6851 106.692 22.6851C105.779 22.6851 105.044 21.9489 105.044 21.0355C105.044 20.1221 105.779 19.3859 106.692 19.3859C107.591 19.3723 108.34 20.1221 108.34 21.0355Z" fill="#DE4F10"/>
    <path d="M1.65076 42.0711C2.56097 42.0711 3.29884 41.3326 3.29884 40.4215C3.29884 39.5105 2.56097 38.772 1.65076 38.772C0.740555 38.772 0.00268555 39.5105 0.00268555 40.4215C0.00268555 41.3326 0.740555 42.0711 1.65076 42.0711Z" fill="#DE4F10"/>
    <path d="M20.8148 40.4212C20.8148 41.3346 20.0793 42.0708 19.1668 42.0708C18.2542 42.0708 17.5187 41.3346 17.5187 40.4212C17.5187 39.5078 18.2542 38.7717 19.1668 38.7717C20.0793 38.758 20.8148 39.5078 20.8148 40.4212Z" fill="#DE4F10"/>
    <path d="M38.3172 40.4212C38.3172 41.3346 37.5816 42.0708 36.6691 42.0708C35.7565 42.0708 35.021 41.3346 35.021 40.4212C35.021 39.5078 35.7565 38.7717 36.6691 38.7717C37.5816 38.758 38.3172 39.5078 38.3172 40.4212Z" fill="#DE4F10"/>
    <path d="M54.1714 42.0711C55.0816 42.0711 55.8195 41.3326 55.8195 40.4215C55.8195 39.5105 55.0816 38.772 54.1714 38.772C53.2612 38.772 52.5233 39.5105 52.5233 40.4215C52.5233 41.3326 53.2612 42.0711 54.1714 42.0711Z" fill="#DE4F10"/>
    <path d="M71.6737 42.0711C72.5839 42.0711 73.3218 41.3326 73.3218 40.4215C73.3218 39.5105 72.5839 38.772 71.6737 38.772C70.7635 38.772 70.0256 39.5105 70.0256 40.4215C70.0256 41.3326 70.7635 42.0711 71.6737 42.0711Z" fill="#DE4F10"/>
    <path d="M90.8378 40.4212C90.8378 41.3346 90.1023 42.0708 89.1897 42.0708C88.2771 42.0708 87.5416 41.3346 87.5416 40.4212C87.5416 39.5078 88.2771 38.7717 89.1897 38.7717C90.0886 38.758 90.8378 39.5078 90.8378 40.4212Z" fill="#DE4F10"/>
    <path d="M106.678 42.0711C107.589 42.0711 108.326 41.3326 108.326 40.4215C108.326 39.5105 107.589 38.772 106.678 38.772C105.768 38.772 105.03 39.5105 105.03 40.4215C105.03 41.3326 105.768 42.0711 106.678 42.0711Z" fill="#DE4F10"/>
    <path d="M3.31252 59.807C3.31252 60.7204 2.57701 61.4565 1.66444 61.4565C0.751863 61.4565 0.0163574 60.7204 0.0163574 59.807C0.0163574 58.8936 0.751863 58.1574 1.66444 58.1574C2.56339 58.1438 3.31252 58.8936 3.31252 59.807Z" fill="#DE4F10"/>
    <path d="M20.8148 59.807C20.8148 60.7204 20.0793 61.4565 19.1668 61.4565C18.2542 61.4565 17.5187 60.7204 17.5187 59.807C17.5187 58.8936 18.2542 58.1574 19.1668 58.1574C20.0793 58.1438 20.8148 58.8936 20.8148 59.807Z" fill="#DE4F10"/>
    <path d="M38.3172 59.807C38.3172 60.7204 37.5816 61.4565 36.6691 61.4565C35.7565 61.4565 35.021 60.7204 35.021 59.807C35.021 58.8936 35.7565 58.1574 36.6691 58.1574C37.5816 58.1438 38.3172 58.8936 38.3172 59.807Z" fill="#DE4F10"/>
    <path d="M55.8195 59.8073C55.8195 60.7207 55.084 61.4568 54.1714 61.4568C53.2588 61.4568 52.5233 60.7207 52.5233 59.8073C52.5233 58.8939 53.2588 58.1577 54.1714 58.1577C55.084 58.1577 55.8195 58.8939 55.8195 59.8073Z" fill="#DE4F10"/>
    <path d="M73.3218 59.8073C73.3218 60.7207 72.5863 61.4568 71.6737 61.4568C70.7611 61.4568 70.0256 60.7207 70.0256 59.8073C70.0256 58.8939 70.7611 58.1577 71.6737 58.1577C72.5863 58.1577 73.3218 58.8939 73.3218 59.8073Z" fill="#DE4F10"/>
    <path d="M90.8378 59.807C90.8378 60.7204 90.1023 61.4565 89.1897 61.4565C88.2771 61.4565 87.5416 60.7204 87.5416 59.807C87.5416 58.8936 88.2771 58.1574 89.1897 58.1574C90.0886 58.1438 90.8378 58.8936 90.8378 59.807Z" fill="#DE4F10"/>
    <path d="M108.34 59.807C108.34 60.7204 107.605 61.4565 106.692 61.4565C105.779 61.4565 105.044 60.7204 105.044 59.807C105.044 58.8936 105.779 58.1574 106.692 58.1574C107.591 58.1438 108.34 58.8936 108.34 59.807Z" fill="#DE4F10"/>
    <path d="M1.65076 80.8426C2.56097 80.8426 3.29884 80.1041 3.29884 79.193C3.29884 78.282 2.56097 77.5435 1.65076 77.5435C0.740555 77.5435 0.00268555 78.282 0.00268555 79.193C0.00268555 80.1041 0.740555 80.8426 1.65076 80.8426Z" fill="#DE4F10"/>
    <path d="M20.8148 79.193C20.8148 80.1064 20.0793 80.8426 19.1668 80.8426C18.2542 80.8426 17.5187 80.1064 17.5187 79.193C17.5187 78.2796 18.2542 77.5435 19.1668 77.5435C20.0793 77.5435 20.8148 78.2796 20.8148 79.193Z" fill="#DE4F10"/>
    <path d="M38.3172 79.193C38.3172 80.1064 37.5816 80.8426 36.6691 80.8426C35.7565 80.8426 35.021 80.1064 35.021 79.193C35.021 78.2796 35.7565 77.5435 36.6691 77.5435C37.5816 77.5435 38.3172 78.2796 38.3172 79.193Z" fill="#DE4F10"/>
    <path d="M54.1714 80.8426C55.0816 80.8426 55.8195 80.1041 55.8195 79.193C55.8195 78.282 55.0816 77.5435 54.1714 77.5435C53.2612 77.5435 52.5233 78.282 52.5233 79.193C52.5233 80.1041 53.2612 80.8426 54.1714 80.8426Z" fill="#DE4F10"/>
    <path d="M71.6737 80.8426C72.5839 80.8426 73.3218 80.1041 73.3218 79.193C73.3218 78.282 72.5839 77.5435 71.6737 77.5435C70.7635 77.5435 70.0256 78.282 70.0256 79.193C70.0256 80.1041 70.7635 80.8426 71.6737 80.8426Z" fill="#DE4F10"/>
    <path d="M90.8378 79.193C90.8378 80.1064 90.1023 80.8426 89.1897 80.8426C88.2771 80.8426 87.5416 80.1064 87.5416 79.193C87.5416 78.2796 88.2771 77.5435 89.1897 77.5435C90.0886 77.5435 90.8378 78.2796 90.8378 79.193Z" fill="#DE4F10"/>
    <path d="M106.678 80.8426C107.589 80.8426 108.326 80.1041 108.326 79.193C108.326 78.282 107.589 77.5435 106.678 77.5435C105.768 77.5435 105.03 78.282 105.03 79.193C105.03 80.1041 105.768 80.8426 106.678 80.8426Z" fill="#DE4F10"/>
    <path d="M1.65076 100.228C2.56097 100.228 3.29884 99.4898 3.29884 98.5788C3.29884 97.6677 2.56097 96.9292 1.65076 96.9292C0.740555 96.9292 0.00268555 97.6677 0.00268555 98.5788C0.00268555 99.4898 0.740555 100.228 1.65076 100.228Z" fill="#DE4F10"/>
    <path d="M20.8148 98.5788C20.8148 99.4922 20.0793 100.228 19.1668 100.228C18.2542 100.228 17.5187 99.4922 17.5187 98.5788C17.5187 97.6654 18.2542 96.9292 19.1668 96.9292C20.0793 96.9292 20.8148 97.6654 20.8148 98.5788Z" fill="#DE4F10"/>
    <path d="M38.3172 98.5788C38.3172 99.4922 37.5816 100.228 36.6691 100.228C35.7565 100.228 35.021 99.4922 35.021 98.5788C35.021 97.6654 35.7565 96.9292 36.6691 96.9292C37.5816 96.9292 38.3172 97.6654 38.3172 98.5788Z" fill="#DE4F10"/>
    <path d="M54.1714 100.228C55.0816 100.228 55.8195 99.4898 55.8195 98.5788C55.8195 97.6677 55.0816 96.9292 54.1714 96.9292C53.2612 96.9292 52.5233 97.6677 52.5233 98.5788C52.5233 99.4898 53.2612 100.228 54.1714 100.228Z" fill="#DE4F10"/>
    <path d="M71.6737 100.228C72.5839 100.228 73.3218 99.4898 73.3218 98.5788C73.3218 97.6677 72.5839 96.9292 71.6737 96.9292C70.7635 96.9292 70.0256 97.6677 70.0256 98.5788C70.0256 99.4898 70.7635 100.228 71.6737 100.228Z" fill="#DE4F10"/>
    <path d="M90.8378 98.5788C90.8378 99.4922 90.1023 100.228 89.1897 100.228C88.2771 100.228 87.5416 99.4922 87.5416 98.5788C87.5416 97.6654 88.2771 96.9292 89.1897 96.9292C90.0886 96.9292 90.8378 97.6654 90.8378 98.5788Z" fill="#DE4F10"/>
    <path d="M106.678 100.228C107.589 100.228 108.326 99.4898 108.326 98.5788C108.326 97.6677 107.589 96.9292 106.678 96.9292C105.768 96.9292 105.03 97.6677 105.03 98.5788C105.03 99.4898 105.768 100.228 106.678 100.228Z" fill="#DE4F10"/>
    <path d="M3.31252 117.964C3.31252 118.878 2.57701 119.614 1.66444 119.614C0.751863 119.614 0.0163574 118.878 0.0163574 117.964C0.0163574 117.051 0.751863 116.315 1.66444 116.315C2.56339 116.315 3.31252 117.051 3.31252 117.964Z" fill="#DE4F10"/>
    <path d="M20.8148 117.964C20.8148 118.878 20.0793 119.614 19.1668 119.614C18.2542 119.614 17.5187 118.878 17.5187 117.964C17.5187 117.051 18.2542 116.315 19.1668 116.315C20.0793 116.315 20.8148 117.051 20.8148 117.964Z" fill="#DE4F10"/>
    <path d="M38.3172 117.964C38.3172 118.878 37.5816 119.614 36.6691 119.614C35.7565 119.614 35.021 118.878 35.021 117.964C35.021 117.051 35.7565 116.315 36.6691 116.315C37.5816 116.315 38.3172 117.051 38.3172 117.964Z" fill="#DE4F10"/>
    <path d="M55.8195 117.964C55.8195 118.878 55.084 119.614 54.1714 119.614C53.2588 119.614 52.5233 118.878 52.5233 117.964C52.5233 117.051 53.2588 116.315 54.1714 116.315C55.084 116.315 55.8195 117.051 55.8195 117.964Z" fill="#DE4F10"/>
    <path d="M73.3218 117.964C73.3218 118.878 72.5863 119.614 71.6737 119.614C70.7611 119.614 70.0256 118.878 70.0256 117.964C70.0256 117.051 70.7611 116.315 71.6737 116.315C72.5863 116.315 73.3218 117.051 73.3218 117.964Z" fill="#DE4F10"/>
    <path d="M90.8378 117.964C90.8378 118.878 90.1023 119.614 89.1897 119.614C88.2771 119.614 87.5416 118.878 87.5416 117.964C87.5416 117.051 88.2771 116.315 89.1897 116.315C90.0886 116.315 90.8378 117.051 90.8378 117.964Z" fill="#DE4F10"/>
    <path d="M108.34 117.964C108.34 118.878 107.605 119.614 106.692 119.614C105.779 119.614 105.044 118.878 105.044 117.964C105.044 117.051 105.779 116.315 106.692 116.315C107.591 116.315 108.34 117.051 108.34 117.964Z" fill="#DE4F10"/>
    <path d="M1.65076 139C2.56097 139 3.29884 138.261 3.29884 137.35C3.29884 136.439 2.56097 135.701 1.65076 135.701C0.740555 135.701 0.00268555 136.439 0.00268555 137.35C0.00268555 138.261 0.740555 139 1.65076 139Z" fill="#DE4F10"/>
    <path d="M20.8148 137.35C20.8148 138.264 20.0793 139 19.1668 139C18.2542 139 17.5187 138.264 17.5187 137.35C17.5187 136.437 18.2542 135.701 19.1668 135.701C20.0793 135.701 20.8148 136.437 20.8148 137.35Z" fill="#DE4F10"/>
    <path d="M38.3172 137.35C38.3172 138.264 37.5816 139 36.6691 139C35.7565 139 35.021 138.264 35.021 137.35C35.021 136.437 35.7565 135.701 36.6691 135.701C37.5816 135.701 38.3172 136.437 38.3172 137.35Z" fill="#DE4F10"/>
    <path d="M54.1714 139C55.0816 139 55.8195 138.261 55.8195 137.35C55.8195 136.439 55.0816 135.701 54.1714 135.701C53.2612 135.701 52.5233 136.439 52.5233 137.35C52.5233 138.261 53.2612 139 54.1714 139Z" fill="#DE4F10"/>
    <path d="M71.6737 139C72.5839 139 73.3218 138.261 73.3218 137.35C73.3218 136.439 72.5839 135.701 71.6737 135.701C70.7635 135.701 70.0256 136.439 70.0256 137.35C70.0256 138.261 70.7635 139 71.6737 139Z" fill="#DE4F10"/>
    <path d="M90.8378 137.35C90.8378 138.264 90.1023 139 89.1897 139C88.2771 139 87.5416 138.264 87.5416 137.35C87.5416 136.437 88.2771 135.701 89.1897 135.701C90.0886 135.701 90.8378 136.437 90.8378 137.35Z" fill="#DE4F10"/>
    <path d="M106.678 139C107.589 139 108.326 138.261 108.326 137.35C108.326 136.439 107.589 135.701 106.678 135.701C105.768 135.701 105.03 136.439 105.03 137.35C105.03 138.261 105.768 139 106.678 139Z" fill="#DE4F10"/>
</svg>
