<svg width="518" height="414" viewBox="0 0 518 414" fill="none" xmlns="http://www.w3.org/2000/svg">
    <path d="M2.61868 589.076H0C12.134 440.457 75.7595 302.373 182.295 195.742C294.378 83.5569 441.257 18.8878 598.557 11.8033V14.4243C283.593 28.8529 28.52 276.915 2.61868 589.076Z" fill="#E0E8F4"/>
    <path d="M598.557 589.076H431.17C431.43 588.687 431.689 588.35 431.974 587.96C430.289 586.715 428.578 585.443 426.815 584.146C425.648 585.754 424.481 587.337 423.211 589.076H407.24C406.514 588.557 405.788 588.012 405.062 587.493C404.673 588.012 404.284 588.557 403.895 589.076H339.569C341.125 586.741 343.095 583.808 344.807 581.239C342.266 579.345 339.206 577.113 336.717 575.27C334.591 578.073 332.102 581.395 330.158 583.964C332.517 585.391 335.654 587.286 338.636 589.076H320.409C321.705 587.312 323.52 585.884 325.828 584.639C319.735 583.964 315.716 581.109 314.679 575.504C313.616 569.613 316.753 565.591 322.25 562.996C314.601 561.335 311.101 558.039 310.764 552.46C310.479 547.97 313.383 543.143 317.842 542.079C320.409 541.457 323.624 541.535 325.957 542.599C328.421 543.714 330.184 546.361 331.532 547.633C333.139 544.726 335.058 541.301 337.002 537.798C332.958 536.993 330.236 533.983 328.524 529.909C327.824 524.148 329.795 519.814 335.136 517.167C335.602 516.933 335.862 516.362 336.225 515.921C330.132 516.025 326.009 512.833 324.946 507.228C324.039 502.323 326.995 497.237 331.739 495.55C337.417 493.526 342.24 495.965 346.103 503.076C345.973 497.341 348.54 493.5 353.596 491.138C345.74 488.751 342.473 485.403 342.473 479.954C342.473 475.36 345.481 470.845 350.044 469.937C352.637 469.444 355.644 469.885 358.185 470.741C360.311 471.468 362.23 472.843 364.174 474.115C364.926 470.222 367.467 467.471 371.356 465.473C363.889 463.475 360.648 460.335 360.285 454.963C359.974 450.474 362.852 445.569 367.286 444.557C369.956 443.934 373.171 444.219 375.79 445.154C378.357 446.062 380.431 448.268 381.701 449.176C381.597 445.725 384.605 442.351 389.531 439.704C383.412 438.874 379.342 436.33 378.357 430.543C377.371 424.653 380.612 420.994 385.746 418.269C379.186 417.698 375.375 414.558 374.727 409.497C374.079 404.515 376.593 400.103 381.105 398.339C385.59 396.574 391.087 397.975 393.239 402.257C394.509 404.8 395.106 408.304 394.457 411.003C393.835 413.624 391.217 415.752 389.453 418.113C393.706 418.84 397.128 420.994 398.787 425.457C398.969 425.924 399.617 426.236 400.058 426.625C398.554 421.279 401.795 418.061 405.451 414.999C397.984 411.703 395.365 408.122 396.195 402.517C396.92 397.794 400.395 394.342 405.139 393.694C409.78 393.045 414.24 395.562 416.107 399.87C418.233 404.774 416.651 409.238 411.621 413.442C414.473 415.336 417.481 417.309 420.022 418.969C422.174 416.452 424.585 413.65 426.97 410.873C421.811 409.835 418.155 406.669 417.559 400.726C417.144 396.652 419.659 392.448 423.496 390.657C429.589 387.829 434.204 390.268 438.171 395.51C439.363 389.801 442.423 386.272 447.712 385.597C453.338 384.87 457.176 387.881 459.742 393.382C459.976 387.647 462.568 384.092 467.676 381.756C466.12 381.367 465.135 381.159 464.15 380.9C459.405 379.55 456.216 375.398 456.268 370.649C456.32 365.719 459.768 361.541 464.694 360.451C469.387 359.387 474.002 361.618 476.31 366.03C476.803 366.964 477.399 367.821 477.969 368.703C477.736 362.734 480.043 358.193 484.918 356.999C487.562 356.35 490.777 356.714 493.422 357.596C496.041 358.478 498.27 360.58 499.593 361.463C500.344 356.895 503.041 353.392 508.252 352.484C514.319 351.42 518.182 354.612 520.775 360.061C522.046 352.899 524.949 349.214 530.187 348.487C536.072 347.683 539.935 350.745 542.399 356.117C543.825 348.903 546.651 345.321 551.862 344.621C557.747 343.816 561.611 346.878 564.255 352.64C564.566 347.242 566.641 343.505 571.515 341.092C564.411 339.56 561.092 335.979 560.988 330.607C560.911 325.91 564.022 321.629 568.378 320.435C573.2 319.111 578.256 321.291 580.537 325.651C583.078 330.556 581.549 335.279 576.311 339.846C579.241 341.766 582.301 343.79 584.867 345.477C586.942 342.752 589.223 339.768 591.349 336.965C585.464 335.097 582.534 331.594 582.715 326.118C582.871 321.603 586.086 317.58 590.364 316.568C593.216 315.893 596.223 316.335 598.531 317.762V335.434C598.375 335.616 598.22 335.772 598.09 335.953C598.22 336.083 598.375 336.213 598.531 336.343V400.596C596.898 399.455 595.264 398.287 593.709 397.197C592.153 399.558 590.494 402.076 588.808 404.593C590.986 406.046 593.449 407.707 595.887 409.342C596.742 408.2 597.624 407.032 598.505 405.864V420.033C598.246 419.852 598.013 419.67 597.753 419.488C596.198 421.798 594.746 423.978 593.268 426.158C594.927 427.274 596.69 428.493 598.505 429.713V446.581C598.272 446.944 598.038 447.308 597.779 447.645C598.013 447.801 598.272 447.982 598.505 448.138V589.076H598.557ZM581.756 455.274C583.027 453.536 584.297 451.771 585.671 449.877C583.701 448.424 581.886 447.074 580.071 445.751C578.826 447.645 577.556 449.565 576.26 451.538C578.1 452.757 579.941 454.003 581.756 455.274ZM581.238 472.532C582.793 473.648 584.038 474.556 585.49 475.594C586.423 474.296 587.331 472.999 588.394 471.52C587.019 470.404 585.671 469.314 584.115 468.042C583.182 469.547 582.249 470.975 581.238 472.532ZM582.534 428.026C580.563 426.729 578.671 425.457 576.674 424.16C575.196 426.132 573.719 428.13 572.189 430.154C574.03 431.478 575.974 432.905 577.945 434.306C579.397 432.36 580.875 430.284 582.534 428.026ZM571.23 521.578C572.111 520.437 572.863 519.476 573.719 518.361C572.552 517.556 571.541 516.855 570.374 516.051C569.596 517.115 568.948 518.023 568.118 519.191C569.104 519.944 570.063 520.696 571.23 521.578ZM567.47 500.351C568.43 499.131 569.337 497.963 570.4 496.614C569.104 495.628 567.833 494.668 566.381 493.552C565.37 495.057 564.592 496.225 563.633 497.652C564.826 498.482 566.018 499.313 567.47 500.351ZM563.789 479.383C564.696 478.137 565.603 476.865 566.64 475.386C565.163 474.193 563.737 473.025 562.181 471.753C561.144 473.129 560.185 474.452 558.966 476.087C560.651 477.229 562.077 478.215 563.789 479.383ZM560.159 458.7C561.403 457.091 562.648 455.508 563.996 453.743C562.363 452.628 560.729 451.512 558.914 450.266C557.799 451.901 556.736 453.406 555.621 455.041C557.177 456.312 558.655 457.48 560.159 458.7ZM555.258 427.429C553.858 429.454 552.38 431.582 550.747 433.917C552.562 435.033 554.507 436.227 556.503 437.446C558.033 435.526 559.536 433.658 561.04 431.763C559.044 430.232 557.203 428.883 555.258 427.429ZM558.292 410.12C556.01 408.485 553.521 406.695 551.136 404.982C549.632 407.266 547.999 409.757 546.314 412.326C548.543 413.805 550.954 415.388 553.314 416.945C554.921 414.765 556.633 412.43 558.292 410.12ZM549.632 525.627C550.566 524.277 551.24 523.343 551.992 522.253C550.877 521.449 549.891 520.722 548.647 519.814C547.869 520.93 547.143 521.942 546.314 523.135C547.377 523.94 548.362 524.667 549.632 525.627ZM545.873 504.295C546.884 502.92 547.766 501.7 548.725 500.377C547.532 499.52 546.443 498.742 545.225 497.86C544.239 499.235 543.332 500.455 542.269 501.934C543.643 502.842 544.706 503.517 545.873 504.295ZM542.321 482.886C543.461 481.381 544.473 480.083 545.588 478.656C544.187 477.644 542.787 476.632 541.258 475.542C540.169 477.047 539.158 478.448 537.991 480.057C539.443 480.992 540.791 481.874 542.321 482.886ZM538.561 461.892C539.806 460.231 540.869 458.804 542.087 457.195C540.61 455.975 539.08 454.704 537.524 453.406C536.383 455.171 535.268 456.883 534.076 458.726C535.502 459.738 536.928 460.75 538.561 461.892ZM533.557 431.296C532.157 433.32 530.653 435.474 529.072 437.732C531.042 439.081 533.194 440.535 535.398 442.04C536.902 439.912 538.354 437.836 539.78 435.811C537.732 434.306 535.683 432.827 533.557 431.296ZM536.643 414.039C534.18 412.248 531.742 410.484 529.461 408.797C527.879 411.184 526.194 413.753 524.561 416.193C526.713 417.594 529.15 419.177 531.639 420.812C533.22 418.71 534.983 416.297 536.643 414.039ZM528.216 529.208C529.046 528.118 529.694 527.21 530.524 526.094C529.513 525.367 528.605 524.718 527.542 523.966C526.764 524.9 526.012 525.782 525.053 526.95C526.142 527.703 527.127 528.403 528.216 529.208ZM524.379 507.98C525.39 506.657 526.324 505.463 527.387 504.088C526.168 503.076 525.027 502.115 523.679 500.974C522.59 502.66 521.709 504.036 520.697 505.619C521.994 506.449 523.16 507.176 524.379 507.98ZM521.216 487.35C522.383 485.767 523.524 484.184 524.768 482.471C522.953 481.121 521.423 479.98 519.79 478.76C518.649 480.473 517.456 482.237 516.238 484.054C517.897 485.144 519.479 486.182 521.216 487.35ZM517.586 466.355C518.649 464.772 519.738 463.112 520.957 461.269C519.245 459.894 517.508 458.518 515.616 456.987C514.319 458.752 512.997 460.568 511.649 462.359C513.619 463.682 515.59 465.006 517.586 466.355ZM511.752 435.007C510.456 437.005 509.186 439.003 507.889 441.054C509.886 442.533 511.882 444.012 513.904 445.517C515.356 443.623 516.808 441.728 518.338 439.73C516.004 438.069 513.879 436.538 511.752 435.007ZM515.045 417.88C512.582 416.089 510.145 414.298 507.837 412.612C506.256 414.999 504.493 417.646 502.833 420.111C505.089 421.616 507.604 423.277 509.989 424.886C511.623 422.654 513.386 420.189 515.045 417.88ZM506.93 533.62C507.863 532.478 508.771 531.362 509.938 529.935C508.486 528.871 507.267 527.988 505.945 527.028C505.037 528.352 504.208 529.597 503.197 531.05C504.415 531.881 505.53 532.659 506.93 533.62ZM503.3 512.548C504.389 511.094 505.452 509.719 506.619 508.136C504.908 506.864 503.482 505.8 502.004 504.711C500.967 506.242 499.956 507.721 498.815 509.434C500.241 510.446 501.667 511.432 503.3 512.548ZM499.644 491.476C500.837 489.815 502.004 488.154 503.248 486.415C501.589 485.17 499.904 483.872 498.037 482.471C496.715 484.443 495.496 486.208 494.303 487.998C496.092 489.14 497.855 490.308 499.644 491.476ZM454.609 489.633C453.157 491.683 451.705 493.733 450.253 495.809C452.327 497.185 454.349 498.508 456.372 499.832C457.668 497.963 459.042 496.043 460.494 493.993C458.576 492.618 456.605 491.138 454.609 489.633ZM457.176 472.22C455.101 470.663 452.82 468.976 450.668 467.367C449.034 469.677 447.375 472.013 445.819 474.244C448.023 475.698 450.383 477.229 452.664 478.734C454.012 476.736 455.542 474.556 457.176 472.22ZM466.898 432.568C468.713 430.206 470.528 427.793 472.161 425.639C469.621 423.796 466.846 421.798 464.228 419.878C462.905 422.11 461.298 424.834 459.768 427.455C461.998 429.064 464.513 430.855 466.898 432.568ZM468.195 441.936C466.639 444.142 464.98 446.477 463.398 448.709C465.576 450.136 468.013 451.745 470.528 453.406C471.85 451.46 473.354 449.176 474.728 447.126C472.576 445.439 470.295 443.623 468.195 441.936ZM472.395 463.838C470.969 465.862 469.465 468.016 467.858 470.326C469.932 471.701 472.161 473.18 474.288 474.582C475.636 472.61 477.088 470.533 478.514 468.431C476.491 466.926 474.469 465.395 472.395 463.838ZM476.336 486.13C475.013 487.998 473.639 489.971 472.291 491.865C474.21 493.137 476.102 494.408 477.995 495.654C479.214 493.915 480.458 492.124 481.858 490.152C479.991 488.803 478.254 487.505 476.336 486.13ZM488.314 428.986C490 426.651 491.918 424.004 493.526 421.746C491.088 419.982 488.47 418.087 486.033 416.323C484.477 418.684 482.688 421.435 480.951 424.056C483.362 425.665 485.877 427.352 488.314 428.986ZM490.051 438.614C488.703 440.742 487.407 442.792 486.033 444.946C487.951 446.347 490.051 447.904 492.126 449.436C493.448 447.437 494.848 445.335 496.222 443.285C494.148 441.728 491.996 440.093 490.051 438.614ZM494.148 460.179C492.774 462.125 491.322 464.202 489.792 466.355C491.711 467.653 493.785 469.028 495.859 470.404C497.207 468.431 498.633 466.407 499.904 464.539C497.855 462.982 496.041 461.606 494.148 460.179ZM489.222 559.181C490.181 557.858 490.907 556.845 491.788 555.6C490.57 554.614 489.429 553.705 488.133 552.693C487.225 553.991 486.37 555.185 485.359 556.586C486.681 557.494 487.796 558.247 489.222 559.181ZM485.307 537.979C486.344 536.578 487.407 535.203 488.47 533.775C487.044 532.685 485.721 531.673 484.166 530.48C483.103 532.037 482.169 533.412 481.054 535.021C482.403 535.981 483.725 536.889 485.307 537.979ZM481.729 516.778C482.921 515.091 484.01 513.534 485.099 511.977C483.569 510.809 482.04 509.667 480.329 508.344C479.136 510.004 477.917 511.717 476.621 513.508C478.41 514.65 480.069 515.714 481.729 516.778ZM471.306 584.223C472.084 583.159 472.81 582.173 473.717 580.98C472.525 580.019 471.384 579.111 470.061 578.073C469.18 579.215 468.428 580.201 467.495 581.447C468.739 582.355 469.906 583.211 471.306 584.223ZM467.832 563.022C468.791 561.776 469.698 560.608 470.71 559.337C469.076 558.117 467.754 557.131 466.38 556.067C465.524 557.338 464.668 558.584 463.709 560.011C465.057 560.998 466.328 561.958 467.832 563.022ZM463.839 542.313C464.98 540.782 466.146 539.199 467.339 537.59C465.732 536.396 464.124 535.203 462.465 533.983C461.246 535.696 460.105 537.331 458.861 539.043C460.494 540.107 462.05 541.145 463.839 542.313ZM460.157 521.137C461.376 519.373 462.594 517.608 463.813 515.817C462.076 514.52 460.365 513.222 458.524 511.847C457.124 513.845 455.879 515.61 454.583 517.452C456.424 518.672 458.29 519.918 460.157 521.137ZM449.864 588.635C450.927 587.13 451.886 585.806 453.027 584.171C451.42 583.004 450.02 581.94 448.542 580.85C447.453 582.381 446.416 583.834 445.197 585.521C446.727 586.533 448.231 587.545 449.864 588.635ZM446.079 567.278C447.064 565.772 447.997 564.345 449.008 562.84C447.505 561.672 446.131 560.608 444.679 559.492C443.616 561.049 442.604 562.529 441.541 564.086C442.967 565.098 444.419 566.11 446.079 567.278ZM442.345 546.725C443.641 544.856 444.782 543.195 446.027 541.405C444.368 540.159 442.682 538.862 440.789 537.46C439.545 539.199 438.223 541.016 436.797 543.014C438.586 544.181 440.401 545.401 442.345 546.725ZM438.56 525.419C439.856 523.577 441.204 521.63 442.63 519.632C440.608 518.153 438.793 516.829 436.823 515.402C435.448 517.297 433.997 519.295 432.493 521.371C434.411 522.642 436.46 524.018 438.56 525.419ZM434.748 504.166C436.097 502.219 437.6 500.065 439.13 497.834C437.16 496.38 435.034 494.797 432.856 493.162C431.248 495.394 429.719 497.574 428.137 499.78C430.185 501.129 432.467 502.66 434.748 504.166ZM435.863 476.035C433.582 474.348 431.17 472.558 428.889 470.845C427.255 473.258 425.544 475.75 423.833 478.241C425.985 479.642 428.526 481.303 431.041 482.938C432.519 480.836 434.23 478.371 435.863 476.035ZM424.585 571.715C425.622 570.132 426.633 568.523 427.8 566.733C426.089 565.357 424.326 563.982 422.64 562.658C421.266 564.449 420.022 566.084 418.725 567.823C420.618 569.094 422.589 570.392 424.585 571.715ZM420.929 550.643C422.174 548.905 423.444 547.14 424.792 545.245C422.926 543.87 420.981 542.391 418.907 540.86C417.688 542.702 416.444 544.571 415.225 546.413C417.17 547.841 419.062 549.242 420.929 550.643ZM416.988 529.779C418.336 527.807 419.788 525.627 421.318 523.395C419.348 521.942 417.222 520.385 415.07 518.802C413.54 520.904 411.932 523.136 410.325 525.341C412.555 526.846 414.784 528.326 416.988 529.779ZM417.948 501.545C415.822 500.065 413.721 498.612 411.647 497.185C410.118 499.261 408.432 501.545 406.643 503.932C408.692 505.385 410.999 507.046 413.177 508.603C414.707 506.319 416.392 503.828 417.948 501.545ZM403.013 576.179C404.336 574.206 405.788 572.078 407.214 569.951C405.165 568.471 403.143 566.966 401.121 565.461C399.591 567.589 398.061 569.717 396.558 571.819C398.735 573.298 400.836 574.725 403.013 576.179ZM399.228 554.925C400.498 552.901 401.847 550.747 403.143 548.671C401.302 547.322 399.487 545.998 397.698 544.675C396.298 546.621 394.872 548.645 393.42 550.669C395.313 552.071 397.309 553.524 399.228 554.925ZM395.624 533.542C397.05 531.569 398.606 529.467 400.239 527.236C398.191 525.757 395.961 524.199 393.835 522.668C392.254 524.796 390.568 527.08 388.831 529.416C391.061 530.765 393.317 532.14 395.624 533.542ZM390.076 499.832C388.39 502.323 386.472 505.178 384.631 507.902C386.913 509.252 389.402 510.731 391.813 512.132C393.524 509.901 395.365 507.513 397.154 505.23C394.872 503.517 392.331 501.57 390.076 499.832ZM394.198 483.665C391.631 481.744 388.624 479.512 386.161 477.67C384.32 480.343 382.09 483.561 380.171 486.337C382.635 487.817 385.772 489.711 388.65 491.45C390.491 488.881 392.435 486.13 394.198 483.665ZM381.442 580.694C382.946 578.436 384.475 576.101 386.109 573.661C384.242 572.338 382.09 570.833 379.938 569.328C378.253 571.508 376.438 573.843 374.753 575.997C376.956 577.554 379.212 579.137 381.442 580.694ZM377.916 558.506C379.238 556.664 380.768 554.536 382.298 552.382C380.301 550.669 378.149 548.801 376.049 546.984C374.441 549.268 372.627 551.837 370.864 554.302C373.015 555.6 375.401 557.027 377.916 558.506ZM374.805 538.057C376.464 535.773 378.305 533.23 379.886 531.05C377.294 529.078 374.545 527.002 372.16 525.212C370.656 527.599 368.945 530.35 367.389 532.867C369.697 534.476 372.315 536.318 374.805 538.057ZM376.464 509.278C373.871 507.332 370.915 505.152 368.349 503.231C366.482 505.878 364.2 509.148 362.256 511.925C364.771 513.43 367.986 515.376 370.889 517.141C372.756 514.494 374.779 511.639 376.464 509.278ZM360.156 584.327C361.815 582.095 363.682 579.63 365.393 577.346C362.956 575.426 360.467 573.48 358.341 571.819C356.604 574.362 354.633 577.217 352.689 580.019C354.867 581.291 357.537 582.822 360.156 584.327ZM356.863 563.515C358.652 560.972 360.596 558.195 362.333 555.73C359.793 553.809 356.863 551.629 354.477 549.839C352.663 552.46 350.485 555.6 348.592 558.325C351.029 559.882 354.037 561.75 356.863 563.515ZM353.207 542.521C354.711 540.055 356.474 537.123 358.004 534.58C355.618 532.607 352.844 530.298 350.485 528.352C348.981 530.817 347.088 533.957 345.351 536.837C347.788 538.602 350.614 540.652 353.207 542.521ZM332.154 552.719C331.636 556.845 329.276 560.556 324.324 562.477C329.51 562.788 333.113 565.253 335.032 568.731C337.184 565.539 339.44 562.217 341.281 559.518C338.584 557.52 335.265 555.055 332.154 552.719ZM346.077 506.216C345.273 510.887 342.707 515.221 336.38 515.895C341.695 516.44 346.855 517.297 348.929 522.487C351.237 519.113 353.622 515.662 355.437 513.015C352.74 511.068 349.37 508.603 346.077 506.216ZM363.941 480.758C363.319 484.625 361.219 488.491 356.215 490.386C361.271 490.775 364.9 493.188 366.819 496.692C368.919 493.526 371.097 490.256 372.99 487.427C370.397 485.533 367.104 483.094 363.941 480.758ZM381.701 455.093C381.183 459.037 378.979 462.826 374.96 464.305C378.279 466.329 381.935 468.561 384.994 470.404C386.731 467.887 388.987 464.591 390.828 461.918C388.157 459.92 384.864 457.428 381.701 455.093ZM400.032 426.651C398.891 431.997 397.828 437.369 391.346 439.289C396.506 439.574 400.369 441.754 402.365 445.725C404.569 442.507 406.851 439.133 409.08 435.837C405.036 434.825 400.602 432.749 400.032 426.651ZM403.999 451.823C402.132 454.574 399.876 457.921 397.906 460.828C400.187 462.1 403.169 463.786 405.917 465.317C407.732 462.982 409.858 460.231 411.569 458.025C409.106 456.001 406.228 453.64 403.999 451.823ZM407.68 475.049C406.021 477.281 404.18 479.798 402.365 482.263C404.647 483.613 407.188 485.144 409.625 486.597C411.362 484.339 413.151 481.952 414.784 479.824C412.477 478.267 409.988 476.606 407.68 475.049ZM421.526 427.819C419.374 430.336 417.118 433.009 415.303 435.163C417.922 436.642 421.007 438.381 423.885 440.015C425.337 437.913 427.1 435.37 428.681 433.061C426.452 431.426 423.911 429.583 421.526 427.819ZM425.518 449.358C423.755 451.693 421.785 454.314 419.892 456.832C422.251 458.44 424.844 460.205 427.23 461.814C428.941 459.427 430.833 456.754 432.7 454.159C430.419 452.628 427.8 450.889 425.518 449.358ZM443.512 405.449C441.93 404.437 440.66 402.906 439.649 401.972C437.212 404.956 434.645 408.07 432.7 410.458C435.293 412.196 438.663 414.428 441.386 416.219C443.304 413.52 445.56 410.302 447.738 407.188C446.856 406.851 445.016 406.409 443.512 405.449ZM442.553 423.251C441.178 425.639 439.467 428.597 437.808 431.478C439.96 432.957 442.578 434.773 445.145 436.538C446.727 434.125 448.386 431.582 449.942 429.246C447.608 427.352 444.99 425.224 442.553 423.251ZM446.597 445.024C445.016 447.437 443.227 450.11 441.49 452.731C443.849 454.288 446.364 455.949 448.905 457.61C450.46 455.378 452.249 452.835 453.909 450.474C451.472 448.657 448.879 446.737 446.597 445.024ZM460.416 397.586C458.602 400.285 456.32 403.685 454.375 406.591C456.838 408.096 460.053 410.068 463.061 411.911C464.824 409.472 467.054 406.409 468.921 403.84C466.276 401.894 463.061 399.506 460.416 397.586ZM477.995 369.092C477.036 374.308 475.739 379.317 469.543 381.185C474.78 381.497 478.721 383.754 480.536 387.569C482.792 384.377 485.151 380.978 487.511 377.63C483.129 377.163 479.499 374.308 477.995 369.092ZM482.066 393.771C480.432 396.34 478.332 399.636 476.388 402.647C478.773 404.126 481.781 405.994 484.581 407.733C486.499 405.164 488.573 402.361 490.337 400C487.692 398.001 484.581 395.666 482.066 393.771ZM499.567 365.096C498.996 371.22 496.844 375.139 492.903 376.722C496.17 378.798 499.696 381.03 502.574 382.872C504.467 380.251 506.8 377.007 509.056 373.867C505.271 373.218 501.537 370.935 499.567 365.096ZM503.741 390.138C502.133 392.681 500.163 395.796 498.374 398.598C500.785 400.181 503.611 402.024 506.334 403.814C508.045 401.427 510.093 398.624 511.908 396.107C509.341 394.238 506.308 392.007 503.741 390.138ZM521.034 363.461C520.775 367.431 518.39 371.22 514.708 372.855C517.897 374.853 521.423 377.085 524.249 378.876C526.142 376.255 528.424 373.063 530.239 370.52C527.49 368.444 524.146 365.848 521.034 363.461ZM525.416 386.375C523.861 388.841 521.942 391.877 520.153 394.706C522.564 396.315 525.338 398.183 527.879 399.87C529.746 397.353 531.82 394.576 533.531 392.266C530.965 390.424 528.087 388.296 525.416 386.375ZM542.787 357.181C542.528 363.383 540.221 367.016 536.565 368.911C539.78 371.039 543.15 373.244 545.847 375.009C547.791 372.31 550.125 369.118 552.329 366.082C548.414 365.407 544.81 363.098 542.787 357.181ZM547.091 382.535C545.614 384.948 543.747 387.932 541.906 390.891C544.136 392.37 546.91 394.213 549.606 395.977C551.369 393.564 553.418 390.787 555.155 388.426C552.51 386.479 549.71 384.429 547.091 382.535ZM564.566 353.859C564.048 359.465 562.026 363.357 558.136 365.044C561.429 367.146 564.722 369.248 567.652 371.116C569.518 368.573 571.93 365.303 574.211 362.189C570.167 361.696 566.641 359.283 564.566 353.859ZM568.793 378.564C567.263 381.03 565.422 384.04 563.555 387.05C565.629 388.348 568.274 390.009 570.659 391.514C572.552 389.152 574.574 386.635 576.389 384.377C573.978 382.535 571.256 380.459 568.793 378.564ZM572.63 401.764C570.996 404.022 569.389 406.28 567.807 408.459C569.933 409.757 572.215 411.132 574.522 412.534C576.026 410.587 577.608 408.511 579.319 406.28C577.193 404.826 574.885 403.269 572.63 401.764ZM586.345 353.47C584.427 355.961 582.067 359.075 580.071 361.696C582.508 363.072 585.801 364.888 588.653 366.497C590.597 364.136 592.957 361.281 595.031 358.764C592.49 357.207 589.275 355.235 586.345 353.47ZM592.179 388.348C594.046 385.805 596.094 383.028 597.987 380.459C595.653 378.954 592.775 377.111 590.338 375.528C588.601 377.941 586.604 380.666 584.79 383.184C587.175 384.844 589.82 386.713 592.179 388.348ZM588.108 489.711C587.175 491.009 586.293 492.306 585.205 493.837C586.708 494.849 587.875 495.602 589.275 496.536C590.26 495.239 591.194 493.967 592.205 492.618C590.857 491.631 589.612 490.775 588.108 489.711ZM592.205 512.132C591.401 513.17 590.675 514.131 589.664 515.428C590.96 516.31 591.894 516.933 593.008 517.66C593.864 516.492 594.616 515.48 595.42 514.39C594.305 513.612 593.371 512.963 592.205 512.132Z" fill="#E6F9FB"/>
    <path d="M434.671 377.137C438.145 383.832 442.786 386.349 448.438 384.585C452.923 383.183 455.957 378.616 455.594 373.841C455.205 368.677 451.29 364.706 446.156 364.239C440.452 363.72 436.693 366.886 434.515 373.893C432.234 372.18 430.107 369.533 427.515 368.885C424.818 368.21 421.292 368.755 418.751 370C414.447 372.102 412.969 377.604 414.655 382.093C416.392 386.739 421.033 389.36 426.115 388.607C431.3 387.854 434.308 383.832 434.671 377.137Z" fill="#E6F9FB"/>
    <path d="M538.302 337.458C538.302 331.697 533.817 327.182 528.061 327.13C522.149 327.078 517.534 331.749 517.638 337.666C517.742 343.427 522.305 347.864 528.087 347.813C533.817 347.735 538.302 343.219 538.302 337.458Z" fill="#E6F9FB"/>
    <path d="M494.874 345.114C494.848 339.327 490.362 334.915 484.555 334.967C478.773 334.993 474.365 339.482 474.417 345.295C474.443 351.082 478.929 355.494 484.736 355.442C490.518 355.39 494.926 350.927 494.874 345.114Z" fill="#E6F9FB"/>
    <path d="M506.204 331.023C500.448 331.075 496.015 335.564 496.015 341.325C496.015 347.242 500.682 351.757 506.619 351.602C512.349 351.472 516.705 346.879 516.601 341.092C516.497 335.382 511.96 330.971 506.204 331.023Z" fill="#E6F9FB"/>
    <path d="M463.139 359.231C468.921 359.153 473.276 354.56 473.121 348.721C472.965 343.116 468.48 338.834 462.802 338.912C457.02 338.989 452.664 343.583 452.82 349.422C452.975 355.027 457.461 359.309 463.139 359.231Z" fill="#E6F9FB"/>
    <path d="M452.197 352.977C452.223 347.372 447.842 342.908 442.241 342.83C436.641 342.752 432.13 347.112 432 352.692C431.896 358.453 436.382 363.046 442.138 363.02C447.738 363.02 452.146 358.608 452.197 352.977Z" fill="#E6F9FB"/>
    <path d="M534.154 316.49C534.102 310.963 529.565 306.473 524.042 306.499C518.519 306.551 514.034 311.092 514.06 316.646C514.112 322.173 518.597 326.611 524.198 326.611C529.642 326.611 534.18 321.992 534.154 316.49Z" fill="#E6F9FB"/>
    <path d="M373.249 411.132C373.301 405.553 368.867 401.011 363.293 400.959C357.718 400.908 353.181 405.345 353.129 410.899C353.077 416.478 357.511 421.019 363.06 421.071C368.66 421.149 373.171 416.712 373.249 411.132Z" fill="#E6F9FB"/>
    <path d="M402.469 392.499C408.251 392.577 412.762 388.114 412.762 382.327C412.736 376.696 408.38 372.284 402.78 372.232C396.998 372.154 392.487 376.618 392.487 382.405C392.513 388.01 396.895 392.448 402.469 392.499Z" fill="#E6F9FB"/>
    <path d="M430.445 356.896C430.496 351.42 425.881 346.801 420.411 346.801C414.914 346.827 410.351 351.472 410.429 356.947C410.506 362.293 414.94 366.731 420.281 366.835C425.752 366.938 430.393 362.371 430.445 356.896Z" fill="#E6F9FB"/>
    <path d="M502.444 309.639C496.974 309.639 492.385 314.258 492.437 319.734C492.488 325.235 497.155 329.777 502.626 329.673C507.967 329.569 512.401 325.106 512.453 319.76C512.504 314.284 507.941 309.639 502.444 309.639Z" fill="#E6F9FB"/>
    <path d="M390.983 386.116C390.905 380.614 386.212 376.099 380.742 376.229C375.245 376.358 370.76 381.107 370.967 386.583C371.149 391.929 375.686 396.289 381.001 396.263C386.498 396.237 391.061 391.591 390.983 386.116Z" fill="#E6F9FB"/>
    <path d="M469.024 327.519C469.102 322.251 464.643 317.632 459.353 317.476C453.96 317.321 449.164 322.044 449.216 327.467C449.268 332.761 453.805 337.303 459.094 337.329C464.357 337.329 468.947 332.813 469.024 327.519Z" fill="#E6F9FB"/>
    <path d="M480.64 333.514C486.11 333.618 490.803 328.973 490.777 323.471C490.751 318.125 486.292 313.61 480.951 313.532C475.48 313.428 470.787 318.073 470.813 323.575C470.813 328.895 475.299 333.436 480.64 333.514Z" fill="#E6F9FB"/>
    <path d="M398.71 350.797C393.394 350.849 388.857 355.468 388.909 360.762C388.961 366.082 393.576 370.623 398.865 370.571C404.18 370.519 408.717 365.9 408.666 360.606C408.614 355.312 403.999 350.745 398.71 350.797Z" fill="#E6F9FB"/>
    <path d="M351.392 414.973C351.444 409.679 346.907 405.06 341.592 405.008C336.302 404.956 331.687 409.497 331.635 414.817C331.584 420.111 336.121 424.73 341.436 424.782C346.725 424.834 351.34 420.293 351.392 414.973Z" fill="#E6F9FB"/>
    <path d="M359.248 399.921C364.563 399.973 369.152 395.406 369.126 390.086C369.101 384.74 364.511 380.199 359.196 380.303C354.011 380.381 349.629 384.74 349.499 389.956C349.396 395.25 353.907 399.895 359.248 399.921Z" fill="#E6F9FB"/>
    <path d="M447.997 331.308C448.023 325.988 443.512 321.447 438.171 321.499C432.83 321.525 428.37 326.092 428.448 331.412C428.552 336.628 432.882 340.936 438.067 341.04C443.408 341.117 447.971 336.654 447.997 331.308Z" fill="#E6F9FB"/>
    <path d="M376.982 354.949C371.641 355.001 367.493 359.231 367.493 364.577C367.493 370.052 371.927 374.334 377.397 374.153C382.712 373.997 386.809 369.663 386.679 364.343C386.601 359.023 382.324 354.897 376.982 354.949Z" fill="#E6F9FB"/>
    <path d="M329.328 418.891C329.38 413.468 325.283 409.29 319.865 409.29C314.446 409.29 310.323 413.416 310.375 418.84C310.401 424.108 314.394 428.156 319.631 428.26C325.076 428.337 329.276 424.289 329.328 418.891Z" fill="#E6F9FB"/>
    <path d="M520.231 304.423C525.624 304.423 529.798 300.271 529.798 294.873C529.798 289.475 525.649 285.297 520.257 285.297C514.864 285.297 510.689 289.449 510.689 294.847C510.663 300.245 514.838 304.423 520.231 304.423Z" fill="#E6F9FB"/>
    <path d="M508.071 298.818C508.123 293.42 504.026 289.268 498.633 289.216C493.24 289.164 489.092 293.265 489.04 298.662C488.988 304.06 493.085 308.212 498.478 308.264C503.897 308.29 508.045 304.216 508.071 298.818Z" fill="#E6F9FB"/>
    <path d="M416.651 325.573C411.258 325.521 407.058 329.673 407.006 335.045C406.954 340.443 411.103 344.647 416.47 344.699C421.863 344.751 426.063 340.599 426.115 335.227C426.166 329.829 422.018 325.625 416.651 325.573Z" fill="#E6F9FB"/>
    <path d="M337.78 402.646C343.147 402.595 347.166 398.417 347.062 392.993C346.959 387.647 342.732 383.651 337.314 383.806C332.128 383.936 328.213 388.01 328.213 393.278C328.265 398.624 332.388 402.698 337.78 402.646Z" fill="#E6F9FB"/>
    <path d="M355.515 377.786C360.726 377.76 364.771 373.685 364.797 368.469C364.797 363.097 360.57 358.971 355.204 359.101C350.018 359.231 346.051 363.383 346.129 368.625C346.181 373.789 350.303 377.811 355.515 377.786Z" fill="#E6F9FB"/>
    <path d="M465.394 305.799C465.446 300.427 461.298 296.301 455.931 296.352C450.72 296.404 446.701 300.427 446.675 305.643C446.623 311.015 450.771 315.141 456.138 315.089C461.324 315.037 465.343 311.015 465.394 305.799Z" fill="#E6F9FB"/>
    <path d="M404.258 339.093C404.31 333.722 400.161 329.595 394.795 329.647C389.583 329.699 385.564 333.722 385.538 338.938C385.487 344.31 389.635 348.436 395.002 348.384C400.213 348.332 404.232 344.31 404.258 339.093Z" fill="#E6F9FB"/>
    <path d="M486.344 301.517C486.188 296.145 481.936 292.201 476.491 292.382C471.15 292.564 467.235 296.872 467.469 302.347C467.702 307.537 471.85 311.378 477.114 311.274C482.506 311.196 486.499 306.967 486.344 301.517Z" fill="#E6F9FB"/>
    <path d="M443.667 309.665C443.719 304.475 439.623 300.297 434.463 300.271C429.278 300.219 425.104 304.319 425.078 309.483C425.026 314.673 429.122 318.851 434.282 318.877C439.441 318.929 443.616 314.829 443.667 309.665Z" fill="#E6F9FB"/>
    <path d="M382.479 342.674C382.375 337.614 377.994 333.436 372.938 333.618C367.882 333.773 363.76 338.211 363.993 343.271C364.2 348.202 368.426 352.198 373.353 352.146C378.408 352.069 382.609 347.735 382.479 342.674Z" fill="#E6F9FB"/>
    <path d="M298.06 413.39C293.004 413.468 288.83 417.828 288.959 422.888C289.089 427.948 293.497 432.101 298.552 431.893C303.479 431.711 307.497 427.507 307.471 422.577C307.42 417.516 303.116 413.286 298.06 413.39Z" fill="#E6F9FB"/>
    <path d="M516.497 263.966C511.467 263.888 507.137 268.222 507.163 273.256C507.215 278.161 511.364 282.313 516.264 282.391C521.294 282.469 525.623 278.135 525.598 273.101C525.52 268.222 521.372 264.044 516.497 263.966Z" fill="#E6F9FB"/>
    <path d="M325.232 396.885C325.128 391.799 320.668 387.621 315.613 387.829C310.686 388.062 306.642 392.344 306.771 397.249C306.875 402.335 311.335 406.513 316.39 406.306C321.291 406.098 325.335 401.816 325.232 396.885Z" fill="#E6F9FB"/>
    <path d="M421.914 313.532C421.966 308.497 417.61 304.164 412.581 304.241C407.68 304.319 403.532 308.497 403.506 313.376C403.454 318.411 407.81 322.744 412.84 322.666C417.714 322.589 421.863 318.411 421.914 313.532Z" fill="#E6F9FB"/>
    <path d="M494.641 286.258C499.541 286.284 503.793 282.132 503.871 277.227C503.974 272.192 499.593 267.807 494.537 267.885C489.636 267.962 485.462 272.218 485.488 277.123C485.54 282.002 489.74 286.206 494.641 286.258Z" fill="#E6F9FB"/>
    <path d="M333.84 363.123C328.939 363.097 324.713 367.25 324.609 372.154C324.506 377.189 328.887 381.574 333.943 381.497C338.843 381.419 343.018 377.163 342.992 372.258C342.94 367.353 338.74 363.149 333.84 363.123Z" fill="#E6F9FB"/>
    <path d="M461.142 284.986C461.272 280.029 457.098 275.799 452.146 275.799C447.323 275.799 443.278 279.77 443.149 284.623C443.019 289.579 447.193 293.809 452.146 293.809C456.968 293.809 461.039 289.839 461.142 284.986Z" fill="#E6F9FB"/>
    <path d="M482.947 280.964C482.973 276.059 478.773 271.829 473.873 271.803C468.972 271.777 464.746 275.981 464.72 280.886C464.694 285.79 468.895 290.02 473.795 290.046C478.669 290.098 482.921 285.894 482.947 280.964Z" fill="#E6F9FB"/>
    <path d="M360.57 346.749C360.57 341.766 356.318 337.614 351.392 337.744C346.57 337.873 342.577 341.922 342.577 346.749C342.577 351.731 346.829 355.883 351.755 355.753C356.604 355.65 360.57 351.575 360.57 346.749Z" fill="#E6F9FB"/>
    <path d="M390.854 326.326C395.806 326.455 400.032 322.277 400.032 317.295C400.032 312.468 396.039 308.42 391.217 308.29C386.264 308.16 382.038 312.338 382.038 317.321C382.038 322.148 386.031 326.222 390.854 326.326Z" fill="#E6F9FB"/>
    <path d="M430.574 279.121C425.622 279.095 421.759 282.858 421.733 287.815C421.707 292.771 425.466 296.638 430.419 296.664C435.371 296.69 439.234 292.927 439.26 287.97C439.286 283.014 435.526 279.173 430.574 279.121Z" fill="#E6F9FB"/>
    <path d="M303.919 400.985C303.919 396.029 300.082 392.162 295.13 392.136C290.178 392.136 286.315 395.977 286.289 400.934C286.289 405.89 290.126 409.757 295.078 409.783C300.056 409.783 303.919 405.942 303.919 400.985Z" fill="#E6F9FB"/>
    <path d="M320.902 375.995C320.824 371.039 316.909 367.302 311.957 367.405C307.005 367.483 303.271 371.402 303.375 376.358C303.453 381.315 307.368 385.052 312.32 384.948C317.246 384.87 320.98 380.952 320.902 375.995Z" fill="#E6F9FB"/>
    <path d="M369.489 312.494C364.511 312.442 360.7 316.205 360.7 321.187C360.7 326.17 364.485 329.933 369.464 329.907C374.286 329.881 377.968 326.222 378.071 321.421C378.149 316.412 374.442 312.546 369.489 312.494Z" fill="#E6F9FB"/>
    <path d="M321.317 351.186C321.576 355.935 325.439 359.412 330.313 359.257C335.214 359.075 338.817 355.079 338.558 350.07C338.299 345.165 334.228 341.662 329.198 342.025C324.454 342.363 321.057 346.333 321.317 351.186Z" fill="#E6F9FB"/>
    <path d="M499.385 255.246C499.333 250.471 495.496 246.761 490.7 246.812C485.929 246.864 482.221 250.705 482.273 255.506C482.325 260.281 486.162 263.992 490.959 263.94C495.729 263.888 499.463 260.047 499.385 255.246Z" fill="#E6F9FB"/>
    <path d="M512.478 242.92C507.682 242.92 503.948 246.631 503.922 251.432C503.871 256.363 507.76 260.203 512.712 260.1C517.457 259.996 521.138 256.207 521.086 251.406C521.034 246.605 517.275 242.92 512.478 242.92Z" fill="#E6F9FB"/>
    <path d="M408.795 300.375C413.618 300.401 417.377 296.716 417.429 291.915C417.481 286.906 413.67 283.092 408.666 283.17C403.869 283.247 400.187 287.01 400.213 291.837C400.265 296.638 403.973 300.349 408.795 300.375Z" fill="#E6F9FB"/>
    <path d="M281.933 404.749C281.881 400.052 277.966 396.211 273.273 396.315C268.581 396.418 264.795 400.389 264.951 405.086C265.106 409.627 268.866 413.312 273.429 413.312C278.122 413.338 281.985 409.446 281.933 404.749Z" fill="#E6F9FB"/>
    <path d="M347.659 333.566C352.352 333.592 356.241 329.725 356.189 325.002C356.163 320.305 352.248 316.464 347.555 316.542C343.018 316.62 339.284 320.357 339.206 324.898C339.129 329.621 342.966 333.54 347.659 333.566Z" fill="#E6F9FB"/>
    <path d="M461.427 259.554C461.583 264.277 465.602 267.962 470.346 267.755C475.065 267.547 478.721 263.473 478.436 258.75C478.177 254.183 474.313 250.627 469.724 250.731C465.005 250.835 461.272 254.805 461.427 259.554Z" fill="#E6F9FB"/>
    <path d="M308.975 362.916C313.461 362.942 317.35 359.153 317.453 354.638C317.557 350.018 313.512 345.97 308.897 346.048C304.386 346.126 300.575 350.018 300.601 354.534C300.627 359.049 304.464 362.89 308.975 362.916Z" fill="#E6F9FB"/>
    <path d="M448.464 271.57C453.001 271.466 456.787 267.573 456.735 263.032C456.683 258.335 452.586 254.442 447.919 254.65C443.382 254.857 439.675 258.854 439.83 263.369C439.986 267.937 443.952 271.673 448.464 271.57Z" fill="#E6F9FB"/>
    <path d="M387.068 287.166C382.375 287.218 378.512 291.24 378.694 295.937C378.849 300.479 382.712 304.19 387.25 304.138C391.942 304.086 395.806 300.063 395.624 295.366C395.495 290.825 391.631 287.114 387.068 287.166Z" fill="#E6F9FB"/>
    <path d="M299.693 379.135C299.615 374.438 295.571 370.597 290.904 370.779C286.367 370.961 282.685 374.853 282.763 379.395C282.84 384.092 286.885 387.932 291.552 387.751C296.115 387.569 299.771 383.676 299.693 379.135Z" fill="#E6F9FB"/>
    <path d="M426.633 275.333C431.119 275.333 435.034 271.362 434.956 266.899C434.904 262.409 430.885 258.542 426.426 258.646C422.07 258.776 418.362 262.539 418.285 266.873C418.233 271.362 422.148 275.333 426.633 275.333Z" fill="#E6F9FB"/>
    <path d="M365.522 291.214C361.011 291.214 357.122 295.184 357.226 299.674C357.33 304.06 361.115 307.771 365.497 307.771C370.008 307.771 373.897 303.8 373.793 299.311C373.664 294.951 369.878 291.24 365.522 291.214Z" fill="#E6F9FB"/>
    <path d="M334.28 328.947C334.28 324.431 330.339 320.591 325.854 320.72C321.472 320.85 317.816 324.587 317.816 328.973C317.816 333.488 321.757 337.329 326.243 337.199C330.624 337.069 334.28 333.306 334.28 328.947Z" fill="#E6F9FB"/>
    <path d="M413.073 270.973C413.125 266.509 409.521 262.824 405.062 262.747C400.602 262.695 396.921 266.302 396.843 270.765C396.791 275.229 400.395 278.914 404.854 278.992C409.34 279.044 413.021 275.436 413.073 270.973Z" fill="#E6F9FB"/>
    <path d="M295.311 358.478C295.363 354.015 292.071 350.563 287.663 350.433C283.048 350.278 279.47 353.703 279.418 358.297C279.366 362.916 282.84 366.393 287.455 366.341C291.889 366.263 295.26 362.89 295.311 358.478Z" fill="#E6F9FB"/>
    <path d="M269.592 391.15C274.155 391.124 277.629 387.595 277.551 383.028C277.499 378.486 273.896 375.035 269.332 375.165C264.951 375.269 261.606 378.694 261.554 383.08C261.554 387.647 265.028 391.15 269.592 391.15Z" fill="#E6F9FB"/>
    <path d="M343.821 295.522C339.388 295.548 336.017 298.896 335.991 303.333C335.966 307.952 339.44 311.378 344.081 311.274C348.514 311.17 351.781 307.745 351.729 303.281C351.651 298.818 348.281 295.496 343.821 295.522Z" fill="#E6F9FB"/>
    <path d="M516.575 229.996C516.653 225.377 513.204 221.848 508.615 221.874C504.182 221.874 500.759 225.221 500.681 229.659C500.604 234.278 504.052 237.808 508.641 237.782C513.101 237.756 516.497 234.434 516.575 229.996Z" fill="#E6F9FB"/>
    <path d="M487.666 225.792C483.077 225.818 479.706 229.348 479.836 233.967C479.966 238.379 483.362 241.648 487.796 241.622C492.359 241.596 495.755 238.067 495.626 233.448C495.522 229.036 492.126 225.741 487.666 225.792Z" fill="#E6F9FB"/>
    <path d="M383.335 266.146C378.901 266.146 375.505 269.494 375.505 273.931C375.505 278.369 378.849 281.768 383.283 281.768C387.716 281.794 391.113 278.421 391.113 273.983C391.113 269.546 387.742 266.172 383.335 266.146Z" fill="#E6F9FB"/>
    <path d="M473.924 237.704C473.976 233.267 470.709 229.841 466.302 229.737C461.713 229.634 458.213 233.059 458.238 237.652C458.264 242.09 461.609 245.412 466.043 245.438C470.476 245.438 473.847 242.116 473.924 237.704Z" fill="#E6F9FB"/>
    <path d="M259.765 408.511C259.661 403.97 256.058 400.544 251.494 400.7C246.957 400.83 243.587 404.489 243.794 409.082C243.976 413.468 247.45 416.738 251.857 416.712C256.395 416.66 259.869 413.079 259.765 408.511Z" fill="#E6F9FB"/>
    <path d="M305.034 340.624C309.468 340.676 312.916 337.355 312.968 332.943C313.02 328.505 309.701 325.054 305.294 325.002C300.86 324.95 297.412 328.272 297.36 332.683C297.282 337.121 300.601 340.572 305.034 340.624Z" fill="#E6F9FB"/>
    <path d="M430.445 245.126C430.341 241 426.789 237.548 422.666 237.6C418.388 237.652 414.836 241.415 415.07 245.671C415.277 249.797 418.933 253.145 423.029 252.989C427.178 252.859 430.548 249.252 430.445 245.126Z" fill="#E6F9FB"/>
    <path d="M444.523 249.2C448.879 249.148 452.275 245.619 452.172 241.233C452.068 236.873 448.49 233.526 444.108 233.681C439.908 233.837 436.641 237.237 436.667 241.467C436.667 245.826 440.141 249.278 444.523 249.2Z" fill="#E6F9FB"/>
    <path d="M247.864 379.369C243.768 379.395 240.242 382.976 240.268 387.076C240.294 391.176 243.872 394.705 247.968 394.68C252.065 394.654 255.591 391.072 255.565 386.972C255.513 382.872 251.935 379.343 247.864 379.369Z" fill="#E6F9FB"/>
    <path d="M361.452 285.505C365.522 285.609 369.126 282.183 369.308 278.109C369.463 273.905 365.859 270.142 361.607 270.168C357.537 270.168 354.011 273.672 353.959 277.772C353.907 281.846 357.355 285.401 361.452 285.505Z" fill="#E6F9FB"/>
    <path d="M322.95 314.933C327.021 314.933 330.573 311.456 330.624 307.356C330.676 303.126 326.995 299.467 322.768 299.57C318.672 299.674 315.224 303.255 315.275 307.33C315.327 311.43 318.853 314.933 322.95 314.933Z" fill="#E6F9FB"/>
    <path d="M265.988 369.845C270.084 369.663 273.533 365.874 273.299 361.826C273.04 357.7 269.255 354.326 265.21 354.612C261.243 354.923 257.976 358.478 258.08 362.397C258.209 366.549 261.943 370.052 265.988 369.845Z" fill="#E6F9FB"/>
    <path d="M283.463 344.154C287.456 344.18 290.878 340.832 290.982 336.81C291.059 332.683 287.481 329.102 283.359 329.18C279.366 329.284 275.996 332.709 276.047 336.706C276.047 340.728 279.444 344.128 283.463 344.154Z" fill="#E6F9FB"/>
    <path d="M230.078 420.189C234.149 420.215 237.753 416.582 237.701 412.508C237.649 408.408 233.993 404.852 229.923 404.956C225.982 405.06 222.559 408.512 222.482 412.456C222.43 416.53 226.008 420.163 230.078 420.189Z" fill="#E6F9FB"/>
    <path d="M408.614 249.304C408.691 245.23 405.088 241.597 401.017 241.674C397.076 241.726 393.654 245.152 393.576 249.096C393.498 253.171 397.102 256.804 401.173 256.726C405.113 256.674 408.536 253.248 408.614 249.304Z" fill="#E6F9FB"/>
    <path d="M347.244 281.846C347.322 277.694 344.159 274.476 340.01 274.45C335.862 274.424 332.673 277.616 332.699 281.768C332.725 285.764 335.732 288.853 339.725 288.982C343.899 289.086 347.166 285.972 347.244 281.846Z" fill="#E6F9FB"/>
    <path d="M301.197 318.359C305.242 318.411 308.353 315.426 308.482 311.43C308.638 307.252 305.527 303.982 301.352 303.93C297.178 303.878 293.989 307.07 294.067 311.248C294.145 315.271 297.178 318.307 301.197 318.359Z" fill="#E6F9FB"/>
    <path d="M462.231 208.769C458.213 208.769 455.153 211.753 455.101 215.775C455.05 219.953 458.213 223.094 462.387 223.016C466.38 222.938 469.361 219.85 469.31 215.801C469.284 211.779 466.25 208.769 462.231 208.769Z" fill="#E6F9FB"/>
    <path d="M491.088 212.039C491.114 207.861 487.899 204.721 483.699 204.799C479.68 204.876 476.673 207.965 476.647 211.987C476.621 216.165 479.836 219.305 484.01 219.227C488.055 219.149 491.062 216.061 491.088 212.039Z" fill="#E6F9FB"/>
    <path d="M504.752 200.88C500.604 200.88 497.441 204.098 497.493 208.25C497.544 212.402 500.811 215.516 504.96 215.413C508.952 215.309 511.96 212.221 512.012 208.224C512.064 204.072 508.9 200.854 504.752 200.88Z" fill="#E6F9FB"/>
    <path d="M386.601 252.989C386.576 248.837 383.361 245.748 379.186 245.878C375.193 246.008 372.238 249.096 372.29 253.118C372.316 257.271 375.531 260.359 379.705 260.229C383.672 260.099 386.627 257.011 386.601 252.989Z" fill="#E6F9FB"/>
    <path d="M215.43 416.556C215.481 412.793 212.5 409.627 208.766 409.472C204.851 409.316 201.558 412.43 201.506 416.323C201.455 420.241 204.644 423.459 208.559 423.407C212.292 423.381 215.352 420.319 215.43 416.556Z" fill="#E6F9FB"/>
    <path d="M251.028 365.329C251.028 361.385 247.865 358.296 243.95 358.348C240.035 358.4 236.949 361.592 237.053 365.537C237.157 369.3 240.19 372.284 243.95 372.336C247.891 372.388 251.028 369.274 251.028 365.329Z" fill="#E6F9FB"/>
    <path d="M326.061 285.635C326.087 281.872 323.106 278.732 319.346 278.602C315.431 278.472 312.164 281.612 312.112 285.505C312.086 289.424 315.301 292.616 319.216 292.538C322.976 292.486 326.009 289.398 326.061 285.635Z" fill="#E6F9FB"/>
    <path d="M418.933 230.568C422.692 230.542 425.804 227.428 425.829 223.665C425.855 219.772 422.537 216.528 418.648 216.658C414.888 216.788 411.855 219.98 411.932 223.743C412.01 227.506 415.173 230.594 418.933 230.568Z" fill="#E6F9FB"/>
    <path d="M440.712 226.779C444.679 226.701 447.686 223.483 447.557 219.487C447.427 215.542 444.16 212.558 440.167 212.739C436.382 212.921 433.478 216.009 433.53 219.85C433.582 223.82 436.745 226.857 440.712 226.779Z" fill="#E6F9FB"/>
    <path d="M233.242 390.969C233.293 387.024 230.182 383.884 226.241 383.884C222.3 383.884 219.215 387.05 219.267 390.995C219.319 394.757 222.3 397.794 226.086 397.871C230.001 397.975 233.19 394.913 233.242 390.969Z" fill="#E6F9FB"/>
    <path d="M261.787 333.592C257.872 333.618 254.735 336.887 254.865 340.806C254.994 344.569 258.106 347.579 261.865 347.553C265.78 347.527 268.917 344.257 268.788 340.339C268.684 336.576 265.547 333.566 261.787 333.592Z" fill="#E6F9FB"/>
    <path d="M364.719 256.622C364.563 252.885 361.296 249.849 357.563 249.978C353.674 250.108 350.563 253.534 350.848 257.426C351.133 261.163 354.452 264.096 358.185 263.888C361.919 263.655 364.874 260.359 364.719 256.622Z" fill="#E6F9FB"/>
    <path d="M279.755 308.134C276.074 308.056 272.807 311.274 272.781 314.959C272.755 318.67 276.022 321.888 279.703 321.836C283.255 321.784 286.341 318.748 286.47 315.192C286.626 311.533 283.463 308.212 279.755 308.134Z" fill="#E6F9FB"/>
    <path d="M403.999 227.427C403.947 223.768 400.602 220.55 396.972 220.732C393.446 220.888 390.413 224.08 390.465 227.583C390.516 231.242 393.861 234.46 397.491 234.278C401.017 234.123 404.025 230.931 403.999 227.427Z" fill="#E6F9FB"/>
    <path d="M343.458 259.943C343.432 256.284 340.373 253.352 336.717 253.43C333.062 253.534 330.158 256.622 330.313 260.255C330.443 263.758 333.347 266.561 336.847 266.561C340.503 266.613 343.484 263.628 343.458 259.943Z" fill="#E6F9FB"/>
    <path d="M290.93 289.32C290.852 292.875 293.549 295.781 297.101 295.937C300.808 296.119 303.842 293.29 303.894 289.579C303.971 285.868 301.067 282.936 297.334 282.962C293.782 282.988 291.008 285.764 290.93 289.32Z" fill="#E6F9FB"/>
    <path d="M375.556 237.756C379.16 237.756 381.883 235.057 381.934 231.476C381.986 227.713 379.134 224.91 375.375 225.014C371.797 225.118 369.152 227.895 369.204 231.502C369.23 235.057 371.978 237.756 375.556 237.756Z" fill="#E6F9FB"/>
    <path d="M246.49 344.309C246.439 340.702 243.664 338.029 240.035 338.107C236.431 338.159 233.76 340.935 233.838 344.569C233.89 348.176 236.664 350.849 240.294 350.771C243.898 350.693 246.568 347.942 246.49 344.309Z" fill="#E6F9FB"/>
    <path d="M204.41 401.089C208.04 401.167 210.814 398.52 210.892 394.913C210.97 391.28 208.325 388.503 204.722 388.425C201.092 388.347 198.317 390.994 198.24 394.601C198.188 398.235 200.807 401.011 204.41 401.089Z" fill="#E6F9FB"/>
    <path d="M486.37 190.24C486.318 186.633 483.595 183.96 480.018 183.934C476.284 183.934 473.484 186.814 473.639 190.577C473.769 194.159 476.569 196.78 480.199 196.676C483.777 196.624 486.422 193.873 486.37 190.24Z" fill="#E6F9FB"/>
    <path d="M508.097 186.295C508.019 182.584 505.037 179.86 501.304 180.041C497.778 180.223 495.159 183.052 495.263 186.633C495.341 190.344 498.322 193.069 502.056 192.887C505.582 192.705 508.174 189.877 508.097 186.295Z" fill="#E6F9FB"/>
    <path d="M222.352 362.838C218.748 362.838 216.052 365.537 216 369.144C215.974 372.907 218.826 375.709 222.585 375.606C226.163 375.502 228.808 372.725 228.73 369.118C228.678 365.485 225.956 362.812 222.352 362.838Z" fill="#E6F9FB"/>
    <path d="M522.746 176.175C519.012 176.097 516.134 178.9 516.16 182.611C516.16 186.192 518.857 188.943 522.409 189.02C526.142 189.098 529.02 186.296 528.994 182.585C528.968 179.003 526.298 176.253 522.746 176.175Z" fill="#E6F9FB"/>
    <path d="M347.762 235.55C347.944 238.846 350.926 241.571 354.192 241.389C357.485 241.207 360.208 238.223 360.026 234.953C359.845 231.657 356.863 228.933 353.596 229.114C350.303 229.27 347.581 232.254 347.762 235.55Z" fill="#E6F9FB"/>
    <path d="M442.864 198.233C442.941 194.834 440.297 192.005 436.926 191.875C433.374 191.745 430.47 194.574 430.496 198.129C430.522 201.529 433.245 204.254 436.641 204.28C440.038 204.306 442.786 201.633 442.864 198.233Z" fill="#E6F9FB"/>
    <path d="M257.769 325.132C261.347 325.236 264.173 322.537 264.199 318.956C264.251 315.348 261.528 312.598 257.95 312.598C254.502 312.598 251.831 315.167 251.702 318.566C251.572 322.173 254.217 325.028 257.769 325.132Z" fill="#E6F9FB"/>
    <path d="M458.498 187.904C454.868 187.827 452.094 190.5 452.042 194.133C452.016 197.766 454.738 200.516 458.368 200.491C461.842 200.465 464.513 197.895 464.617 194.444C464.746 190.811 462.102 187.982 458.498 187.904Z" fill="#E6F9FB"/>
    <path d="M315.353 270.09C318.75 270.012 321.42 267.236 321.394 263.836C321.369 260.281 318.413 257.504 314.861 257.686C311.464 257.867 308.871 260.722 309.001 264.121C309.157 267.547 311.957 270.168 315.353 270.09Z" fill="#E6F9FB"/>
    <path d="M269.644 293.498C269.747 296.793 272.781 299.596 276.022 299.414C279.314 299.233 282.063 296.171 281.829 292.927C281.622 289.787 278.77 287.14 275.633 287.192C272.392 287.27 269.54 290.228 269.644 293.498Z" fill="#E6F9FB"/>
    <path d="M414.966 195.871C411.699 195.897 408.795 198.934 408.951 202.178C409.08 205.318 411.932 208.042 415.044 208.016C418.311 207.99 421.214 204.954 421.059 201.71C420.929 198.57 418.077 195.846 414.966 195.871Z" fill="#E6F9FB"/>
    <path d="M393.394 200.023C390.153 199.998 387.535 202.645 387.561 205.888C387.587 209.132 390.283 211.727 393.498 211.623C396.584 211.546 399.073 209.054 399.15 205.966C399.228 202.722 396.635 200.049 393.394 200.023Z" fill="#E6F9FB"/>
    <path d="M338.714 239.001C338.662 235.706 336.043 233.24 332.725 233.396C329.587 233.552 327.254 236.043 327.306 239.209C327.358 242.531 329.976 244.97 333.295 244.814C336.432 244.684 338.766 242.167 338.714 239.001Z" fill="#E6F9FB"/>
    <path d="M218.619 354.015C221.911 353.963 224.374 351.342 224.219 348.02C224.063 344.88 221.574 342.545 218.411 342.596C215.092 342.648 212.655 345.269 212.811 348.591C212.966 351.731 215.455 354.067 218.619 354.015Z" fill="#E6F9FB"/>
    <path d="M206.407 373.27C206.51 369.949 204.021 367.38 200.703 367.38C197.54 367.38 195.103 369.741 194.999 372.907C194.895 376.229 197.384 378.798 200.703 378.798C203.892 378.798 206.329 376.436 206.407 373.27Z" fill="#E6F9FB"/>
    <path d="M293.471 262.124C290.282 262.175 287.922 264.537 287.922 267.755C287.922 271.102 290.489 273.542 293.834 273.412C297.023 273.282 299.278 270.791 299.175 267.599C299.097 264.381 296.686 262.072 293.471 262.124Z" fill="#E6F9FB"/>
    <path d="M182.735 404.204C185.976 404.281 188.387 401.998 188.491 398.806C188.569 395.562 186.287 393.149 183.098 393.045C179.857 392.967 177.446 395.251 177.342 398.443C177.265 401.686 179.546 404.126 182.735 404.204Z" fill="#E6F9FB"/>
    <path d="M241.875 322.589C241.798 319.371 239.386 317.087 236.145 317.165C232.93 317.243 230.649 319.656 230.727 322.9C230.804 326.118 233.216 328.402 236.457 328.324C239.672 328.246 241.953 325.832 241.875 322.589Z" fill="#E6F9FB"/>
    <path d="M503.3 165.509C503.274 162.317 500.759 159.929 497.57 160.059C494.563 160.189 492.281 162.551 492.307 165.613C492.333 168.805 494.848 171.192 498.037 171.062C501.071 170.933 503.326 168.545 503.3 165.509Z" fill="#E6F9FB"/>
    <path d="M518.623 167.17C521.657 167.196 524.042 164.938 524.172 161.928C524.301 158.736 521.942 156.219 518.753 156.167C515.564 156.141 513.127 158.606 513.204 161.798C513.256 164.861 515.59 167.144 518.623 167.17Z" fill="#E6F9FB"/>
    <path d="M377.138 209.651C377.112 206.511 374.597 204.098 371.46 204.227C368.504 204.331 366.223 206.745 366.249 209.729C366.275 212.869 368.79 215.282 371.927 215.153C374.882 215.023 377.164 212.635 377.138 209.651Z" fill="#E6F9FB"/>
    <path d="M481.547 168.623C481.547 165.665 479.162 163.251 476.206 163.225C473.121 163.174 470.58 165.769 470.71 168.857C470.813 171.789 473.302 174.125 476.258 174.073C479.188 174.021 481.573 171.582 481.547 168.623Z" fill="#E6F9FB"/>
    <path d="M254.035 302.607C256.991 302.633 259.428 300.271 259.532 297.339C259.61 294.251 257.069 291.681 253.984 291.759C251.028 291.837 248.668 294.277 248.694 297.209C248.694 300.167 251.08 302.581 254.035 302.607Z" fill="#E6F9FB"/>
    <path d="M454.401 177.888C457.305 177.94 459.846 175.397 459.82 172.49C459.794 169.584 457.227 166.963 454.35 167.17C451.238 167.404 449.397 169.22 449.138 172.334C448.905 175.241 451.498 177.836 454.401 177.888Z" fill="#E6F9FB"/>
    <path d="M271.977 276.838C274.751 276.786 277.136 274.294 277.085 271.544C277.033 268.767 274.544 266.379 271.795 266.431C269.021 266.483 266.636 268.974 266.688 271.725C266.74 274.502 269.229 276.889 271.977 276.838Z" fill="#E6F9FB"/>
    <path d="M432.908 171.193C430.159 171.141 427.67 173.528 427.618 176.305C427.567 179.056 429.952 181.547 432.726 181.599C435.474 181.651 437.963 179.263 438.015 176.486C438.067 173.736 435.682 171.244 432.908 171.193Z" fill="#E6F9FB"/>
    <path d="M316.676 242.79C316.572 239.91 313.824 237.445 310.972 237.652C308.223 237.86 305.916 240.455 306.045 243.154C306.149 246.034 308.897 248.5 311.749 248.292C314.472 248.084 316.779 245.515 316.676 242.79Z" fill="#E6F9FB"/>
    <path d="M350.692 208.432C347.892 208.51 345.559 211.001 345.688 213.778C345.818 216.58 348.359 218.994 351.107 218.682C354.063 218.345 355.774 216.554 355.904 213.57C356.033 210.767 353.466 208.354 350.692 208.432Z" fill="#E6F9FB"/>
    <path d="M196.788 356.272C199.769 356.039 201.636 354.534 201.662 351.446C201.688 348.409 199.977 346.619 196.917 346.567C193.884 346.515 192.095 348.254 192.043 351.316C191.991 354.404 193.78 355.961 196.788 356.272Z" fill="#E6F9FB"/>
    <path d="M219.526 326.559C219.215 323.549 217.633 321.758 214.574 321.81C211.54 321.862 209.803 323.652 209.829 326.689C209.881 329.725 211.67 331.464 214.703 331.438C217.789 331.386 219.293 329.543 219.526 326.559Z" fill="#E6F9FB"/>
    <path d="M416.055 180.405C415.718 177.213 414.162 175.423 411.103 175.448C408.069 175.5 406.332 177.265 406.358 180.327C406.384 183.363 408.173 185.076 411.232 185.076C414.318 185.076 415.744 183.156 416.055 180.405Z" fill="#E6F9FB"/>
    <path d="M294.404 246.32C294.067 243.283 292.615 241.467 289.711 241.493C286.833 241.493 285.096 243.206 285.096 246.086C285.07 248.967 286.781 250.679 289.685 250.731C292.615 250.757 293.963 248.863 294.404 246.32Z" fill="#E6F9FB"/>
    <path d="M183.902 377.215C183.617 373.971 182.087 372.154 179.002 372.206C175.942 372.258 174.257 374.049 174.309 377.111C174.361 379.966 176.046 381.626 178.924 381.704C182.035 381.782 183.487 379.914 183.902 377.215Z" fill="#E6F9FB"/>
    <path d="M237.131 300.712C236.949 298.35 235.549 296.612 232.645 296.404C229.897 296.197 227.641 298.402 227.771 301.153C227.926 304.034 229.534 305.643 232.412 305.746C235.031 305.824 237.053 303.774 237.131 300.712Z" fill="#E6F9FB"/>
    <path d="M333.839 217.488C333.528 214.66 332.102 212.843 329.173 212.817C326.295 212.791 324.557 214.504 324.531 217.385C324.506 220.265 326.191 222.004 329.095 222.03C332.024 222.082 333.476 220.291 333.839 217.488Z" fill="#E6F9FB"/>
    <path d="M160.878 397.768C158.156 398.235 156.549 399.792 156.601 402.699C156.652 405.449 159.038 407.525 161.76 407.136C164.612 406.747 166.116 404.956 165.908 402.076C165.675 399.195 163.782 397.872 160.878 397.768Z" fill="#E6F9FB"/>
    <path d="M255.28 274.502C253.569 273.36 251.935 271.466 250.094 271.232C247.527 270.895 245.764 272.919 245.842 275.618C245.92 278.291 247.735 280.263 250.302 279.796C252.142 279.459 253.672 277.512 255.331 276.293C255.331 275.696 255.306 275.099 255.28 274.502Z" fill="#E6F9FB"/>
    <path d="M394.172 184.349C393.783 181.339 392.306 179.496 389.402 179.574C386.524 179.652 384.838 181.443 384.916 184.323C384.994 186.996 386.679 188.657 389.376 188.709C392.305 188.761 393.706 186.892 394.172 184.349Z" fill="#E6F9FB"/>
    <path d="M498.789 142.776C497.052 141.738 495.237 139.74 493.629 139.896C492.177 140.052 490.103 142.413 489.87 144.048C489.481 146.617 491.633 148.537 494.226 147.992C495.937 147.629 497.311 145.761 498.841 144.567C498.815 143.944 498.789 143.347 498.789 142.776Z" fill="#E6F9FB"/>
    <path d="M368.349 194.003C370.423 191.408 372.315 190.032 372.678 188.346C373.249 185.751 371.46 183.934 368.763 183.804C366.067 183.701 364.122 185.387 364.485 188.008C364.745 189.721 366.508 191.252 368.349 194.003Z" fill="#E6F9FB"/>
    <path d="M520.49 139.143C518.805 138.002 517.094 135.926 515.486 136.029C514.034 136.107 511.856 138.365 511.519 139.974C511.001 142.517 513.049 144.541 515.668 144.126C517.379 143.84 518.857 142.05 520.438 140.934C520.464 140.311 520.49 139.74 520.49 139.143Z" fill="#E6F9FB"/>
    <path d="M308.431 216.684C304.931 217.488 303.09 218.942 303.686 221.407C304.049 222.912 305.967 224.781 307.497 225.092C309.986 225.611 311.775 223.665 311.335 221.147C311.023 219.564 309.442 218.163 308.431 216.684Z" fill="#E6F9FB"/>
    <path d="M451.938 156.141C452.82 154.454 454.557 152.664 454.298 151.159C454.09 149.809 451.809 148.019 450.253 147.811C447.712 147.5 446.131 149.628 446.779 152.093C447.194 153.676 448.931 154.896 450.072 156.297C450.72 156.245 451.316 156.193 451.938 156.141Z" fill="#E6F9FB"/>
    <path d="M471.461 142.958C470.347 144.515 468.609 145.968 468.298 147.681C467.832 150.146 469.595 151.781 472.187 151.833C474.78 151.885 476.621 150.354 476.258 147.837C475.999 146.124 474.339 144.593 473.302 142.984C472.68 142.984 472.084 142.984 471.461 142.958Z" fill="#E6F9FB"/>
    <path d="M269.099 254.416C270.032 252.885 271.873 251.198 271.64 249.849C271.407 248.422 269.151 246.32 267.88 246.372C266.584 246.424 264.536 248.707 264.406 250.135C264.276 251.484 266.273 253.015 267.31 254.468C267.906 254.468 268.503 254.442 269.099 254.416Z" fill="#E6F9FB"/>
    <path d="M192.173 325.988C191.161 327.467 189.217 329.05 189.372 330.4C189.528 331.827 191.628 334.085 192.924 334.111C194.221 334.137 196.399 331.983 196.632 330.555C196.84 329.206 194.947 327.571 193.988 326.04C193.365 326.014 192.769 325.988 192.173 325.988Z" fill="#E6F9FB"/>
    <path d="M179.676 354.352C178.172 353.366 176.565 351.472 175.216 351.628C173.79 351.809 172.598 353.963 171.301 355.261C172.598 356.558 173.764 358.712 175.216 358.894C176.565 359.075 178.172 357.155 179.676 356.169C179.676 355.572 179.676 354.975 179.676 354.352Z" fill="#E6F9FB"/>
    <path d="M429.2 149.342C427.333 151.703 425.233 153.234 425.415 154.402C425.648 155.907 427.696 157.153 428.967 158.502C430.211 157.257 432.311 156.141 432.493 154.766C432.648 153.442 430.833 151.885 429.2 149.342Z" fill="#E6F9FB"/>
    <path d="M216.129 305.202C213.77 303.333 212.24 301.231 211.074 301.413C209.57 301.647 208.325 303.697 206.977 304.968C208.222 306.214 209.337 308.316 210.711 308.497C212.033 308.653 213.615 306.837 216.129 305.202Z" fill="#E6F9FB"/>
    <path d="M163.523 380.77C161.06 379.031 159.426 377.033 158.26 377.293C156.756 377.604 155.641 379.706 154.371 381.055C155.667 382.249 156.912 384.273 158.286 384.377C159.634 384.455 161.086 382.561 163.523 380.77Z" fill="#E6F9FB"/>
    <path d="M352.3 191.771C349.811 190.059 348.151 188.086 347.011 188.346C345.507 188.683 344.418 190.811 343.147 192.161C344.47 193.328 345.74 195.352 347.114 195.43C348.437 195.508 349.888 193.588 352.3 191.771Z" fill="#E6F9FB"/>
    <path d="M145.27 406.124C142.963 404.619 141.355 402.854 140.318 403.114C138.944 403.477 138.011 405.475 136.896 406.747C138.14 407.785 139.385 409.601 140.655 409.627C141.874 409.679 143.144 407.837 145.27 406.124Z" fill="#E6F9FB"/>
    <path d="M412.269 158.606C409.806 156.997 408.38 155.311 407.24 155.492C405.995 155.674 404.413 157.516 404.18 158.814C404.05 159.67 406.073 161.668 407.188 161.72C408.458 161.746 409.806 160.215 412.269 158.606Z" fill="#E6F9FB"/>
    <path d="M233.553 279.51C231.142 277.85 229.741 276.137 228.601 276.267C227.356 276.422 225.723 278.213 225.489 279.536C225.334 280.393 227.33 282.443 228.419 282.521C229.689 282.573 231.038 281.067 233.553 279.51Z" fill="#E6F9FB"/>
    <path d="M290.411 225.014C288.207 223.587 286.781 221.978 285.848 222.237C284.578 222.575 283.696 224.339 282.659 225.507C283.774 226.467 284.863 228.102 286.055 228.154C287.144 228.206 288.337 226.597 290.411 225.014Z" fill="#E6F9FB"/>
    <path d="M325.128 191.33C323.78 193.51 322.354 194.782 322.431 195.975C322.483 196.987 324.558 198.804 325.258 198.596C326.476 198.259 327.928 196.702 328.135 195.482C328.291 194.548 326.658 193.328 325.128 191.33Z" fill="#E6F9FB"/>
    <path d="M389.92 162.317C387.846 160.968 386.576 159.514 385.538 159.67C384.45 159.826 383.594 161.539 382.635 162.551C383.672 163.511 384.631 165.146 385.72 165.224C386.783 165.327 387.95 163.796 389.92 162.317Z" fill="#E6F9FB"/>
    <path d="M246.439 249.615C245.038 251.639 243.561 252.859 243.69 253.845C243.846 254.909 245.402 256.284 246.542 256.518C247.242 256.648 249.031 254.909 249.057 253.975C249.083 252.859 247.761 251.691 246.439 249.615Z" fill="#E6F9FB"/>
    <path d="M189.606 312.286C190.876 310.729 192.173 309.847 192.147 309.016C192.121 308.134 190.825 307.278 190.073 306.395C189.217 307.148 187.791 307.771 187.635 308.653C187.454 309.483 188.595 310.573 189.606 312.286Z" fill="#E6F9FB"/>
    <path d="M154.267 362.553C155.382 360.892 156.6 359.906 156.471 359.101C156.341 358.245 155.045 357.181 154.111 356.973C153.567 356.87 152.115 358.297 152.115 359.023C152.115 359.958 153.178 360.866 154.267 362.553Z" fill="#E6F9FB"/>
    <path d="M368.141 166.573C366.56 165.354 365.652 164.082 364.823 164.16C363.967 164.238 362.8 165.457 362.567 166.392C362.411 166.937 363.76 168.468 364.486 168.52C365.393 168.571 366.404 167.559 368.141 166.573Z" fill="#E6F9FB"/>
    <path d="M171.872 330.919C170.835 332.45 169.538 333.566 169.72 334.293C169.979 335.305 171.353 336.057 172.235 336.914C173.038 335.953 174.309 335.071 174.439 334.033C174.542 333.255 173.116 332.32 171.872 330.919Z" fill="#E6F9FB"/>
    <path d="M489.948 125.337C491.036 123.988 492.307 123.028 492.177 122.405C491.944 121.471 490.751 120.744 489.948 119.94C489.247 120.692 488.029 121.419 487.951 122.223C487.873 123.002 488.962 123.91 489.948 125.337Z" fill="#E6F9FB"/>
    <path d="M514.864 118.487C513.516 117.371 512.582 116.073 511.96 116.203C511.001 116.411 510.275 117.604 509.471 118.383C510.223 119.109 510.897 120.329 511.727 120.433C512.504 120.511 513.412 119.447 514.864 118.487Z" fill="#E6F9FB"/>
    <path d="M343.751 403.675C343.751 401.937 342.351 400.535 340.614 400.535C338.877 400.535 337.477 401.937 337.477 403.675C337.477 405.414 338.877 406.815 340.614 406.815C342.351 406.815 343.751 405.414 343.751 403.675Z" fill="#07847F"/>
    <path d="M377.094 403.675C377.094 401.937 375.693 400.535 373.956 400.535C372.219 400.535 370.819 401.937 370.819 403.675C370.819 405.414 372.219 406.815 373.956 406.815C375.693 406.815 377.094 405.414 377.094 403.675Z" fill="#07847F"/>
    <path d="M410.41 403.675C410.41 401.937 409.01 400.535 407.273 400.535C405.536 400.535 404.136 401.937 404.136 403.675C404.136 405.414 405.536 406.815 407.273 406.815C409.01 406.815 410.41 405.414 410.41 403.675Z" fill="#07847F"/>
    <path d="M443.727 403.675C443.727 401.937 442.327 400.535 440.589 400.535C438.852 400.535 437.452 401.937 437.452 403.675C437.452 405.414 438.852 406.815 440.589 406.815C442.327 406.815 443.727 405.414 443.727 403.675Z" fill="#07847F"/>
    <path d="M477.043 403.675C477.043 401.937 475.643 400.535 473.906 400.535C472.169 400.535 470.769 401.937 470.769 403.675C470.769 405.414 472.169 406.815 473.906 406.815C475.643 406.815 477.043 405.414 477.043 403.675Z" fill="#07847F"/>
    <path d="M510.36 403.675C510.36 401.937 508.96 400.535 507.223 400.535C505.485 400.535 504.085 401.937 504.085 403.675C504.085 405.414 505.485 406.815 507.223 406.815C508.96 406.815 510.36 405.414 510.36 403.675Z" fill="#07847F"/>
    <path d="M340.614 363.633C342.346 363.633 343.751 365.039 343.751 366.773C343.751 368.508 342.346 369.914 340.614 369.914C338.881 369.914 337.477 368.508 337.477 366.773C337.477 365.039 338.881 363.633 340.614 363.633Z" fill="#07847F"/>
    <path d="M373.93 363.633C375.663 363.633 377.068 365.039 377.068 366.773C377.068 368.508 375.663 369.914 373.93 369.914C372.198 369.914 370.793 368.508 370.793 366.773C370.793 365.039 372.198 363.633 373.93 363.633Z" fill="#07847F"/>
    <path d="M410.41 366.773C410.41 365.035 409.01 363.633 407.273 363.633C405.536 363.633 404.136 365.035 404.136 366.773C404.136 368.512 405.536 369.914 407.273 369.914C409.01 369.914 410.41 368.512 410.41 366.773Z" fill="#07847F"/>
    <path d="M443.727 366.773C443.727 365.035 442.327 363.633 440.589 363.633C438.852 363.633 437.452 365.035 437.452 366.773C437.452 368.512 438.852 369.914 440.589 369.914C442.327 369.914 443.727 368.512 443.727 366.773Z" fill="#07847F"/>
    <path d="M477.043 366.773C477.043 365.035 475.643 363.633 473.906 363.633C472.169 363.633 470.769 365.035 470.769 366.773C470.769 368.512 472.169 369.914 473.906 369.914C475.643 369.914 477.043 368.512 477.043 366.773Z" fill="#07847F"/>
    <path d="M507.223 363.633C508.955 363.633 510.36 365.039 510.36 366.773C510.36 368.508 508.955 369.914 507.223 369.914C505.49 369.914 504.085 368.508 504.085 366.773C504.085 365.039 505.49 363.633 507.223 363.633Z" fill="#07847F"/>
    <path d="M343.751 329.845C343.751 328.107 342.351 326.705 340.614 326.705C338.877 326.705 337.477 328.107 337.477 329.845C337.477 331.584 338.877 332.985 340.614 332.985C342.351 333.011 343.751 331.61 343.751 329.845Z" fill="#07847F"/>
    <path d="M377.094 329.846C377.094 328.107 375.693 326.706 373.956 326.706C372.219 326.706 370.819 328.107 370.819 329.846C370.819 331.585 372.219 332.986 373.956 332.986C375.693 332.986 377.094 331.61 377.094 329.846Z" fill="#07847F"/>
    <path d="M410.41 329.845C410.41 328.107 409.01 326.705 407.273 326.705C405.536 326.705 404.136 328.107 404.136 329.845C404.136 331.584 405.536 332.985 407.273 332.985C409.01 333.011 410.41 331.61 410.41 329.845Z" fill="#07847F"/>
    <path d="M443.727 329.845C443.727 328.107 442.327 326.705 440.589 326.705C438.852 326.705 437.452 328.107 437.452 329.845C437.452 331.584 438.852 332.985 440.589 332.985C442.327 333.011 443.727 331.61 443.727 329.845Z" fill="#07847F"/>
    <path d="M477.043 329.845C477.043 328.107 475.643 326.705 473.906 326.705C472.169 326.705 470.769 328.107 470.769 329.845C470.769 331.584 472.169 332.985 473.906 332.985C475.643 333.011 477.043 331.61 477.043 329.845Z" fill="#07847F"/>
    <path d="M510.36 329.845C510.36 328.107 508.96 326.705 507.223 326.705C505.485 326.705 504.085 328.107 504.085 329.845C504.085 331.584 505.485 332.985 507.223 332.985C508.96 333.011 510.36 331.61 510.36 329.845Z" fill="#07847F"/>
    <path d="M340.614 289.804C342.346 289.804 343.751 291.21 343.751 292.944C343.751 294.678 342.346 296.084 340.614 296.084C338.881 296.084 337.477 294.678 337.477 292.944C337.477 291.21 338.881 289.804 340.614 289.804Z" fill="#07847F"/>
    <path d="M373.93 289.804C375.663 289.804 377.068 291.21 377.068 292.944C377.068 294.678 375.663 296.084 373.93 296.084C372.198 296.084 370.793 294.678 370.793 292.944C370.793 291.21 372.198 289.804 373.93 289.804Z" fill="#07847F"/>
    <path d="M410.41 292.944C410.41 291.205 409.01 289.804 407.273 289.804C405.536 289.804 404.136 291.205 404.136 292.944C404.136 294.682 405.536 296.084 407.273 296.084C409.01 296.11 410.41 294.682 410.41 292.944Z" fill="#07847F"/>
    <path d="M443.727 292.944C443.727 291.205 442.327 289.804 440.589 289.804C438.852 289.804 437.452 291.205 437.452 292.944C437.452 294.682 438.852 296.084 440.589 296.084C442.327 296.11 443.727 294.682 443.727 292.944Z" fill="#07847F"/>
    <path d="M477.043 292.944C477.043 291.205 475.643 289.804 473.906 289.804C472.169 289.804 470.769 291.205 470.769 292.944C470.769 294.682 472.169 296.084 473.906 296.084C475.643 296.11 477.043 294.682 477.043 292.944Z" fill="#07847F"/>
    <path d="M507.223 289.804C508.955 289.804 510.36 291.21 510.36 292.944C510.36 294.678 508.955 296.084 507.223 296.084C505.49 296.084 504.085 294.678 504.085 292.944C504.085 291.21 505.49 289.804 507.223 289.804Z" fill="#07847F"/>
    <path d="M340.614 252.902C342.346 252.902 343.751 254.307 343.751 256.042C343.751 257.776 342.346 259.182 340.614 259.182C338.881 259.182 337.477 257.776 337.477 256.042C337.477 254.307 338.881 252.902 340.614 252.902Z" fill="#07847F"/>
    <path d="M373.93 252.902C375.663 252.902 377.068 254.307 377.068 256.042C377.068 257.776 375.663 259.182 373.93 259.182C372.198 259.182 370.793 257.776 370.793 256.042C370.793 254.307 372.198 252.902 373.93 252.902Z" fill="#07847F"/>
    <path d="M410.41 256.042C410.41 254.303 409.01 252.902 407.273 252.902C405.536 252.902 404.136 254.303 404.136 256.042C404.136 257.78 405.536 259.182 407.273 259.182C409.01 259.208 410.41 257.78 410.41 256.042Z" fill="#07847F"/>
    <path d="M443.727 256.042C443.727 254.303 442.327 252.902 440.589 252.902C438.852 252.902 437.452 254.303 437.452 256.042C437.452 257.78 438.852 259.182 440.589 259.182C442.327 259.208 443.727 257.78 443.727 256.042Z" fill="#07847F"/>
    <path d="M477.043 256.042C477.043 254.303 475.643 252.902 473.906 252.902C472.169 252.902 470.769 254.303 470.769 256.042C470.769 257.78 472.169 259.182 473.906 259.182C475.643 259.208 477.043 257.78 477.043 256.042Z" fill="#07847F"/>
    <path d="M507.223 252.902C508.955 252.902 510.36 254.307 510.36 256.042C510.36 257.776 508.955 259.182 507.223 259.182C505.49 259.182 504.085 257.776 504.085 256.042C504.085 254.307 505.49 252.902 507.223 252.902Z" fill="#07847F"/>
    <path d="M343.751 219.14C343.751 217.401 342.351 216 340.614 216C338.877 216 337.477 217.401 337.477 219.14C337.477 220.879 338.877 222.28 340.614 222.28C342.351 222.306 343.751 220.879 343.751 219.14Z" fill="#07847F"/>
    <path d="M377.094 219.14C377.094 217.402 375.693 216 373.956 216C372.219 216 370.819 217.402 370.819 219.14C370.819 220.879 372.219 222.28 373.956 222.28C375.693 222.28 377.094 220.879 377.094 219.14Z" fill="#07847F"/>
    <path d="M410.41 219.14C410.41 217.401 409.01 216 407.273 216C405.536 216 404.136 217.401 404.136 219.14C404.136 220.879 405.536 222.28 407.273 222.28C409.01 222.306 410.41 220.879 410.41 219.14Z" fill="#07847F"/>
    <path d="M443.727 219.14C443.727 217.401 442.327 216 440.589 216C438.852 216 437.452 217.401 437.452 219.14C437.452 220.879 438.852 222.28 440.589 222.28C442.327 222.306 443.727 220.879 443.727 219.14Z" fill="#07847F"/>
    <path d="M477.043 219.14C477.043 217.401 475.643 216 473.906 216C472.169 216 470.769 217.401 470.769 219.14C470.769 220.879 472.169 222.28 473.906 222.28C475.643 222.306 477.043 220.879 477.043 219.14Z" fill="#07847F"/>
    <path d="M510.36 219.14C510.36 217.401 508.96 216 507.223 216C505.485 216 504.085 217.401 504.085 219.14C504.085 220.879 505.485 222.28 507.223 222.28C508.96 222.306 510.36 220.879 510.36 219.14Z" fill="#07847F"/>
    <path d="M538.456 253.943C641.125 253.943 724.354 337.248 724.354 440.01C724.354 542.771 641.125 626.076 538.456 626.076C435.787 626.076 352.557 542.771 352.557 440.01C352.557 337.248 435.787 253.943 538.456 253.943Z" stroke="#FF7D44" stroke-width="2" stroke-miterlimit="10"/>
</svg>
