<svg width="92" height="92" viewBox="0 0 92 92" fill="none" xmlns="http://www.w3.org/2000/svg">
    <path d="M89.4423 5.1144C88.0299 5.1144 86.8846 3.96936 86.8846 2.55716C86.8846 1.14496 88.0299 -1.7354e-07 89.4423 -1.118e-07C90.8548 -5.006e-08 92 1.14496 92 2.55716C92 3.96936 90.8548 5.1144 89.4423 5.1144Z" fill="#FF7D44" fill-opacity="0.4"/>
    <path d="M89.4423 15.8906C88.0299 15.8906 86.8846 14.7456 86.8846 13.3334C86.8846 11.9212 88.0299 10.7761 89.4423 10.7761C90.8548 10.7761 92 11.9212 92 13.3334C92 14.7328 90.8548 15.8906 89.4423 15.8906Z" fill="#FF7D44" fill-opacity="0.4"/>
    <path d="M89.4423 26.6537C88.0299 26.6537 86.8846 25.5087 86.8846 24.0965C86.8846 22.6843 88.0299 21.5393 89.4423 21.5393C90.8548 21.5393 92 22.6843 92 24.0965C92 25.5087 90.8548 26.6537 89.4423 26.6537Z" fill="#FF7D44" fill-opacity="0.4"/>
    <path d="M89.4423 37.4299C88.0299 37.4299 86.8846 36.2849 86.8846 34.8727C86.8846 33.4605 88.0299 32.3154 89.4423 32.3154C90.8548 32.3154 92 33.4605 92 34.8727C92 36.2849 90.8548 37.4299 89.4423 37.4299Z" fill="#FF7D44" fill-opacity="0.4"/>
    <path d="M89.4423 48.1929C88.0299 48.1928 86.8846 47.0478 86.8846 45.6356C86.8846 44.2234 88.0299 43.0784 89.4423 43.0784C90.8548 43.0784 92 44.2234 92 45.6356C92 47.0478 90.8548 48.1929 89.4423 48.1929Z" fill="#FF7D44" fill-opacity="0.4"/>
    <path d="M89.4423 58.9685C88.0299 58.9685 86.8846 57.8234 86.8846 56.4112C86.8846 54.999 88.0299 53.854 89.4423 53.854C90.8548 53.854 92 54.999 92 56.4112C92 57.8234 90.8548 58.9685 89.4423 58.9685Z" fill="#FF7D44" fill-opacity="0.4"/>
    <path d="M89.4423 69.7448C88.0299 69.7448 86.8846 68.5998 86.8846 67.1876C86.8846 65.7754 88.0299 64.6304 89.4423 64.6304C90.8548 64.6304 92 65.7754 92 67.1876C92 68.5998 90.8548 69.7448 89.4423 69.7448Z" fill="#FF7D44" fill-opacity="0.4"/>
    <path d="M89.4423 80.5083C88.0299 80.5083 86.8846 79.3632 86.8846 77.951C86.8846 76.5388 88.0299 75.3938 89.4423 75.3938C90.8548 75.3938 92 76.5388 92 77.951C92 79.3632 90.8548 80.5083 89.4423 80.5083Z" fill="#FF7D44" fill-opacity="0.4"/>
    <path d="M89.4423 91.2844C88.0299 91.2844 86.8846 90.1394 86.8846 88.7272C86.8846 87.315 88.0299 86.1699 89.4423 86.1699C90.8548 86.1699 92 87.315 92 88.7272C92 90.1394 90.8548 91.2844 89.4423 91.2844Z" fill="#FF7D44" fill-opacity="0.4"/>
    <path d="M78.5882 5.1144C77.1757 5.1144 76.0305 3.96936 76.0305 2.55716C76.0305 1.14496 77.1757 -1.7354e-07 78.5882 -1.118e-07C80.0006 -5.006e-08 81.1459 1.14496 81.1459 2.55716C81.1459 3.96936 80.0006 5.1144 78.5882 5.1144Z" fill="#FF7D44" fill-opacity="0.4"/>
    <path d="M78.5881 15.8906C77.1756 15.8906 76.0304 14.7456 76.0304 13.3334C76.0304 11.9212 77.1756 10.7761 78.5881 10.7761C80.0005 10.7761 81.1458 11.9212 81.1458 13.3334C81.1458 14.7328 80.0005 15.8906 78.5881 15.8906Z" fill="#FF7D44" fill-opacity="0.4"/>
    <path d="M78.5881 26.6537C77.1756 26.6537 76.0304 25.5087 76.0304 24.0965C76.0304 22.6843 77.1756 21.5393 78.5881 21.5393C80.0005 21.5393 81.1458 22.6843 81.1458 24.0965C81.1458 25.5087 80.0005 26.6537 78.5881 26.6537Z" fill="#FF7D44" fill-opacity="0.4"/>
    <path d="M78.5881 37.4299C77.1756 37.4299 76.0304 36.2849 76.0304 34.8727C76.0304 33.4605 77.1756 32.3154 78.5881 32.3154C80.0005 32.3154 81.1458 33.4605 81.1458 34.8727C81.1458 36.2849 80.0005 37.4299 78.5881 37.4299Z" fill="#FF7D44" fill-opacity="0.4"/>
    <path d="M78.5881 48.1929C77.1756 48.1928 76.0304 47.0478 76.0304 45.6356C76.0304 44.2234 77.1756 43.0784 78.5881 43.0784C80.0005 43.0784 81.1458 44.2234 81.1458 45.6356C81.1458 47.0478 80.0005 48.1929 78.5881 48.1929Z" fill="#FF7D44" fill-opacity="0.4"/>
    <path d="M78.5881 58.9685C77.1756 58.9685 76.0304 57.8234 76.0304 56.4112C76.0304 54.999 77.1756 53.854 78.5881 53.854C80.0005 53.854 81.1458 54.999 81.1458 56.4112C81.1458 57.8234 80.0005 58.9685 78.5881 58.9685Z" fill="#FF7D44" fill-opacity="0.4"/>
    <path d="M78.5881 69.7448C77.1756 69.7448 76.0304 68.5998 76.0304 67.1876C76.0304 65.7754 77.1756 64.6304 78.5881 64.6304C80.0005 64.6304 81.1458 65.7754 81.1458 67.1876C81.1458 68.5998 80.0005 69.7448 78.5881 69.7448Z" fill="#FF7D44" fill-opacity="0.4"/>
    <path d="M78.5881 80.5083C77.1756 80.5083 76.0304 79.3632 76.0304 77.951C76.0304 76.5388 77.1756 75.3938 78.5881 75.3938C80.0005 75.3938 81.1458 76.5388 81.1458 77.951C81.1458 79.3632 80.0005 80.5083 78.5881 80.5083Z" fill="#FF7D44" fill-opacity="0.4"/>
    <path d="M78.5881 91.2844C77.1756 91.2844 76.0304 90.1394 76.0304 88.7272C76.0304 87.315 77.1756 86.1699 78.5881 86.1699C80.0005 86.1699 81.1458 87.315 81.1458 88.7272C81.1458 90.1394 80.0005 91.2844 78.5881 91.2844Z" fill="#FF7D44" fill-opacity="0.4"/>
    <path d="M67.7212 5.1144C66.3087 5.1144 65.1635 3.96936 65.1635 2.55716C65.1635 1.14496 66.3087 -1.7354e-07 67.7212 -1.118e-07C69.1336 -5.006e-08 70.2789 1.14496 70.2789 2.55716C70.2789 3.96936 69.1336 5.1144 67.7212 5.1144Z" fill="#FF7D44" fill-opacity="0.4"/>
    <path d="M67.7212 15.8906C66.3088 15.8906 65.1636 14.7456 65.1636 13.3334C65.1636 11.9212 66.3088 10.7761 67.7212 10.7761C69.1337 10.7761 70.2789 11.9212 70.2789 13.3334C70.2789 14.7328 69.1337 15.8906 67.7212 15.8906Z" fill="#FF7D44" fill-opacity="0.4"/>
    <path d="M67.7212 26.6537C66.3088 26.6537 65.1636 25.5087 65.1636 24.0965C65.1636 22.6843 66.3088 21.5393 67.7212 21.5393C69.1337 21.5393 70.2789 22.6843 70.2789 24.0965C70.2789 25.5087 69.1337 26.6537 67.7212 26.6537Z" fill="#FF7D44" fill-opacity="0.4"/>
    <path d="M67.7212 37.4299C66.3088 37.4299 65.1636 36.2849 65.1636 34.8727C65.1636 33.4605 66.3088 32.3154 67.7212 32.3154C69.1337 32.3154 70.2789 33.4605 70.2789 34.8727C70.2789 36.2849 69.1337 37.4299 67.7212 37.4299Z" fill="#FF7D44" fill-opacity="0.4"/>
    <path d="M67.7212 48.1929C66.3088 48.1928 65.1636 47.0478 65.1636 45.6356C65.1636 44.2234 66.3088 43.0784 67.7212 43.0784C69.1337 43.0784 70.2789 44.2234 70.2789 45.6356C70.2789 47.0478 69.1337 48.1929 67.7212 48.1929Z" fill="#FF7D44" fill-opacity="0.4"/>
    <path d="M67.7212 58.9685C66.3088 58.9685 65.1636 57.8234 65.1636 56.4112C65.1636 54.999 66.3088 53.854 67.7212 53.854C69.1337 53.854 70.2789 54.999 70.2789 56.4112C70.2789 57.8234 69.1337 58.9685 67.7212 58.9685Z" fill="#FF7D44" fill-opacity="0.4"/>
    <path d="M67.7212 69.7448C66.3088 69.7448 65.1636 68.5998 65.1636 67.1876C65.1636 65.7754 66.3088 64.6304 67.7212 64.6304C69.1337 64.6304 70.2789 65.7754 70.2789 67.1876C70.2789 68.5998 69.1337 69.7448 67.7212 69.7448Z" fill="#FF7D44" fill-opacity="0.4"/>
    <path d="M67.7212 80.5083C66.3088 80.5083 65.1636 79.3632 65.1636 77.951C65.1636 76.5388 66.3088 75.3938 67.7212 75.3938C69.1337 75.3938 70.2789 76.5388 70.2789 77.951C70.2789 79.3632 69.1337 80.5083 67.7212 80.5083Z" fill="#FF7D44" fill-opacity="0.4"/>
    <path d="M67.7212 91.2844C66.3088 91.2844 65.1636 90.1394 65.1636 88.7272C65.1636 87.315 66.3088 86.1699 67.7212 86.1699C69.1337 86.1699 70.2789 87.315 70.2789 88.7272C70.2789 90.1394 69.1337 91.2844 67.7212 91.2844Z" fill="#FF7D44" fill-opacity="0.4"/>
    <path d="M56.8542 5.1144C55.4418 5.1144 54.2965 3.96936 54.2965 2.55716C54.2965 1.14496 55.4418 -1.73543e-07 56.8542 -1.11803e-07C58.2667 -5.00629e-08 59.4119 1.14496 59.4119 2.55716C59.4246 3.96936 58.2794 5.1144 56.8542 5.1144Z" fill="#FF7D44" fill-opacity="0.4"/>
    <path d="M56.8541 15.8906C55.4417 15.8906 54.2964 14.7456 54.2964 13.3334C54.2964 11.9212 55.4417 10.7761 56.8541 10.7761C58.2666 10.7761 59.4118 11.9212 59.4118 13.3334C59.4245 14.7328 58.2793 15.8906 56.8541 15.8906Z" fill="#FF7D44" fill-opacity="0.4"/>
    <path d="M56.8541 26.6537C55.4417 26.6537 54.2964 25.5087 54.2964 24.0965C54.2964 22.6843 55.4417 21.5393 56.8541 21.5393C58.2666 21.5393 59.4118 22.6843 59.4118 24.0965C59.4245 25.5087 58.2793 26.6537 56.8541 26.6537Z" fill="#FF7D44" fill-opacity="0.4"/>
    <path d="M56.8541 37.4299C55.4417 37.4299 54.2964 36.2849 54.2964 34.8727C54.2964 33.4605 55.4417 32.3154 56.8541 32.3154C58.2666 32.3154 59.4118 33.4605 59.4118 34.8727C59.4245 36.2849 58.2793 37.4299 56.8541 37.4299Z" fill="#FF7D44" fill-opacity="0.4"/>
    <path d="M56.854 48.1929C55.4416 48.1928 54.2963 47.0478 54.2963 45.6356C54.2963 44.2234 55.4416 43.0784 56.854 43.0784C58.2665 43.0784 59.4117 44.2234 59.4117 45.6356C59.4117 47.0478 58.2792 48.1929 56.854 48.1929Z" fill="#FF7D44" fill-opacity="0.4"/>
    <path d="M56.8541 58.9685C55.4417 58.9685 54.2964 57.8234 54.2964 56.4112C54.2964 54.999 55.4417 53.854 56.8541 53.854C58.2666 53.854 59.4118 54.999 59.4118 56.4112C59.4245 57.8234 58.2793 58.9685 56.8541 58.9685Z" fill="#FF7D44" fill-opacity="0.4"/>
    <path d="M56.8541 69.7448C55.4417 69.7448 54.2964 68.5998 54.2964 67.1876C54.2964 65.7754 55.4417 64.6304 56.8541 64.6304C58.2666 64.6304 59.4118 65.7754 59.4118 67.1876C59.4245 68.5998 58.2793 69.7448 56.8541 69.7448Z" fill="#FF7D44" fill-opacity="0.4"/>
    <path d="M56.8541 80.5083C55.4417 80.5083 54.2964 79.3632 54.2964 77.951C54.2964 76.5388 55.4417 75.3938 56.8541 75.3938C58.2666 75.3938 59.4118 76.5388 59.4118 77.951C59.4245 79.3632 58.2793 80.5083 56.8541 80.5083Z" fill="#FF7D44" fill-opacity="0.4"/>
    <path d="M56.8541 91.2844C55.4417 91.2844 54.2964 90.1394 54.2964 88.7272C54.2964 87.315 55.4417 86.1699 56.8541 86.1699C58.2666 86.1699 59.4118 87.315 59.4118 88.7272C59.4245 90.1394 58.2793 91.2844 56.8541 91.2844Z" fill="#FF7D44" fill-opacity="0.4"/>
    <path d="M46 5.1144C44.5876 5.1144 43.4423 3.96936 43.4423 2.55716C43.4423 1.14496 44.5876 -1.73538e-07 46 -1.11798e-07C47.4125 -5.00584e-08 48.5577 1.14496 48.5577 2.55716C48.5577 3.96936 47.4125 5.1144 46 5.1144Z" fill="#FF7D44" fill-opacity="0.4"/>
    <path d="M46.0001 15.8906C44.5876 15.8906 43.4424 14.7456 43.4424 13.3334C43.4424 11.9212 44.5876 10.7761 46.0001 10.7761C47.4125 10.7761 48.5577 11.9212 48.5577 13.3334C48.5577 14.7328 47.4125 15.8906 46.0001 15.8906Z" fill="#FF7D44" fill-opacity="0.4"/>
    <path d="M46.0001 26.6537C44.5876 26.6537 43.4424 25.5087 43.4424 24.0965C43.4424 22.6843 44.5876 21.5393 46.0001 21.5393C47.4125 21.5393 48.5577 22.6843 48.5577 24.0965C48.5577 25.5087 47.4125 26.6537 46.0001 26.6537Z" fill="#FF7D44" fill-opacity="0.4"/>
    <path d="M46.0001 37.4299C44.5876 37.4299 43.4424 36.2849 43.4424 34.8727C43.4424 33.4605 44.5876 32.3154 46.0001 32.3154C47.4125 32.3154 48.5577 33.4605 48.5577 34.8727C48.5577 36.2849 47.4125 37.4299 46.0001 37.4299Z" fill="#FF7D44" fill-opacity="0.4"/>
    <path d="M46.0001 48.1929C44.5876 48.1928 43.4424 47.0478 43.4424 45.6356C43.4424 44.2234 44.5876 43.0784 46.0001 43.0784C47.4125 43.0784 48.5577 44.2234 48.5577 45.6356C48.5577 47.0478 47.4125 48.1929 46.0001 48.1929Z" fill="#FF7D44" fill-opacity="0.4"/>
    <path d="M46.0001 58.9685C44.5876 58.9685 43.4424 57.8234 43.4424 56.4112C43.4424 54.999 44.5876 53.854 46.0001 53.854C47.4125 53.854 48.5577 54.999 48.5577 56.4112C48.5577 57.8234 47.4125 58.9685 46.0001 58.9685Z" fill="#FF7D44" fill-opacity="0.4"/>
    <path d="M46.0001 69.7448C44.5876 69.7448 43.4424 68.5998 43.4424 67.1876C43.4424 65.7754 44.5876 64.6304 46.0001 64.6304C47.4125 64.6304 48.5577 65.7754 48.5577 67.1876C48.5577 68.5998 47.4125 69.7448 46.0001 69.7448Z" fill="#FF7D44" fill-opacity="0.4"/>
    <path d="M46.0001 80.5083C44.5876 80.5083 43.4424 79.3632 43.4424 77.951C43.4424 76.5388 44.5876 75.3938 46.0001 75.3938C47.4125 75.3938 48.5577 76.5388 48.5577 77.951C48.5577 79.3632 47.4125 80.5083 46.0001 80.5083Z" fill="#FF7D44" fill-opacity="0.4"/>
    <path d="M46.0001 91.2844C44.5876 91.2844 43.4424 90.1394 43.4424 88.7272C43.4424 87.315 44.5876 86.1699 46.0001 86.1699C47.4125 86.1699 48.5577 87.315 48.5577 88.7272C48.5577 90.1394 47.4125 91.2844 46.0001 91.2844Z" fill="#FF7D44" fill-opacity="0.4"/>
    <path d="M35.1331 5.1144C33.7207 5.1144 32.5754 3.96936 32.5754 2.55716C32.5754 1.14496 33.7207 -1.73543e-07 35.1331 -1.11803e-07C36.5456 -5.00629e-08 37.6908 1.14496 37.6908 2.55716C37.7035 3.96936 36.5583 5.1144 35.1331 5.1144Z" fill="#FF7D44" fill-opacity="0.4"/>
    <path d="M35.133 15.8906C33.7206 15.8906 32.5754 14.7456 32.5754 13.3334C32.5754 11.9212 33.7206 10.7761 35.133 10.7761C36.5455 10.7761 37.6907 11.9212 37.6907 13.3334C37.7034 14.7328 36.5582 15.8906 35.133 15.8906Z" fill="#FF7D44" fill-opacity="0.4"/>
    <path d="M35.133 26.6537C33.7206 26.6537 32.5754 25.5087 32.5754 24.0965C32.5754 22.6843 33.7206 21.5393 35.133 21.5393C36.5455 21.5393 37.6907 22.6843 37.6907 24.0965C37.7034 25.5087 36.5582 26.6537 35.133 26.6537Z" fill="#FF7D44" fill-opacity="0.4"/>
    <path d="M35.133 37.4299C33.7206 37.4299 32.5754 36.2849 32.5754 34.8727C32.5754 33.4605 33.7206 32.3154 35.133 32.3154C36.5455 32.3154 37.6907 33.4605 37.6907 34.8727C37.7034 36.2849 36.5582 37.4299 35.133 37.4299Z" fill="#FF7D44" fill-opacity="0.4"/>
    <path d="M35.1331 48.1929C33.7207 48.1928 32.5755 47.0478 32.5755 45.6356C32.5755 44.2234 33.7207 43.0784 35.1331 43.0784C36.5456 43.0784 37.6908 44.2234 37.6908 45.6356C37.6908 47.0478 36.5583 48.1929 35.1331 48.1929Z" fill="#FF7D44" fill-opacity="0.4"/>
    <path d="M35.133 58.9685C33.7206 58.9685 32.5754 57.8234 32.5754 56.4112C32.5754 54.999 33.7206 53.854 35.133 53.854C36.5455 53.854 37.6907 54.999 37.6907 56.4112C37.7034 57.8234 36.5582 58.9685 35.133 58.9685Z" fill="#FF7D44" fill-opacity="0.4"/>
    <path d="M35.133 69.7448C33.7206 69.7448 32.5754 68.5998 32.5754 67.1876C32.5754 65.7754 33.7206 64.6304 35.133 64.6304C36.5455 64.6304 37.6907 65.7754 37.6907 67.1876C37.7034 68.5998 36.5582 69.7448 35.133 69.7448Z" fill="#FF7D44" fill-opacity="0.4"/>
    <path d="M35.133 80.5083C33.7206 80.5083 32.5754 79.3632 32.5754 77.951C32.5754 76.5388 33.7206 75.3938 35.133 75.3938C36.5455 75.3938 37.6907 76.5388 37.6907 77.951C37.7034 79.3632 36.5582 80.5083 35.133 80.5083Z" fill="#FF7D44" fill-opacity="0.4"/>
    <path d="M35.133 91.2844C33.7206 91.2844 32.5754 90.1394 32.5754 88.7272C32.5754 87.315 33.7206 86.1699 35.133 86.1699C36.5455 86.1699 37.6907 87.315 37.6907 88.7272C37.7034 90.1394 36.5582 91.2844 35.133 91.2844Z" fill="#FF7D44" fill-opacity="0.4"/>
    <path d="M24.2789 5.1144C22.8665 5.1144 21.7212 3.96936 21.7212 2.55716C21.7212 1.14496 22.8665 -1.73538e-07 24.2789 -1.11798e-07C25.6913 -5.00584e-08 26.8365 1.14496 26.8365 2.55716C26.8365 3.96936 25.6913 5.1144 24.2789 5.1144Z" fill="#FF7D44" fill-opacity="0.4"/>
    <path d="M24.279 15.8906C22.8666 15.8906 21.7213 14.7456 21.7213 13.3334C21.7213 11.9212 22.8666 10.7761 24.279 10.7761C25.6915 10.7761 26.8367 11.9212 26.8367 13.3334C26.8367 14.7328 25.6915 15.8906 24.279 15.8906Z" fill="#FF7D44" fill-opacity="0.4"/>
    <path d="M24.279 26.6537C22.8666 26.6537 21.7213 25.5087 21.7213 24.0965C21.7213 22.6843 22.8666 21.5393 24.279 21.5393C25.6915 21.5393 26.8367 22.6843 26.8367 24.0965C26.8367 25.5087 25.6915 26.6537 24.279 26.6537Z" fill="#FF7D44" fill-opacity="0.4"/>
    <path d="M24.279 37.4299C22.8666 37.4299 21.7213 36.2849 21.7213 34.8727C21.7213 33.4605 22.8666 32.3154 24.279 32.3154C25.6915 32.3154 26.8367 33.4605 26.8367 34.8727C26.8367 36.2849 25.6915 37.4299 24.279 37.4299Z" fill="#FF7D44" fill-opacity="0.4"/>
    <path d="M24.279 48.1929C22.8666 48.1928 21.7213 47.0478 21.7213 45.6356C21.7213 44.2234 22.8666 43.0784 24.279 43.0784C25.6915 43.0784 26.8367 44.2234 26.8367 45.6356C26.8367 47.0478 25.6915 48.1929 24.279 48.1929Z" fill="#FF7D44" fill-opacity="0.4"/>
    <path d="M24.279 58.9685C22.8666 58.9685 21.7213 57.8234 21.7213 56.4112C21.7213 54.999 22.8666 53.854 24.279 53.854C25.6915 53.854 26.8367 54.999 26.8367 56.4112C26.8367 57.8234 25.6915 58.9685 24.279 58.9685Z" fill="#FF7D44" fill-opacity="0.4"/>
    <path d="M24.279 69.7448C22.8666 69.7448 21.7213 68.5998 21.7213 67.1876C21.7213 65.7754 22.8666 64.6304 24.279 64.6304C25.6915 64.6304 26.8367 65.7754 26.8367 67.1876C26.8367 68.5998 25.6915 69.7448 24.279 69.7448Z" fill="#FF7D44" fill-opacity="0.4"/>
    <path d="M24.279 80.5083C22.8666 80.5083 21.7213 79.3632 21.7213 77.951C21.7213 76.5388 22.8666 75.3938 24.279 75.3938C25.6915 75.3938 26.8367 76.5388 26.8367 77.951C26.8367 79.3632 25.6915 80.5083 24.279 80.5083Z" fill="#FF7D44" fill-opacity="0.4"/>
    <path d="M24.279 91.2844C22.8666 91.2844 21.7213 90.1394 21.7213 88.7272C21.7213 87.315 22.8666 86.1699 24.279 86.1699C25.6915 86.1699 26.8367 87.315 26.8367 88.7272C26.8367 90.1394 25.6915 91.2844 24.279 91.2844Z" fill="#FF7D44" fill-opacity="0.4"/>
    <path d="M13.4118 5.1144C11.9993 5.1144 10.8541 3.96936 10.8541 2.55716C10.8541 1.14496 11.9993 -1.7354e-07 13.4118 -1.118e-07C14.8242 -5.006e-08 15.9695 1.14496 15.9695 2.55716C15.9695 3.96936 14.8242 5.1144 13.4118 5.1144Z" fill="#FF7D44" fill-opacity="0.4"/>
    <path d="M13.4118 15.8906C11.9993 15.8906 10.8541 14.7456 10.8541 13.3334C10.8541 11.9212 11.9993 10.7761 13.4118 10.7761C14.8242 10.7761 15.9695 11.9212 15.9695 13.3334C15.9695 14.7328 14.8242 15.8906 13.4118 15.8906Z" fill="#FF7D44" fill-opacity="0.4"/>
    <path d="M13.4118 26.6537C11.9993 26.6537 10.8541 25.5087 10.8541 24.0965C10.8541 22.6843 11.9993 21.5393 13.4118 21.5393C14.8242 21.5393 15.9695 22.6843 15.9695 24.0965C15.9695 25.5087 14.8242 26.6537 13.4118 26.6537Z" fill="#FF7D44" fill-opacity="0.4"/>
    <path d="M13.4118 37.4299C11.9993 37.4299 10.8541 36.2849 10.8541 34.8727C10.8541 33.4605 11.9993 32.3154 13.4118 32.3154C14.8242 32.3154 15.9695 33.4605 15.9695 34.8727C15.9695 36.2849 14.8242 37.4299 13.4118 37.4299Z" fill="#FF7D44" fill-opacity="0.4"/>
    <path d="M13.4118 48.1929C11.9993 48.1928 10.8541 47.0478 10.8541 45.6356C10.8541 44.2234 11.9993 43.0784 13.4118 43.0784C14.8242 43.0784 15.9695 44.2234 15.9695 45.6356C15.9695 47.0478 14.8242 48.1929 13.4118 48.1929Z" fill="#FF7D44" fill-opacity="0.4"/>
    <path d="M13.4118 58.9685C11.9993 58.9685 10.8541 57.8234 10.8541 56.4112C10.8541 54.999 11.9993 53.854 13.4118 53.854C14.8242 53.854 15.9695 54.999 15.9695 56.4112C15.9695 57.8234 14.8242 58.9685 13.4118 58.9685Z" fill="#FF7D44" fill-opacity="0.4"/>
    <path d="M13.4118 69.7448C11.9993 69.7448 10.8541 68.5998 10.8541 67.1876C10.8541 65.7754 11.9993 64.6304 13.4118 64.6304C14.8242 64.6304 15.9695 65.7754 15.9695 67.1876C15.9695 68.5998 14.8242 69.7448 13.4118 69.7448Z" fill="#FF7D44" fill-opacity="0.4"/>
    <path d="M13.4118 80.5083C11.9993 80.5083 10.8541 79.3632 10.8541 77.951C10.8541 76.5388 11.9993 75.3938 13.4118 75.3938C14.8242 75.3938 15.9695 76.5388 15.9695 77.951C15.9695 79.3632 14.8242 80.5083 13.4118 80.5083Z" fill="#FF7D44" fill-opacity="0.4"/>
    <path d="M13.4118 91.2844C11.9993 91.2844 10.8541 90.1394 10.8541 88.7272C10.8541 87.315 11.9993 86.1699 13.4118 86.1699C14.8242 86.1699 15.9695 87.315 15.9695 88.7272C15.9695 90.1394 14.8242 91.2844 13.4118 91.2844Z" fill="#FF7D44" fill-opacity="0.4"/>
    <path d="M2.55767 5.1144C1.14522 5.1144 -1.97238e-05 3.96936 -1.96621e-05 2.55716C-1.96004e-05 1.14496 1.14522 -1.7354e-07 2.55767 -1.118e-07C3.97012 -5.006e-08 5.11536 1.14496 5.11536 2.55716C5.11536 3.96936 3.97012 5.1144 2.55767 5.1144Z" fill="#FF7D44" fill-opacity="0.4"/>
    <path d="M2.55755 15.8906C1.1451 15.8906 -0.000141794 14.7456 -0.000141732 13.3334C-0.000141671 11.9212 1.1451 10.7761 2.55755 10.7761C3.96999 10.7761 5.11523 11.9212 5.11523 13.3334C5.11523 14.7328 3.96999 15.8906 2.55755 15.8906Z" fill="#FF7D44" fill-opacity="0.4"/>
    <path d="M2.55755 26.6537C1.1451 26.6537 -0.000141794 25.5087 -0.000141732 24.0965C-0.000141671 22.6843 1.1451 21.5393 2.55755 21.5393C3.96999 21.5393 5.11523 22.6843 5.11523 24.0965C5.11523 25.5087 3.96999 26.6537 2.55755 26.6537Z" fill="#FF7D44" fill-opacity="0.4"/>
    <path d="M2.55755 37.4299C1.1451 37.4299 -0.000141794 36.2849 -0.000141732 34.8727C-0.000141671 33.4605 1.1451 32.3154 2.55755 32.3154C3.96999 32.3154 5.11523 33.4605 5.11523 34.8727C5.11523 36.2849 3.96999 37.4299 2.55755 37.4299Z" fill="#FF7D44" fill-opacity="0.4"/>
    <path d="M2.55755 48.1929C1.1451 48.1928 -0.000141794 47.0478 -0.000141732 45.6356C-0.000141671 44.2234 1.1451 43.0784 2.55755 43.0784C3.96999 43.0784 5.11523 44.2234 5.11523 45.6356C5.11523 47.0478 3.96999 48.1929 2.55755 48.1929Z" fill="#FF7D44" fill-opacity="0.4"/>
    <path d="M2.55755 58.9685C1.1451 58.9685 -0.000141794 57.8234 -0.000141732 56.4112C-0.000141671 54.999 1.1451 53.854 2.55755 53.854C3.96999 53.854 5.11523 54.999 5.11523 56.4112C5.11523 57.8234 3.96999 58.9685 2.55755 58.9685Z" fill="#FF7D44" fill-opacity="0.4"/>
    <path d="M2.55755 69.7448C1.1451 69.7448 -0.000141794 68.5998 -0.000141732 67.1876C-0.000141671 65.7754 1.1451 64.6304 2.55755 64.6304C3.96999 64.6304 5.11523 65.7754 5.11523 67.1876C5.11523 68.5998 3.96999 69.7448 2.55755 69.7448Z" fill="#FF7D44" fill-opacity="0.4"/>
    <path d="M2.55755 80.5083C1.1451 80.5083 -0.000141794 79.3632 -0.000141732 77.951C-0.000141671 76.5388 1.1451 75.3938 2.55755 75.3938C3.96999 75.3938 5.11523 76.5388 5.11523 77.951C5.11523 79.3632 3.96999 80.5083 2.55755 80.5083Z" fill="#FF7D44" fill-opacity="0.4"/>
    <path d="M2.55755 91.2844C1.1451 91.2844 -0.000141794 90.1394 -0.000141732 88.7272C-0.000141671 87.315 1.1451 86.1699 2.55755 86.1699C3.96999 86.1699 5.11523 87.315 5.11523 88.7272C5.11523 90.1394 3.96999 91.2844 2.55755 91.2844Z" fill="#FF7D44" fill-opacity="0.4"/>
</svg>
