<svg width="562" height="454" viewBox="0 0 562 454" fill="none" xmlns="http://www.w3.org/2000/svg">
    <path d="M19.2255 68.2837L18 67.2816C18.5093 66.6613 19.0186 66.0409 19.5279 65.4365L20.7534 66.4545C20.2441 67.0589 19.7348 67.6633 19.2255 68.2837Z" fill="#07847F"/>
    <path d="M23.8411 62.8439L22.6474 61.7941C23.7138 60.6012 24.7801 59.4083 25.8624 58.2471L27.0242 59.3287C25.9579 60.4899 24.8915 61.6669 23.8411 62.8439ZM30.3029 55.8931L29.1728 54.7797C30.3029 53.6344 31.4329 52.5051 32.5788 51.3917L33.6929 52.5369C32.547 53.6503 31.417 54.7638 30.3029 55.8931ZM37.1466 49.2762L36.0644 48.0992C37.2421 47.0176 38.4358 45.9519 39.6454 44.9021L40.6958 46.0951C39.5022 47.1449 38.3085 48.2106 37.1466 49.2762ZM44.3087 43.0253L43.2901 41.8005C44.5315 40.7825 45.7729 39.7805 47.0303 38.7943L48.0171 40.0509C46.7756 41.0211 45.5342 42.0073 44.3087 43.0253ZM51.805 37.156L50.8501 35.8835C52.1392 34.9292 53.4284 33.9907 54.7335 33.0841L55.6407 34.3884C54.3674 35.295 53.0783 36.2176 51.805 37.156ZM59.5878 31.7003L58.7124 30.3801C60.0493 29.4894 61.3863 28.6305 62.7391 27.7875L63.5826 29.1395C62.2457 29.9666 60.9088 30.8255 59.5878 31.7003ZM253.091 27.4694C251.738 26.6582 250.37 25.8629 249.001 25.0835L249.781 23.6997C251.165 24.4791 252.534 25.2903 253.903 26.1174L253.091 27.4694ZM67.6411 26.6582L66.8294 25.2903C68.2141 24.4791 69.5988 23.6838 70.9994 22.9044L71.7792 24.2882C70.3946 25.0676 69.0099 25.8629 67.6411 26.6582ZM244.847 22.793C243.446 22.0455 242.046 21.3297 240.629 20.614L241.345 19.1983C242.762 19.9141 244.194 20.6458 245.595 21.3933L244.847 22.793ZM75.9651 22.0455L75.2329 20.6299C76.6494 19.8982 78.0819 19.1665 79.5143 18.4667L80.2146 19.8982C78.7822 20.614 77.3657 21.3138 75.9651 22.0455ZM236.364 18.5462C234.931 17.8781 233.483 17.226 232.035 16.5898L232.671 15.1264C234.136 15.7627 235.584 16.4148 237.032 17.0988L236.364 18.5462ZM84.4959 17.8941L83.8433 16.4466C85.2917 15.7786 86.7559 15.1423 88.2361 14.522L88.8568 15.9854C87.3926 16.5898 85.9442 17.2419 84.4959 17.8941ZM227.658 14.7606C226.194 14.1721 224.713 13.5995 223.233 13.0428L223.79 11.5476C225.286 12.1043 226.767 12.6769 228.247 13.2814L227.658 14.7606ZM93.2495 14.188L92.6607 12.7088C94.1408 12.1202 95.6369 11.5635 97.1489 11.0068L97.69 12.502C96.2099 13.0428 94.7297 13.5995 93.2495 14.188ZM218.777 11.4363C217.281 10.9273 215.785 10.4183 214.273 9.95705L214.75 8.44599C216.278 8.92317 217.79 9.43215 219.302 9.94114L218.777 11.4363ZM102.178 10.9432L101.669 9.43215C103.181 8.92317 104.709 8.44599 106.237 7.96882L106.698 9.49578C105.202 9.95705 103.69 10.4342 102.178 10.9432ZM209.721 8.58915C208.193 8.15969 206.665 7.73023 205.137 7.34849L205.535 5.80563C207.079 6.20327 208.623 6.61682 210.151 7.06219L209.721 8.58915ZM111.266 8.17559L110.836 6.64863C112.38 6.21918 113.924 5.82153 115.468 5.43979L115.85 6.98266C114.322 7.34849 112.794 7.74614 111.266 8.17559ZM200.537 6.21918C198.994 5.86925 197.45 5.53523 195.906 5.21711L196.224 3.65834C197.784 3.97646 199.344 4.31048 200.904 4.67631L200.537 6.21918ZM120.481 5.88516L120.131 4.32638C121.691 3.97646 123.251 3.65834 124.826 3.35613L125.129 4.9149C123.585 5.21711 122.041 5.53523 120.481 5.88516ZM191.243 4.32638C189.683 4.05599 188.123 3.80149 186.563 3.56291L186.802 1.98823C188.378 2.22682 189.953 2.48131 191.529 2.75171L191.243 4.32638ZM129.808 4.07189L129.537 2.49721C131.113 2.24272 132.689 1.98823 134.28 1.76555L134.503 3.34022C132.943 3.57881 131.368 3.8174 129.808 4.07189ZM181.852 2.92667C180.277 2.7358 178.701 2.56084 177.141 2.41769L177.3 0.827103C178.892 0.986161 180.468 1.14522 182.059 1.352L181.852 2.92667ZM139.214 2.75171L139.039 1.17703C140.631 1.00207 142.206 0.843009 143.798 0.699856L143.941 2.29044C142.365 2.41769 140.79 2.57674 139.214 2.75171ZM172.398 2.02004C170.823 1.9087 169.247 1.81326 167.656 1.74964L167.719 0.159058C169.311 0.222682 170.902 0.318117 172.494 0.429457L172.398 2.02004ZM148.668 1.92461L148.573 0.334022C150.164 0.238587 151.756 0.159058 153.363 0.111341L153.427 1.70192C151.835 1.76555 150.26 1.82917 148.668 1.92461ZM162.913 1.62239C161.878 1.60649 160.844 1.59058 159.809 1.59058H158.154L158.138 0H159.793C160.844 0 161.878 0.0159058 162.929 0.0318117L162.913 1.62239Z" fill="#07847F"/>
    <path d="M359.169 260.824L357.578 260.792L357.673 256.084L359.265 256.116L359.169 260.824ZM359.345 251.392L357.753 251.36L357.817 246.652L359.408 246.667L359.345 251.392ZM359.456 241.959L357.864 241.943L357.912 237.235L359.504 237.251L359.456 241.959ZM359.52 232.527H357.928C357.928 230.937 357.944 229.378 357.944 227.819H359.535C359.535 229.362 359.536 230.937 359.52 232.527ZM357.944 223.095C357.944 221.52 357.928 219.946 357.928 218.387L359.52 218.371C359.536 219.93 359.535 221.504 359.535 223.095H357.944ZM357.896 213.663L357.848 208.955L359.44 208.939L359.488 213.663H357.896ZM357.785 204.247C357.753 202.656 357.737 201.097 357.705 199.539L359.297 199.507C359.329 201.066 359.36 202.64 359.376 204.231L357.785 204.247ZM357.594 194.83C357.562 193.24 357.514 191.681 357.466 190.122L359.058 190.075C359.106 191.633 359.138 193.208 359.185 194.783L357.594 194.83ZM357.339 185.398C357.291 183.808 357.228 182.249 357.18 180.69L358.772 180.627C358.835 182.185 358.883 183.76 358.931 185.335L357.339 185.398ZM357.005 175.998C356.941 174.407 356.878 172.849 356.798 171.29L358.39 171.21C358.453 172.769 358.533 174.344 358.596 175.918L357.005 175.998ZM356.575 166.582C356.496 164.991 356.416 163.432 356.321 161.874L357.912 161.778C357.992 163.337 358.087 164.896 358.167 166.486L356.575 166.582ZM356.05 157.181C355.954 155.591 355.859 154.032 355.748 152.489L357.339 152.378C357.451 153.937 357.546 155.495 357.642 157.086L356.05 157.181ZM355.413 147.781C355.302 146.19 355.175 144.632 355.047 143.089L356.639 142.962C356.766 144.504 356.878 146.079 357.005 147.67L355.413 147.781ZM354.665 138.397C354.522 136.822 354.395 135.247 354.236 133.704L355.827 133.561C355.97 135.104 356.114 136.679 356.257 138.269L354.665 138.397ZM353.774 129.012C353.615 127.437 353.456 125.863 353.281 124.336L354.856 124.161C355.031 125.704 355.191 127.262 355.35 128.853L353.774 129.012ZM352.755 119.659C352.564 118.085 352.373 116.526 352.182 114.983L353.758 114.776C353.949 116.319 354.156 117.878 354.331 119.469L352.755 119.659ZM351.546 110.323C351.323 108.748 351.1 107.189 350.877 105.662L352.453 105.424C352.676 106.951 352.899 108.509 353.121 110.1L351.546 110.323ZM350.161 101.018C349.906 99.4432 349.652 97.9003 349.381 96.3734L350.957 96.103C351.227 97.6299 351.482 99.1728 351.737 100.763L350.161 101.018ZM348.554 91.7607C348.251 90.186 347.949 88.659 347.646 87.148L349.206 86.8299C349.509 88.3409 349.811 89.8838 350.113 91.4585L348.554 91.7607ZM346.66 82.5512C346.31 80.9924 345.959 79.4655 345.609 77.9703L347.153 77.6045C347.519 79.0996 347.869 80.6425 348.219 82.2172L346.66 82.5512ZM344.463 73.4212C344.049 71.8625 343.636 70.3673 343.222 68.904L344.75 68.4586C345.18 69.9379 345.593 71.4489 346.007 73.0236L344.463 73.4212ZM341.869 64.4026C341.392 62.8598 340.898 61.3805 340.389 59.949L341.885 59.4241C342.394 60.8716 342.888 62.3667 343.381 63.9255L341.869 64.4026ZM338.781 55.559C338.193 54.048 337.604 52.6164 337.015 51.2326L338.479 50.5964C339.084 51.9961 339.689 53.4594 340.277 54.9864L338.781 55.559ZM335.041 47.0017C334.341 45.5701 333.609 44.1863 332.861 42.8821L334.245 42.1027C334.993 43.4388 335.741 44.8385 336.458 46.3018L335.041 47.0017ZM330.442 38.9056C329.566 37.5695 328.643 36.313 327.72 35.1518L328.961 34.1657C329.916 35.3586 330.855 36.6629 331.763 38.0308L330.442 38.9056ZM280.275 37.2196L279.161 36.0744C280.307 34.961 281.501 33.8794 282.694 32.8614L283.729 34.0702C282.567 35.0723 281.405 36.138 280.275 37.2196ZM324.664 31.7162C323.55 30.6028 322.388 29.5689 321.226 28.6941L322.181 27.4216C323.407 28.3441 324.616 29.4257 325.794 30.5869L324.664 31.7162ZM287.39 31.2072L286.451 29.9188C287.772 28.9645 289.124 28.0737 290.445 27.2784L291.257 28.6463C289.984 29.4257 288.679 30.2846 287.39 31.2072ZM295.379 26.4991L294.727 25.0516C296.239 24.3677 297.751 23.7951 299.231 23.3497L299.692 24.8767C298.276 25.2902 296.812 25.8469 295.379 26.4991ZM317.375 26.2446C316.006 25.5447 314.59 24.9721 313.157 24.5585L313.603 23.0316C315.131 23.461 316.643 24.0655 318.107 24.8289L317.375 26.2446ZM304.165 23.9064L303.958 22.3317C305.597 22.125 307.205 22.0772 308.812 22.1886L308.701 23.7792C307.205 23.6678 305.693 23.7155 304.165 23.9064Z" fill="#07847F"/>
    <path d="M357.43 264.553L357.374 266.938L358.965 266.975L359.021 264.59L357.43 264.553Z" fill="#07847F"/>
    <path d="M361.35 268.618L359.902 267.966C360.554 266.502 361.223 265.071 361.923 263.639L363.355 264.339C362.655 265.755 361.987 267.186 361.35 268.618ZM365.488 260.156L364.087 259.408C364.835 257.993 365.615 256.609 366.395 255.225L367.78 256.02C367 257.388 366.236 258.756 365.488 260.156ZM370.199 251.98L368.846 251.137C369.69 249.785 370.549 248.449 371.44 247.129L372.761 248.02C371.886 249.324 371.043 250.644 370.199 251.98ZM375.467 244.155L374.178 243.216C375.117 241.928 376.056 240.655 377.027 239.415L378.284 240.385C377.329 241.61 376.39 242.866 375.467 244.155ZM381.245 236.711L380.019 235.693C381.038 234.468 382.072 233.275 383.123 232.082L384.316 233.148C383.266 234.325 382.247 235.502 381.245 236.711ZM387.515 229.696L386.369 228.599C387.468 227.453 388.582 226.324 389.728 225.211L390.842 226.34C389.696 227.438 388.598 228.551 387.515 229.696ZM394.248 223.111L393.181 221.934C394.359 220.868 395.553 219.803 396.762 218.785L397.797 219.994C396.587 221.012 395.41 222.045 394.248 223.111ZM401.426 217.003L400.439 215.763C401.68 214.776 402.954 213.806 404.227 212.868L405.182 214.14C403.909 215.079 402.667 216.033 401.426 217.003ZM409.017 211.404L408.11 210.1C409.415 209.194 410.752 208.319 412.089 207.46L412.949 208.796C411.612 209.639 410.307 210.514 409.017 211.404ZM416.959 206.33L416.148 204.963C417.516 204.151 418.901 203.372 420.302 202.609L421.066 204.008C419.681 204.756 418.312 205.519 416.959 206.33ZM425.236 201.797L424.519 200.382C425.936 199.666 427.368 198.982 428.817 198.314L429.485 199.761C428.069 200.413 426.636 201.097 425.236 201.797ZM433.814 197.853L433.193 196.389C434.658 195.769 436.138 195.18 437.618 194.608L438.191 196.087C436.711 196.644 435.263 197.232 433.814 197.853ZM442.631 194.481L442.122 192.97C443.634 192.445 445.146 191.968 446.658 191.49L447.12 193.017C445.608 193.494 444.112 193.972 442.631 194.481ZM451.656 191.729L451.242 190.186C452.786 189.773 454.33 189.391 455.873 189.025L456.239 190.568C454.712 190.934 453.184 191.315 451.656 191.729ZM521.733 191.347C520.205 190.95 518.677 190.584 517.133 190.25L517.483 188.691C519.027 189.041 520.587 189.407 522.131 189.804L521.733 191.347ZM460.855 189.598L460.553 188.039C462.112 187.737 463.688 187.45 465.264 187.196L465.518 188.77C463.959 189.009 462.399 189.279 460.855 189.598ZM512.517 189.311C510.974 189.025 509.414 188.77 507.854 188.532L508.093 186.957C509.669 187.196 511.228 187.45 512.804 187.752L512.517 189.311ZM470.182 188.086L469.975 186.512C471.55 186.305 473.142 186.146 474.734 185.987L474.877 187.577C473.317 187.721 471.741 187.896 470.182 188.086ZM503.175 187.912C501.615 187.737 500.04 187.577 498.48 187.45L498.607 185.86C500.199 185.987 501.774 186.146 503.366 186.321L503.175 187.912ZM479.588 187.228L479.492 185.637C481.084 185.542 482.675 185.478 484.267 185.446L484.299 187.037C482.739 187.069 481.163 187.132 479.588 187.228ZM493.769 187.148C492.193 187.069 490.617 187.037 489.058 187.005L489.074 185.414C490.665 185.43 492.257 185.478 493.848 185.557L493.769 187.148Z" fill="#07847F"/>
    <path d="M352.517 268.904C351.721 267.52 350.909 266.136 350.097 264.784L351.466 263.957C352.294 265.325 353.106 266.709 353.901 268.109L352.517 268.904ZM347.583 260.712C346.723 259.36 345.848 258.024 344.973 256.72L346.294 255.829C347.185 257.165 348.076 258.501 348.936 259.869L347.583 260.712ZM342.251 252.775C341.328 251.471 340.389 250.183 339.434 248.91L340.707 247.956C341.662 249.244 342.617 250.549 343.54 251.853L342.251 252.775ZM336.537 245.109C335.55 243.852 334.548 242.612 333.529 241.371L334.755 240.353C335.773 241.594 336.792 242.85 337.795 244.123L336.537 245.109ZM330.426 237.728C329.375 236.52 328.309 235.327 327.242 234.15L328.42 233.084C329.503 234.277 330.569 235.47 331.635 236.695L330.426 237.728ZM323.964 230.634C322.85 229.473 321.736 228.344 320.606 227.215L321.736 226.085C322.882 227.215 324.012 228.36 325.126 229.537L323.964 230.634ZM317.152 223.89C315.99 222.793 314.812 221.711 313.635 220.646L314.701 219.469C315.895 220.55 317.088 221.632 318.25 222.745L317.152 223.89ZM310.022 217.48C308.812 216.446 307.587 215.413 306.345 214.411L307.348 213.17C308.589 214.188 309.831 215.222 311.056 216.256L310.022 217.48ZM302.589 211.436C301.332 210.466 300.043 209.496 298.769 208.557L299.708 207.269C300.997 208.223 302.287 209.193 303.56 210.18L302.589 211.436ZM294.87 205.774C293.565 204.867 292.244 203.96 290.907 203.086L291.782 201.765C293.119 202.656 294.456 203.547 295.777 204.469L294.87 205.774ZM286.88 200.509C285.527 199.666 284.159 198.839 282.79 198.028L283.602 196.66C284.986 197.471 286.355 198.314 287.724 199.173L286.88 200.509ZM278.652 195.626C277.251 194.846 275.851 194.083 274.45 193.335L275.198 191.936C276.615 192.683 278.031 193.447 279.432 194.242L278.652 195.626ZM270.185 191.156C268.752 190.44 267.32 189.756 265.871 189.088L266.54 187.641C268.004 188.325 269.452 189.025 270.885 189.741L270.185 191.156ZM261.511 187.116C260.046 186.48 258.582 185.86 257.102 185.255L257.707 183.776C259.203 184.38 260.683 185.001 262.147 185.653L261.511 187.116ZM108.003 185.971L107.383 184.508C108.863 183.887 110.359 183.283 111.855 182.694L112.444 184.174C110.948 184.746 109.468 185.351 108.003 185.971ZM252.645 183.506C251.149 182.933 249.653 182.392 248.157 181.867L248.682 180.372C250.194 180.913 251.706 181.454 253.218 182.026L252.645 183.506ZM116.9 182.472L116.359 180.976C117.871 180.42 119.383 179.895 120.911 179.386L121.42 180.897C119.908 181.406 118.396 181.931 116.9 182.472ZM243.621 180.324C242.109 179.831 240.581 179.354 239.053 178.909L239.515 177.382C241.059 177.843 242.587 178.32 244.115 178.813L243.621 180.324ZM125.956 179.434L125.479 177.907C127.023 177.429 128.551 176.968 130.094 176.539L130.524 178.066C129.012 178.495 127.484 178.956 125.956 179.434ZM234.454 177.589C232.91 177.175 231.366 176.777 229.822 176.396L230.204 174.853C231.764 175.234 233.324 175.632 234.868 176.062L234.454 177.589ZM135.172 176.825L134.774 175.282C136.333 174.885 137.893 174.503 139.453 174.137L139.803 175.68C138.259 176.046 136.715 176.427 135.172 176.825ZM225.175 175.314C223.615 174.98 222.055 174.646 220.496 174.344L220.798 172.785C222.374 173.087 223.949 173.421 225.525 173.755L225.175 175.314ZM144.482 174.678L144.164 173.119C145.74 172.801 147.315 172.499 148.907 172.212L149.193 173.771C147.618 174.057 146.042 174.36 144.482 174.678ZM215.785 173.485C214.209 173.214 212.633 172.976 211.058 172.753L211.281 171.178C212.872 171.401 214.464 171.656 216.039 171.926L215.785 173.485ZM153.904 172.992L153.666 171.417C155.257 171.178 156.849 170.956 158.44 170.749L158.647 172.324C157.056 172.53 155.48 172.753 153.904 172.992ZM206.331 172.133C204.755 171.942 203.164 171.767 201.572 171.624L201.715 170.033C203.323 170.176 204.914 170.351 206.506 170.542L206.331 172.133ZM163.39 171.783L163.231 170.192C164.838 170.033 166.43 169.89 168.038 169.763L168.165 171.353C166.557 171.465 164.966 171.608 163.39 171.783ZM196.813 171.226C195.222 171.115 193.63 171.019 192.038 170.956L192.102 169.365C193.71 169.445 195.317 169.524 196.909 169.636L196.813 171.226ZM172.924 171.035L172.844 169.445C174.452 169.365 176.059 169.286 177.667 169.254L177.714 170.844C176.107 170.876 174.515 170.956 172.924 171.035ZM187.264 170.797C185.943 170.765 184.606 170.781 183.285 170.749H182.489V169.158H183.301C184.654 169.174 185.975 169.174 187.311 169.206L187.264 170.797Z" fill="#07847F"/>
    <path d="M200.474 341.212L199.089 340.417C199.885 339.033 200.713 337.681 201.556 336.329L202.909 337.172C202.081 338.508 201.27 339.844 200.474 341.212ZM205.487 333.227L204.166 332.336C205.058 331.016 205.981 329.712 206.904 328.424L208.193 329.362C207.27 330.635 206.379 331.923 205.487 333.227ZM211.042 325.592L209.784 324.606C210.771 323.35 211.774 322.109 212.793 320.9L214.018 321.918C212.999 323.143 212.013 324.368 211.042 325.592ZM217.106 318.387L215.928 317.321C216.994 316.144 218.077 314.983 219.175 313.838L220.321 314.935C219.238 316.065 218.156 317.21 217.106 318.387ZM223.647 311.595L222.533 310.45C223.679 309.337 224.841 308.255 226.019 307.189L227.085 308.366C225.923 309.432 224.777 310.498 223.647 311.595ZM230.634 305.281L229.6 304.072C230.809 303.054 232.051 302.052 233.292 301.066L234.279 302.322C233.053 303.277 231.844 304.263 230.634 305.281ZM238.035 299.459L237.096 298.171C238.385 297.232 239.674 296.31 240.979 295.419L241.871 296.739C240.581 297.614 239.308 298.521 238.035 299.459ZM245.818 294.147L244.958 292.81C246.295 291.967 247.648 291.14 249.017 290.329L249.828 291.697C248.492 292.492 247.139 293.304 245.818 294.147ZM253.935 289.375L253.171 287.975C254.571 287.212 255.972 286.48 257.388 285.78L258.105 287.196C256.704 287.911 255.319 288.627 253.935 289.375ZM262.354 285.176L261.686 283.728C263.134 283.076 264.582 282.44 266.047 281.82L266.651 283.283C265.219 283.887 263.787 284.524 262.354 285.176ZM271.044 281.549L270.487 280.054C271.967 279.497 273.463 278.956 274.959 278.448L275.469 279.959C273.989 280.468 272.508 281.008 271.044 281.549ZM279.957 278.543L279.495 277.016C281.007 276.555 282.535 276.125 284.079 275.728L284.493 277.27C282.965 277.652 281.453 278.082 279.957 278.543ZM289.045 276.125L288.695 274.582C290.238 274.232 291.782 273.898 293.342 273.596L293.644 275.155C292.117 275.457 290.573 275.775 289.045 276.125ZM349.716 276.03C348.172 275.68 346.644 275.362 345.1 275.075L345.402 273.517C346.962 273.803 348.506 274.137 350.066 274.471L349.716 276.03ZM298.276 274.36L298.021 272.785C299.581 272.546 301.157 272.324 302.732 272.133L302.923 273.708C301.379 273.898 299.82 274.105 298.276 274.36ZM340.453 274.28C338.893 274.042 337.333 273.835 335.789 273.644L335.98 272.069C337.556 272.26 339.132 272.467 340.691 272.706L340.453 274.28ZM307.603 273.215L307.459 271.624C309.035 271.481 310.611 271.369 312.202 271.29L312.282 272.88C310.722 272.96 309.162 273.071 307.603 273.215ZM331.11 273.167C329.534 273.04 327.975 272.928 326.415 272.849L326.494 271.258C328.07 271.338 329.662 271.449 331.253 271.576L331.11 273.167ZM316.993 272.706L316.961 271.115C318.553 271.083 320.128 271.083 321.72 271.115L321.688 272.706C320.128 272.674 318.553 272.674 316.993 272.706Z" fill="#07847F"/>
    <path d="M766.214 436.424C765.291 435.104 764.368 433.8 763.445 432.511L764.734 431.589C765.657 432.893 766.58 434.197 767.519 435.517L766.214 436.424ZM760.644 428.614C759.705 427.31 758.766 426.022 757.826 424.733L759.116 423.795C760.055 425.083 760.994 426.372 761.949 427.676L760.644 428.614ZM754.978 420.868C754.023 419.58 753.068 418.291 752.097 417.019L753.37 416.065C754.325 417.337 755.296 418.626 756.251 419.914L754.978 420.868ZM749.2 413.218C748.229 411.945 747.242 410.673 746.272 409.416L747.529 408.446C748.516 409.702 749.487 410.975 750.473 412.247L749.2 413.218ZM743.311 405.63C742.309 404.374 741.322 403.117 740.319 401.877L741.561 400.875C742.563 402.115 743.55 403.372 744.553 404.644L743.311 405.63ZM737.311 398.155C736.293 396.914 735.29 395.673 734.271 394.449L735.497 393.431C736.515 394.655 737.534 395.896 738.537 397.153L737.311 398.155ZM731.199 390.758C730.165 389.534 729.13 388.309 728.096 387.1L729.306 386.066C730.34 387.275 731.375 388.5 732.409 389.741L731.199 390.758ZM724.976 383.458C723.926 382.249 722.876 381.04 721.825 379.847L723.019 378.797C724.069 379.99 725.136 381.199 726.186 382.424L724.976 383.458ZM718.626 376.268C717.56 375.075 716.477 373.882 715.411 372.721L716.589 371.656C717.671 372.833 718.737 374.026 719.82 375.218L718.626 376.268ZM712.164 369.19C711.066 368.013 709.968 366.852 708.886 365.691L710.047 364.593C711.146 365.755 712.244 366.916 713.342 368.109L712.164 369.19ZM705.559 362.223C704.445 361.062 703.331 359.917 702.217 358.788L703.347 357.674C704.461 358.82 705.575 359.965 706.705 361.126L705.559 362.223ZM698.843 355.384C697.713 354.255 696.567 353.125 695.437 352.012L696.551 350.883C697.697 351.996 698.827 353.125 699.973 354.271L698.843 355.384ZM691.999 348.672C690.837 347.558 689.691 346.461 688.529 345.363L689.628 344.202C690.789 345.3 691.951 346.397 693.113 347.526L691.999 348.672ZM685.012 342.103C683.834 341.005 682.657 339.939 681.479 338.874L682.545 337.697C683.723 338.762 684.917 339.844 686.094 340.941L685.012 342.103ZM677.898 335.661C676.688 334.595 675.494 333.545 674.285 332.495L675.319 331.287C676.529 332.336 677.739 333.386 678.932 334.452L677.898 335.661ZM670.656 329.394C669.431 328.36 668.205 327.326 666.98 326.308L667.998 325.083C669.224 326.101 670.449 327.135 671.691 328.169L670.656 329.394ZM663.271 323.27C662.03 322.252 660.772 321.266 659.531 320.28L660.518 319.023C661.775 320.009 663.032 321.011 664.274 322.029L663.271 323.27ZM655.743 317.337C654.47 316.351 653.197 315.397 651.923 314.426L652.878 313.154C654.151 314.108 655.425 315.079 656.714 316.065L655.743 317.337ZM648.088 311.579C646.798 310.625 645.493 309.686 644.204 308.764L645.127 307.476C646.432 308.398 647.722 309.337 649.027 310.291L648.088 311.579ZM640.289 305.996C638.968 305.074 637.647 304.183 636.342 303.292L637.233 301.972C638.554 302.863 639.875 303.77 641.196 304.692L640.289 305.996ZM632.347 300.636C631.01 299.745 629.657 298.886 628.32 298.028L629.18 296.691C630.517 297.55 631.869 298.425 633.222 299.316L632.347 300.636ZM624.262 295.483C622.893 294.64 621.54 293.812 620.171 292.985L620.999 291.617C622.368 292.445 623.737 293.272 625.105 294.131L624.262 295.483ZM616.049 290.536C614.665 289.725 613.28 288.929 611.895 288.15L612.675 286.766C614.06 287.546 615.46 288.341 616.861 289.152L616.049 290.536ZM607.693 285.844C606.277 285.08 604.876 284.317 603.476 283.585L604.224 282.185C605.64 282.933 607.057 283.68 608.473 284.46L607.693 285.844ZM599.21 281.374C597.778 280.642 596.346 279.943 594.913 279.243L595.613 277.811C597.046 278.511 598.478 279.227 599.927 279.958L599.21 281.374ZM590.616 277.175C589.168 276.491 587.703 275.823 586.255 275.171L586.908 273.723C588.372 274.376 589.82 275.044 591.284 275.728L590.616 277.175ZM363.53 274.344L362.83 272.912C364.103 272.276 365.552 271.576 367.191 270.829L367.859 272.276C366.22 273.024 364.788 273.708 363.53 274.344ZM581.878 273.23C580.398 272.594 578.934 271.974 577.469 271.369L578.074 269.906C579.554 270.51 581.019 271.147 582.515 271.783L581.878 273.23ZM372.22 270.32L371.584 268.856C372.984 268.252 374.464 267.631 376.04 266.995L376.645 268.474C375.069 269.111 373.605 269.731 372.22 270.32ZM573.013 269.572C571.517 268.983 570.021 268.411 568.541 267.854L569.098 266.359C570.594 266.916 572.09 267.504 573.586 268.093L573.013 269.572ZM381.085 266.725L380.512 265.246C381.961 264.689 383.473 264.132 385.033 263.576L385.574 265.071C384.03 265.627 382.534 266.184 381.085 266.725ZM564.053 266.2C562.541 265.659 561.029 265.134 559.532 264.625L560.042 263.114C561.554 263.623 563.066 264.148 564.594 264.705L564.053 266.2ZM390.11 263.496L389.6 261.985C391.08 261.492 392.608 260.983 394.184 260.49L394.662 262.001C393.102 262.494 391.59 263.003 390.11 263.496ZM554.981 263.13C553.453 262.637 551.925 262.16 550.413 261.715L550.874 260.188C552.402 260.649 553.93 261.126 555.474 261.619L554.981 263.13ZM399.245 260.617L398.8 259.09C400.312 258.645 401.855 258.199 403.431 257.77L403.845 259.297C402.285 259.742 400.757 260.172 399.245 260.617ZM545.797 260.363C544.253 259.917 542.71 259.504 541.182 259.106L541.595 257.563C543.139 257.977 544.683 258.39 546.243 258.836L545.797 260.363ZM408.492 258.088L408.094 256.545C409.622 256.163 411.182 255.782 412.774 255.4L413.14 256.943C411.564 257.325 410.02 257.706 408.492 258.088ZM536.55 257.913C534.99 257.531 533.431 257.165 531.887 256.816L532.237 255.273C533.797 255.623 535.356 256.004 536.932 256.386L536.55 257.913ZM417.819 255.909L417.485 254.35C419.028 254.016 420.604 253.698 422.212 253.38L422.514 254.939C420.922 255.257 419.363 255.575 417.819 255.909ZM527.208 255.782C525.632 255.448 524.072 255.145 522.512 254.843L522.815 253.284C524.391 253.587 525.95 253.905 527.542 254.223L527.208 255.782ZM427.225 254.08L426.955 252.521C428.514 252.251 430.106 251.98 431.713 251.726L431.952 253.3C430.36 253.539 428.785 253.809 427.225 254.08ZM517.801 253.984C516.226 253.714 514.65 253.459 513.074 253.205L513.313 251.63C514.889 251.869 516.48 252.139 518.072 252.41L517.801 253.984ZM436.695 252.585L436.472 251.01C438.048 250.787 439.639 250.58 441.247 250.39L441.438 251.964C439.846 252.171 438.255 252.378 436.695 252.585ZM508.332 252.521C506.74 252.298 505.148 252.107 503.573 251.917L503.764 250.342C505.355 250.533 506.947 250.724 508.538 250.946L508.332 252.521ZM446.197 251.439L446.037 249.865C447.629 249.706 449.221 249.562 450.844 249.419L450.971 251.01C449.364 251.137 447.772 251.28 446.197 251.439ZM498.814 251.392C497.207 251.233 495.631 251.089 494.039 250.962L494.167 249.372C495.758 249.499 497.35 249.642 498.957 249.801L498.814 251.392ZM455.746 250.644L455.651 249.053C457.242 248.958 458.85 248.863 460.457 248.783L460.521 250.374C458.929 250.453 457.338 250.549 455.746 250.644ZM489.265 250.612C487.657 250.517 486.066 250.421 484.474 250.358L484.554 248.767C486.145 248.831 487.753 248.926 489.36 249.022L489.265 250.612ZM465.327 250.199L465.28 248.608C466.871 248.56 468.479 248.529 470.102 248.513L470.118 250.103C468.51 250.135 466.903 250.167 465.327 250.199ZM479.699 250.199C478.092 250.151 476.5 250.135 474.909 250.119L474.924 248.529C476.516 248.544 478.124 248.576 479.747 248.608L479.699 250.199Z" fill="#07847F"/>
    <path d="M358.199 170.192L358.501 164.737L370.422 166.152L369.833 163.528L359.949 157.627L360.093 140.162L385.749 146.62L385.478 143.566L371.393 134.356L370.852 128.121C370.852 128.121 369.833 127.374 368.416 127.485C367 127.596 366.347 128.28 366.347 128.28L366.602 131.239L357.403 125.211C357.403 125.211 356.957 116.749 356.336 112.995C355.732 109.241 352.66 106.633 352.66 106.633C352.66 106.633 350.082 109.734 350.129 113.536C350.177 117.337 351.196 125.751 351.196 125.751L343.158 133.275L342.904 130.316C342.904 130.316 342.14 129.76 340.739 129.887C339.323 130.014 338.463 130.937 338.463 130.937L339.004 137.172L326.717 148.672L326.988 151.726L351.148 140.957L354.299 158.136L345.577 165.643L345.45 168.331L356.941 164.896L358.199 170.192Z" fill="#07847F"/>
    <path d="M537.967 193.94C537.553 193.94 537.187 193.733 536.964 193.383L528.179 178.845C525.457 174.344 526.157 168.586 529.881 164.864C534.338 160.41 541.58 160.41 546.036 164.864C549.76 168.586 550.461 174.328 547.739 178.845L538.953 193.383C538.762 193.717 538.381 193.94 537.967 193.94ZM530.184 177.636L537.967 190.52L545.749 177.636C547.914 174.057 547.357 169.477 544.397 166.518C540.847 162.971 535.086 162.971 531.537 166.518C528.576 169.477 528.019 174.042 530.184 177.636Z" fill="#07847F"/>
    <path d="M537.967 179.497C534.274 179.497 531.266 176.491 531.266 172.801C531.266 169.111 534.274 166.104 537.967 166.104C541.659 166.104 544.667 169.111 544.667 172.801C544.667 176.491 541.659 179.497 537.967 179.497ZM537.967 168.443C535.563 168.443 533.59 170.399 533.59 172.817C533.59 175.219 535.547 177.191 537.967 177.191C540.37 177.191 542.328 175.234 542.328 172.817C542.343 170.399 540.37 168.443 537.967 168.443Z" fill="#07847F"/>
    <path d="M348.5 257.5L358 274.5L368.5 257.5C368.833 252.833 367.2 243.7 358 244.5C348.8 245.3 347.833 253.5 348.5 257.5Z" fill="white"/>
    <path d="M358.534 275.938C358.12 275.938 357.754 275.731 357.532 275.381L348.746 260.843C346.024 256.342 346.725 250.584 350.449 246.862C354.905 242.408 362.147 242.408 366.604 246.862C370.328 250.584 371.028 256.326 368.306 260.843L359.521 275.381C359.33 275.715 358.948 275.938 358.534 275.938ZM350.751 259.634L358.534 272.518L366.317 259.634C368.482 256.055 367.925 251.474 364.964 248.516C361.415 244.969 355.653 244.969 352.104 248.516C349.144 251.474 348.587 256.039 350.751 259.634Z" fill="#07847F"/>
    <path d="M358.534 261.495C354.842 261.495 351.833 258.489 351.833 254.799C351.833 251.108 354.842 248.102 358.534 248.102C362.226 248.102 365.235 251.108 365.235 254.799C365.25 258.505 362.242 261.495 358.534 261.495ZM358.534 250.44C356.131 250.44 354.157 252.397 354.157 254.815C354.157 257.216 356.115 259.189 358.534 259.189C360.937 259.189 362.895 257.232 362.895 254.815C362.911 252.397 360.953 250.44 358.534 250.44Z" fill="#07847F"/>
    <path d="M94.3636 192.604C93.9498 192.604 93.5838 192.397 93.361 192.047L84.5755 177.509C81.8539 173.008 82.5542 167.25 86.2785 163.528C90.7349 159.074 97.9765 159.074 102.433 163.528C106.157 167.25 106.857 172.992 104.136 177.509L95.3504 192.047C95.1594 192.397 94.7775 192.604 94.3636 192.604ZM86.5809 176.3L94.3636 189.184L102.146 176.3C104.311 172.721 103.754 168.14 100.794 165.182C97.2444 161.635 91.4829 161.635 87.9337 165.182C84.9734 168.14 84.4163 172.721 86.5809 176.3Z" fill="#07847F"/>
    <path d="M94.3637 178.177C90.6712 178.177 87.6631 175.171 87.6631 171.481C87.6631 167.79 90.6712 164.784 94.3637 164.784C98.0561 164.784 101.064 167.79 101.064 171.481C101.064 175.171 98.0561 178.177 94.3637 178.177ZM94.3637 167.106C91.9604 167.106 89.9868 169.063 89.9868 171.481C89.9868 173.882 91.9445 175.855 94.3637 175.855C96.7669 175.855 98.7246 173.898 98.7246 171.481C98.7405 169.063 96.7829 167.106 94.3637 167.106Z" fill="#07847F"/>
    <path d="M268.323 41.5301C267.909 41.5301 267.543 41.3233 267.32 40.9734L258.534 26.4355C255.813 21.9341 256.513 16.1762 260.237 12.4542C264.694 8.00061 271.935 8.00061 276.392 12.4542C280.116 16.1762 280.816 21.9182 278.095 26.4355L269.309 40.9734C269.118 41.3233 268.736 41.5301 268.323 41.5301ZM260.54 25.2266L268.323 38.1103L276.105 25.2266C278.27 21.6478 277.713 17.0669 274.752 14.1084C271.203 10.5614 265.442 10.5614 261.893 14.1084C258.932 17.0669 258.375 21.6478 260.54 25.2266Z" fill="#07847F"/>
    <path d="M268.323 27.1034C264.63 27.1034 261.622 24.0972 261.622 20.407C261.622 16.7169 264.63 13.7107 268.323 13.7107C272.015 13.7107 275.023 16.7169 275.023 20.407C275.023 24.0972 272.031 27.1034 268.323 27.1034ZM268.323 16.0329C265.919 16.0329 263.946 17.9894 263.946 20.407C263.946 22.8088 265.903 24.7811 268.323 24.7811C270.726 24.7811 272.683 22.8247 272.683 20.407C272.699 17.9894 270.742 16.0329 268.323 16.0329Z" fill="#07847F"/>
    <path d="M11.4962 70.6917C11.0824 70.6917 10.7163 70.4849 10.4935 70.135L1.708 55.5971C-1.01359 51.0957 -0.313333 45.3378 3.41095 41.6159C7.86735 37.1622 15.109 37.1622 19.5654 41.6159C23.2897 45.3378 23.99 51.0798 21.2684 55.5971L12.4829 70.135C12.276 70.469 11.8941 70.6917 11.4962 70.6917ZM3.71335 54.3882L11.4962 67.272L19.2789 54.3882C21.4435 50.8094 20.8864 46.2285 17.9261 43.2701C14.3769 39.7231 8.6154 39.7231 5.06619 43.2701C2.10587 46.2285 1.53289 50.7935 3.71335 54.3882Z" fill="#07847F"/>
    <path d="M11.4962 56.2492C7.80371 56.2492 4.79565 53.2429 4.79565 49.5528C4.79565 45.8626 7.80371 42.8564 11.4962 42.8564C15.1886 42.8564 18.1967 45.8626 18.1967 49.5528C18.1967 53.2429 15.1886 56.2492 11.4962 56.2492ZM11.4962 45.1946C9.09289 45.1946 7.11934 47.151 7.11934 49.5687C7.11934 51.9705 9.07697 53.9428 11.4962 53.9428C13.8994 53.9428 15.8571 51.9864 15.8571 49.5687C15.8571 47.151 13.8994 45.1946 11.4962 45.1946Z" fill="#07847F"/>
    <path d="M475.438 125.416C475.024 125.416 474.658 125.209 474.435 124.859L465.649 110.321C462.928 105.82 463.628 100.062 467.352 96.3402C471.809 91.8866 479.05 91.8866 483.507 96.3402C487.231 100.062 487.931 105.804 485.21 110.321L476.424 124.859C476.217 125.193 475.835 125.416 475.438 125.416ZM467.655 109.113L475.438 121.996L483.22 109.113C485.385 105.534 484.828 100.953 481.868 97.9944C478.318 94.4474 472.557 94.4474 469.008 97.9944C466.047 100.953 465.474 105.518 467.655 109.113Z" fill="#07847F"/>
    <path d="M475.438 110.974C471.745 110.974 468.737 107.967 468.737 104.277C468.737 100.587 471.745 97.5808 475.438 97.5808C479.13 97.5808 482.138 100.587 482.138 104.277C482.138 107.967 479.13 110.974 475.438 110.974ZM475.438 99.919C473.034 99.919 471.061 101.875 471.061 104.293C471.061 106.695 473.018 108.667 475.438 108.667C477.841 108.667 479.798 106.711 479.798 104.293C479.798 101.875 477.841 99.919 475.438 99.919Z" fill="#07847F"/>
    <path d="M461.786 95.0781C461.054 94.7918 460.306 94.5214 459.574 94.251L460.115 92.7559C460.863 93.0263 461.627 93.2967 462.375 93.5989L461.786 95.0781Z" fill="#07847F"/>
    <path d="M371.21 118.078L370 117.044C371.066 115.787 372.18 114.547 373.31 113.354L374.456 114.451C373.342 115.628 372.26 116.853 371.21 118.078ZM377.926 111.063L376.844 109.902C378.053 108.789 379.311 107.691 380.584 106.642L381.587 107.866C380.345 108.884 379.12 109.966 377.926 111.063ZM385.454 104.892L384.515 103.604C385.836 102.649 387.221 101.711 388.621 100.82L389.481 102.156C388.112 103.031 386.759 103.954 385.454 104.892ZM393.667 99.6908L392.887 98.2911C394.319 97.4958 395.815 96.7323 397.295 96.0165L397.98 97.4481C396.532 98.1638 395.067 98.9114 393.667 99.6908ZM402.436 95.4917L401.831 94.0124C403.359 93.3921 404.919 92.8195 406.495 92.2946L407.004 93.8056C405.476 94.3305 403.932 94.8872 402.436 95.4917ZM454.942 92.7558C453.382 92.3105 451.807 91.8969 450.231 91.547L450.581 89.9882C452.189 90.3541 453.812 90.7676 455.388 91.2289L454.942 92.7558ZM411.667 92.39L411.254 90.8631C412.845 90.4336 414.469 90.0519 416.076 89.7178L416.394 91.2766C414.819 91.5947 413.227 91.9765 411.667 92.39ZM445.441 90.6245C443.849 90.37 442.226 90.1473 440.618 89.9882L440.777 88.3977C442.417 88.5567 444.072 88.7794 445.695 89.0339L445.441 90.6245ZM421.185 90.4177L420.962 88.843C422.601 88.6044 424.257 88.4136 425.896 88.2863L426.023 89.8769C424.416 90.0041 422.792 90.195 421.185 90.4177ZM435.764 89.6542C434.14 89.5906 432.517 89.5747 430.894 89.6065L430.862 88.0159C432.501 87.9841 434.172 88 435.827 88.0636L435.764 89.6542Z" fill="#07847F"/>
</svg>
