<svg width="92" height="243" viewBox="0 0 92 243" fill="none" xmlns="http://www.w3.org/2000/svg">
    <path d="M89.4423 5.1144C88.0299 5.1144 86.8846 3.96936 86.8846 2.55716C86.8846 1.14496 88.0299 -1.7354e-07 89.4423 -1.118e-07C90.8548 -5.006e-08 92 1.14496 92 2.55716C92 3.96936 90.8548 5.1144 89.4423 5.1144Z" fill="#FF7D44" fill-opacity="0.7"/>
    <path d="M89.4423 15.8908C88.0299 15.8908 86.8846 14.7458 86.8846 13.3336C86.8846 11.9214 88.0299 10.7764 89.4423 10.7764C90.8548 10.7764 92 11.9214 92 13.3336C92 14.7331 90.8548 15.8908 89.4423 15.8908Z" fill="#FF7D44" fill-opacity="0.7"/>
    <path d="M89.4423 26.6535C88.0299 26.6535 86.8846 25.5085 86.8846 24.0963C86.8846 22.6841 88.0299 21.5391 89.4423 21.5391C90.8548 21.5391 92 22.6841 92 24.0963C92 25.5085 90.8548 26.6535 89.4423 26.6535Z" fill="#FF7D44" fill-opacity="0.7"/>
    <path d="M89.4423 37.4299C88.0299 37.4299 86.8846 36.2849 86.8846 34.8727C86.8846 33.4605 88.0299 32.3154 89.4423 32.3154C90.8548 32.3154 92 33.4605 92 34.8727C92 36.2849 90.8548 37.4299 89.4423 37.4299Z" fill="#FF7D44" fill-opacity="0.7"/>
    <path d="M89.4423 48.1931C88.0299 48.1931 86.8846 47.0481 86.8846 45.6359C86.8846 44.2237 88.0299 43.0786 89.4423 43.0786C90.8548 43.0786 92 44.2237 92 45.6359C92 47.0481 90.8548 48.1931 89.4423 48.1931Z" fill="#FF7D44" fill-opacity="0.7"/>
    <path d="M89.4423 58.9685C88.0299 58.9685 86.8846 57.8234 86.8846 56.4112C86.8846 54.999 88.0299 53.854 89.4423 53.854C90.8548 53.854 92 54.999 92 56.4112C92 57.8234 90.8548 58.9685 89.4423 58.9685Z" fill="#FF7D44" fill-opacity="0.7"/>
    <path d="M89.4423 69.7448C88.0299 69.7448 86.8846 68.5998 86.8846 67.1876C86.8846 65.7754 88.0299 64.6304 89.4423 64.6304C90.8548 64.6304 92 65.7754 92 67.1876C92 68.5998 90.8548 69.7448 89.4423 69.7448Z" fill="#FF7D44" fill-opacity="0.7"/>
    <path d="M89.4423 80.508C88.0299 80.508 86.8846 79.363 86.8846 77.9508C86.8846 76.5386 88.0299 75.3936 89.4423 75.3936C90.8548 75.3936 92 76.5386 92 77.9508C92 79.363 90.8548 80.508 89.4423 80.508Z" fill="#FF7D44" fill-opacity="0.7"/>
    <path d="M89.4423 91.2844C88.0299 91.2844 86.8846 90.1394 86.8846 88.7272C86.8846 87.315 88.0299 86.1699 89.4423 86.1699C90.8548 86.1699 92 87.315 92 88.7272C92 90.1394 90.8548 91.2844 89.4423 91.2844Z" fill="#FF7D44" fill-opacity="0.7"/>
    <path d="M89.4423 102.06C88.0299 102.06 86.8846 100.915 86.8846 99.503C86.8846 98.0908 88.0299 96.9458 89.4423 96.9458C90.8548 96.9458 92 98.0908 92 99.503C92 100.903 90.8548 102.06 89.4423 102.06Z" fill="#FF7D44" fill-opacity="0.7"/>
    <path d="M89.4423 112.823C88.0299 112.823 86.8846 111.678 86.8846 110.266C86.8846 108.854 88.0299 107.708 89.4423 107.708C90.8548 107.708 92 108.854 92 110.266C92 111.678 90.8548 112.823 89.4423 112.823Z" fill="#FF7D44" fill-opacity="0.7"/>
    <path d="M89.4423 123.599C88.0299 123.599 86.8846 122.454 86.8846 121.042C86.8846 119.63 88.0299 118.485 89.4423 118.485C90.8548 118.485 92 119.63 92 121.042C92 122.454 90.8548 123.599 89.4423 123.599Z" fill="#FF7D44" fill-opacity="0.7"/>
    <path d="M78.5882 5.1144C77.1757 5.1144 76.0305 3.96936 76.0305 2.55716C76.0305 1.14496 77.1757 -1.7354e-07 78.5882 -1.118e-07C80.0006 -5.006e-08 81.1459 1.14496 81.1459 2.55716C81.1459 3.96936 80.0006 5.1144 78.5882 5.1144Z" fill="#FF7D44" fill-opacity="0.7"/>
    <path d="M78.5881 15.8908C77.1756 15.8908 76.0304 14.7458 76.0304 13.3336C76.0304 11.9214 77.1756 10.7764 78.5881 10.7764C80.0005 10.7764 81.1458 11.9214 81.1458 13.3336C81.1458 14.7331 80.0005 15.8908 78.5881 15.8908Z" fill="#FF7D44" fill-opacity="0.7"/>
    <path d="M78.5881 26.6535C77.1756 26.6535 76.0304 25.5085 76.0304 24.0963C76.0304 22.6841 77.1756 21.5391 78.5881 21.5391C80.0005 21.5391 81.1458 22.6841 81.1458 24.0963C81.1458 25.5085 80.0005 26.6535 78.5881 26.6535Z" fill="#FF7D44" fill-opacity="0.7"/>
    <path d="M78.5881 37.4299C77.1756 37.4299 76.0304 36.2849 76.0304 34.8727C76.0304 33.4605 77.1756 32.3154 78.5881 32.3154C80.0005 32.3154 81.1458 33.4605 81.1458 34.8727C81.1458 36.2849 80.0005 37.4299 78.5881 37.4299Z" fill="#FF7D44" fill-opacity="0.7"/>
    <path d="M78.5881 48.1931C77.1756 48.1931 76.0304 47.0481 76.0304 45.6359C76.0304 44.2237 77.1756 43.0786 78.5881 43.0786C80.0005 43.0786 81.1458 44.2237 81.1458 45.6359C81.1458 47.0481 80.0005 48.1931 78.5881 48.1931Z" fill="#FF7D44" fill-opacity="0.7"/>
    <path d="M78.5881 58.9685C77.1756 58.9685 76.0304 57.8234 76.0304 56.4112C76.0304 54.999 77.1756 53.854 78.5881 53.854C80.0005 53.854 81.1458 54.999 81.1458 56.4112C81.1458 57.8234 80.0005 58.9685 78.5881 58.9685Z" fill="#FF7D44" fill-opacity="0.7"/>
    <path d="M78.5881 69.7448C77.1756 69.7448 76.0304 68.5998 76.0304 67.1876C76.0304 65.7754 77.1756 64.6304 78.5881 64.6304C80.0005 64.6304 81.1458 65.7754 81.1458 67.1876C81.1458 68.5998 80.0005 69.7448 78.5881 69.7448Z" fill="#FF7D44" fill-opacity="0.7"/>
    <path d="M78.5881 80.508C77.1756 80.508 76.0304 79.363 76.0304 77.9508C76.0304 76.5386 77.1756 75.3936 78.5881 75.3936C80.0005 75.3936 81.1458 76.5386 81.1458 77.9508C81.1458 79.363 80.0005 80.508 78.5881 80.508Z" fill="#FF7D44" fill-opacity="0.7"/>
    <path d="M78.5881 91.2844C77.1756 91.2844 76.0304 90.1394 76.0304 88.7272C76.0304 87.315 77.1756 86.1699 78.5881 86.1699C80.0005 86.1699 81.1458 87.315 81.1458 88.7272C81.1458 90.1394 80.0005 91.2844 78.5881 91.2844Z" fill="#FF7D44" fill-opacity="0.7"/>
    <path d="M78.5881 102.06C77.1756 102.06 76.0304 100.915 76.0304 99.503C76.0304 98.0908 77.1756 96.9458 78.5881 96.9458C80.0005 96.9458 81.1458 98.0908 81.1458 99.503C81.1458 100.903 80.0005 102.06 78.5881 102.06Z" fill="#FF7D44" fill-opacity="0.7"/>
    <path d="M78.5881 112.823C77.1756 112.823 76.0304 111.678 76.0304 110.266C76.0304 108.854 77.1756 107.708 78.5881 107.708C80.0005 107.708 81.1458 108.854 81.1458 110.266C81.1458 111.678 80.0005 112.823 78.5881 112.823Z" fill="#FF7D44" fill-opacity="0.7"/>
    <path d="M78.5881 123.599C77.1756 123.599 76.0304 122.454 76.0304 121.042C76.0304 119.63 77.1756 118.485 78.5881 118.485C80.0005 118.485 81.1458 119.63 81.1458 121.042C81.1458 122.454 80.0005 123.599 78.5881 123.599Z" fill="#FF7D44" fill-opacity="0.7"/>
    <path d="M67.7212 5.1144C66.3087 5.1144 65.1635 3.96936 65.1635 2.55716C65.1635 1.14496 66.3087 -1.7354e-07 67.7212 -1.118e-07C69.1336 -5.006e-08 70.2788 1.14496 70.2788 2.55716C70.2788 3.96936 69.1336 5.1144 67.7212 5.1144Z" fill="#FF7D44" fill-opacity="0.7"/>
    <path d="M67.7212 15.8908C66.3087 15.8908 65.1635 14.7458 65.1635 13.3336C65.1635 11.9214 66.3087 10.7764 67.7212 10.7764C69.1336 10.7764 70.2789 11.9214 70.2789 13.3336C70.2789 14.7331 69.1336 15.8908 67.7212 15.8908Z" fill="#FF7D44" fill-opacity="0.7"/>
    <path d="M67.7212 26.6535C66.3087 26.6535 65.1635 25.5085 65.1635 24.0963C65.1635 22.6841 66.3087 21.5391 67.7212 21.5391C69.1336 21.5391 70.2789 22.6841 70.2789 24.0963C70.2789 25.5085 69.1336 26.6535 67.7212 26.6535Z" fill="#FF7D44" fill-opacity="0.7"/>
    <path d="M67.7212 37.4299C66.3087 37.4299 65.1635 36.2849 65.1635 34.8727C65.1635 33.4605 66.3087 32.3154 67.7212 32.3154C69.1336 32.3154 70.2789 33.4605 70.2789 34.8727C70.2789 36.2849 69.1336 37.4299 67.7212 37.4299Z" fill="#FF7D44" fill-opacity="0.7"/>
    <path d="M67.7212 48.1931C66.3087 48.1931 65.1635 47.0481 65.1635 45.6359C65.1635 44.2237 66.3087 43.0786 67.7212 43.0786C69.1336 43.0786 70.2789 44.2237 70.2789 45.6359C70.2789 47.0481 69.1336 48.1931 67.7212 48.1931Z" fill="#FF7D44" fill-opacity="0.7"/>
    <path d="M67.7212 58.9685C66.3087 58.9685 65.1635 57.8234 65.1635 56.4112C65.1635 54.999 66.3087 53.854 67.7212 53.854C69.1336 53.854 70.2789 54.999 70.2789 56.4112C70.2789 57.8234 69.1336 58.9685 67.7212 58.9685Z" fill="#FF7D44" fill-opacity="0.7"/>
    <path d="M67.7212 69.7448C66.3087 69.7448 65.1635 68.5998 65.1635 67.1876C65.1635 65.7754 66.3087 64.6304 67.7212 64.6304C69.1336 64.6304 70.2789 65.7754 70.2789 67.1876C70.2789 68.5998 69.1336 69.7448 67.7212 69.7448Z" fill="#FF7D44" fill-opacity="0.7"/>
    <path d="M67.7212 80.508C66.3087 80.508 65.1635 79.363 65.1635 77.9508C65.1635 76.5386 66.3087 75.3936 67.7212 75.3936C69.1336 75.3936 70.2789 76.5386 70.2789 77.9508C70.2789 79.363 69.1336 80.508 67.7212 80.508Z" fill="#FF7D44" fill-opacity="0.7"/>
    <path d="M67.7212 91.2844C66.3087 91.2844 65.1635 90.1394 65.1635 88.7272C65.1635 87.315 66.3087 86.1699 67.7212 86.1699C69.1336 86.1699 70.2789 87.315 70.2789 88.7272C70.2789 90.1394 69.1336 91.2844 67.7212 91.2844Z" fill="#FF7D44" fill-opacity="0.7"/>
    <path d="M67.7212 102.06C66.3087 102.06 65.1635 100.915 65.1635 99.503C65.1635 98.0908 66.3087 96.9458 67.7212 96.9458C69.1336 96.9458 70.2789 98.0908 70.2789 99.503C70.2789 100.903 69.1336 102.06 67.7212 102.06Z" fill="#FF7D44" fill-opacity="0.7"/>
    <path d="M67.7212 112.823C66.3087 112.823 65.1635 111.678 65.1635 110.266C65.1635 108.854 66.3087 107.708 67.7212 107.708C69.1336 107.708 70.2789 108.854 70.2789 110.266C70.2789 111.678 69.1336 112.823 67.7212 112.823Z" fill="#FF7D44" fill-opacity="0.7"/>
    <path d="M67.7212 123.599C66.3087 123.599 65.1635 122.454 65.1635 121.042C65.1635 119.63 66.3087 118.485 67.7212 118.485C69.1336 118.485 70.2789 119.63 70.2789 121.042C70.2789 122.454 69.1336 123.599 67.7212 123.599Z" fill="#FF7D44" fill-opacity="0.7"/>
    <path d="M56.8543 5.1144C55.4418 5.1144 54.2966 3.96936 54.2966 2.55716C54.2966 1.14496 55.4418 -1.73543e-07 56.8543 -1.11803e-07C58.2667 -5.00629e-08 59.4119 1.14496 59.4119 2.55716C59.4246 3.96936 58.2794 5.1144 56.8543 5.1144Z" fill="#FF7D44" fill-opacity="0.7"/>
    <path d="M56.8542 15.8908C55.4417 15.8908 54.2965 14.7458 54.2965 13.3336C54.2965 11.9214 55.4417 10.7764 56.8542 10.7764C58.2666 10.7764 59.4118 11.9214 59.4118 13.3336C59.4245 14.7331 58.2793 15.8908 56.8542 15.8908Z" fill="#FF7D44" fill-opacity="0.7"/>
    <path d="M56.8542 26.6535C55.4417 26.6535 54.2965 25.5085 54.2965 24.0963C54.2965 22.6841 55.4417 21.5391 56.8542 21.5391C58.2666 21.5391 59.4118 22.6841 59.4118 24.0963C59.4245 25.5085 58.2793 26.6535 56.8542 26.6535Z" fill="#FF7D44" fill-opacity="0.7"/>
    <path d="M56.8542 37.4299C55.4417 37.4299 54.2965 36.2849 54.2965 34.8727C54.2965 33.4605 55.4417 32.3154 56.8542 32.3154C58.2666 32.3154 59.4118 33.4605 59.4118 34.8727C59.4245 36.2849 58.2793 37.4299 56.8542 37.4299Z" fill="#FF7D44" fill-opacity="0.7"/>
    <path d="M56.8541 48.1931C55.4416 48.1931 54.2964 47.0481 54.2964 45.6359C54.2964 44.2237 55.4416 43.0786 56.8541 43.0786C58.2665 43.0786 59.4117 44.2237 59.4117 45.6359C59.4117 47.0481 58.2792 48.1931 56.8541 48.1931Z" fill="#FF7D44" fill-opacity="0.7"/>
    <path d="M56.8542 58.9685C55.4417 58.9685 54.2965 57.8234 54.2965 56.4112C54.2965 54.999 55.4417 53.854 56.8542 53.854C58.2666 53.854 59.4118 54.999 59.4118 56.4112C59.4245 57.8234 58.2793 58.9685 56.8542 58.9685Z" fill="#FF7D44" fill-opacity="0.7"/>
    <path d="M56.8542 69.7448C55.4417 69.7448 54.2965 68.5998 54.2965 67.1876C54.2965 65.7754 55.4417 64.6304 56.8542 64.6304C58.2666 64.6304 59.4118 65.7754 59.4118 67.1876C59.4245 68.5998 58.2793 69.7448 56.8542 69.7448Z" fill="#FF7D44" fill-opacity="0.7"/>
    <path d="M56.8542 80.508C55.4417 80.508 54.2965 79.363 54.2965 77.9508C54.2965 76.5386 55.4417 75.3936 56.8542 75.3936C58.2666 75.3936 59.4118 76.5386 59.4118 77.9508C59.4245 79.363 58.2793 80.508 56.8542 80.508Z" fill="#FF7D44" fill-opacity="0.7"/>
    <path d="M56.8542 91.2844C55.4417 91.2844 54.2965 90.1394 54.2965 88.7272C54.2965 87.315 55.4417 86.1699 56.8542 86.1699C58.2666 86.1699 59.4118 87.315 59.4118 88.7272C59.4245 90.1394 58.2793 91.2844 56.8542 91.2844Z" fill="#FF7D44" fill-opacity="0.7"/>
    <path d="M56.8542 102.06C55.4417 102.06 54.2965 100.915 54.2965 99.503C54.2965 98.0908 55.4417 96.9458 56.8542 96.9458C58.2666 96.9458 59.4118 98.0908 59.4118 99.503C59.4245 100.903 58.2793 102.06 56.8542 102.06Z" fill="#FF7D44" fill-opacity="0.7"/>
    <path d="M56.8541 112.823C55.4416 112.823 54.2964 111.678 54.2964 110.266C54.2964 108.854 55.4416 107.708 56.8541 107.708C58.2665 107.708 59.4117 108.854 59.4117 110.266C59.4117 111.678 58.2792 112.823 56.8541 112.823Z" fill="#FF7D44" fill-opacity="0.7"/>
    <path d="M56.8542 123.599C55.4417 123.599 54.2965 122.454 54.2965 121.042C54.2965 119.63 55.4417 118.485 56.8542 118.485C58.2666 118.485 59.4118 119.63 59.4118 121.042C59.4245 122.454 58.2793 123.599 56.8542 123.599Z" fill="#FF7D44" fill-opacity="0.7"/>
    <path d="M46 5.1144C44.5876 5.1144 43.4423 3.96936 43.4423 2.55716C43.4423 1.14496 44.5876 -1.73538e-07 46 -1.11798e-07C47.4125 -5.00584e-08 48.5577 1.14496 48.5577 2.55716C48.5577 3.96936 47.4125 5.1144 46 5.1144Z" fill="#FF7D44" fill-opacity="0.7"/>
    <path d="M46.0001 15.8908C44.5876 15.8908 43.4424 14.7458 43.4424 13.3336C43.4424 11.9214 44.5876 10.7764 46.0001 10.7764C47.4125 10.7764 48.5577 11.9214 48.5577 13.3336C48.5577 14.7331 47.4125 15.8908 46.0001 15.8908Z" fill="#FF7D44" fill-opacity="0.7"/>
    <path d="M46.0001 26.6535C44.5876 26.6535 43.4424 25.5085 43.4424 24.0963C43.4424 22.6841 44.5876 21.5391 46.0001 21.5391C47.4125 21.5391 48.5577 22.6841 48.5577 24.0963C48.5577 25.5085 47.4125 26.6535 46.0001 26.6535Z" fill="#FF7D44" fill-opacity="0.7"/>
    <path d="M46.0001 37.4299C44.5876 37.4299 43.4424 36.2849 43.4424 34.8727C43.4424 33.4605 44.5876 32.3154 46.0001 32.3154C47.4125 32.3154 48.5577 33.4605 48.5577 34.8727C48.5577 36.2849 47.4125 37.4299 46.0001 37.4299Z" fill="#FF7D44" fill-opacity="0.7"/>
    <path d="M46.0001 48.1931C44.5876 48.1931 43.4424 47.0481 43.4424 45.6359C43.4424 44.2237 44.5876 43.0786 46.0001 43.0786C47.4125 43.0786 48.5577 44.2237 48.5577 45.6359C48.5577 47.0481 47.4125 48.1931 46.0001 48.1931Z" fill="#FF7D44" fill-opacity="0.7"/>
    <path d="M46.0001 58.9685C44.5876 58.9685 43.4424 57.8234 43.4424 56.4112C43.4424 54.999 44.5876 53.854 46.0001 53.854C47.4125 53.854 48.5577 54.999 48.5577 56.4112C48.5577 57.8234 47.4125 58.9685 46.0001 58.9685Z" fill="#FF7D44" fill-opacity="0.7"/>
    <path d="M46.0001 69.7448C44.5876 69.7448 43.4424 68.5998 43.4424 67.1876C43.4424 65.7754 44.5876 64.6304 46.0001 64.6304C47.4125 64.6304 48.5577 65.7754 48.5577 67.1876C48.5577 68.5998 47.4125 69.7448 46.0001 69.7448Z" fill="#FF7D44" fill-opacity="0.7"/>
    <path d="M46.0001 80.508C44.5876 80.508 43.4424 79.363 43.4424 77.9508C43.4424 76.5386 44.5876 75.3936 46.0001 75.3936C47.4125 75.3936 48.5577 76.5386 48.5577 77.9508C48.5577 79.363 47.4125 80.508 46.0001 80.508Z" fill="#FF7D44" fill-opacity="0.7"/>
    <path d="M46.0001 91.2844C44.5876 91.2844 43.4424 90.1394 43.4424 88.7272C43.4424 87.315 44.5876 86.1699 46.0001 86.1699C47.4125 86.1699 48.5577 87.315 48.5577 88.7272C48.5577 90.1394 47.4125 91.2844 46.0001 91.2844Z" fill="#FF7D44" fill-opacity="0.7"/>
    <path d="M46.0001 102.06C44.5876 102.06 43.4424 100.915 43.4424 99.503C43.4424 98.0908 44.5876 96.9458 46.0001 96.9458C47.4125 96.9458 48.5577 98.0908 48.5577 99.503C48.5577 100.903 47.4125 102.06 46.0001 102.06Z" fill="#FF7D44" fill-opacity="0.7"/>
    <path d="M46.0001 112.823C44.5876 112.823 43.4424 111.678 43.4424 110.266C43.4424 108.854 44.5876 107.708 46.0001 107.708C47.4125 107.708 48.5577 108.854 48.5577 110.266C48.5577 111.678 47.4125 112.823 46.0001 112.823Z" fill="#FF7D44" fill-opacity="0.7"/>
    <path d="M46.0001 123.599C44.5876 123.599 43.4424 122.454 43.4424 121.042C43.4424 119.63 44.5876 118.485 46.0001 118.485C47.4125 118.485 48.5577 119.63 48.5577 121.042C48.5577 122.454 47.4125 123.599 46.0001 123.599Z" fill="#FF7D44" fill-opacity="0.7"/>
    <path d="M35.1331 5.1144C33.7207 5.1144 32.5754 3.96936 32.5754 2.55716C32.5754 1.14496 33.7207 -1.73543e-07 35.1331 -1.11803e-07C36.5456 -5.00629e-08 37.6908 1.14496 37.6908 2.55716C37.7035 3.96936 36.5583 5.1144 35.1331 5.1144Z" fill="#FF7D44" fill-opacity="0.7"/>
    <path d="M35.133 15.8908C33.7206 15.8908 32.5754 14.7458 32.5754 13.3336C32.5754 11.9214 33.7206 10.7764 35.133 10.7764C36.5455 10.7764 37.6907 11.9214 37.6907 13.3336C37.7034 14.7331 36.5582 15.8908 35.133 15.8908Z" fill="#FF7D44" fill-opacity="0.7"/>
    <path d="M35.133 26.6535C33.7206 26.6535 32.5754 25.5085 32.5754 24.0963C32.5754 22.6841 33.7206 21.5391 35.133 21.5391C36.5455 21.5391 37.6907 22.6841 37.6907 24.0963C37.7034 25.5085 36.5582 26.6535 35.133 26.6535Z" fill="#FF7D44" fill-opacity="0.7"/>
    <path d="M35.133 37.4299C33.7206 37.4299 32.5754 36.2849 32.5754 34.8727C32.5754 33.4605 33.7206 32.3154 35.133 32.3154C36.5455 32.3154 37.6907 33.4605 37.6907 34.8727C37.7034 36.2849 36.5582 37.4299 35.133 37.4299Z" fill="#FF7D44" fill-opacity="0.7"/>
    <path d="M35.1331 48.1931C33.7207 48.1931 32.5755 47.0481 32.5755 45.6359C32.5755 44.2237 33.7207 43.0786 35.1331 43.0786C36.5456 43.0786 37.6908 44.2237 37.6908 45.6359C37.6908 47.0481 36.5583 48.1931 35.1331 48.1931Z" fill="#FF7D44" fill-opacity="0.7"/>
    <path d="M35.133 58.9685C33.7206 58.9685 32.5754 57.8234 32.5754 56.4112C32.5754 54.999 33.7206 53.854 35.133 53.854C36.5455 53.854 37.6907 54.999 37.6907 56.4112C37.7034 57.8234 36.5582 58.9685 35.133 58.9685Z" fill="#FF7D44" fill-opacity="0.7"/>
    <path d="M35.133 69.7448C33.7206 69.7448 32.5754 68.5998 32.5754 67.1876C32.5754 65.7754 33.7206 64.6304 35.133 64.6304C36.5455 64.6304 37.6907 65.7754 37.6907 67.1876C37.7034 68.5998 36.5582 69.7448 35.133 69.7448Z" fill="#FF7D44" fill-opacity="0.7"/>
    <path d="M35.133 80.508C33.7206 80.508 32.5754 79.363 32.5754 77.9508C32.5754 76.5386 33.7206 75.3936 35.133 75.3936C36.5455 75.3936 37.6907 76.5386 37.6907 77.9508C37.7034 79.363 36.5582 80.508 35.133 80.508Z" fill="#FF7D44" fill-opacity="0.7"/>
    <path d="M35.133 91.2844C33.7206 91.2844 32.5754 90.1394 32.5754 88.7272C32.5754 87.315 33.7206 86.1699 35.133 86.1699C36.5455 86.1699 37.6907 87.315 37.6907 88.7272C37.7034 90.1394 36.5582 91.2844 35.133 91.2844Z" fill="#FF7D44" fill-opacity="0.7"/>
    <path d="M35.133 102.06C33.7206 102.06 32.5754 100.915 32.5754 99.503C32.5754 98.0908 33.7206 96.9458 35.133 96.9458C36.5455 96.9458 37.6907 98.0908 37.6907 99.503C37.7034 100.903 36.5582 102.06 35.133 102.06Z" fill="#FF7D44" fill-opacity="0.7"/>
    <path d="M35.1331 112.823C33.7207 112.823 32.5755 111.678 32.5755 110.266C32.5755 108.854 33.7207 107.708 35.1331 107.708C36.5456 107.708 37.6908 108.854 37.6908 110.266C37.6908 111.678 36.5583 112.823 35.1331 112.823Z" fill="#FF7D44" fill-opacity="0.7"/>
    <path d="M35.133 123.599C33.7206 123.599 32.5754 122.454 32.5754 121.042C32.5754 119.63 33.7206 118.485 35.133 118.485C36.5455 118.485 37.6907 119.63 37.6907 121.042C37.7034 122.454 36.5582 123.599 35.133 123.599Z" fill="#FF7D44" fill-opacity="0.7"/>
    <path d="M24.2789 5.1144C22.8665 5.1144 21.7212 3.96936 21.7212 2.55716C21.7212 1.14496 22.8665 -1.73538e-07 24.2789 -1.11798e-07C25.6913 -5.00584e-08 26.8365 1.14496 26.8365 2.55716C26.8365 3.96936 25.6913 5.1144 24.2789 5.1144Z" fill="#FF7D44" fill-opacity="0.7"/>
    <path d="M24.279 15.8908C22.8665 15.8908 21.7213 14.7458 21.7213 13.3336C21.7213 11.9214 22.8665 10.7764 24.279 10.7764C25.6914 10.7764 26.8366 11.9214 26.8366 13.3336C26.8366 14.7331 25.6914 15.8908 24.279 15.8908Z" fill="#FF7D44" fill-opacity="0.7"/>
    <path d="M24.279 26.6535C22.8665 26.6535 21.7213 25.5085 21.7213 24.0963C21.7213 22.6841 22.8665 21.5391 24.279 21.5391C25.6914 21.5391 26.8366 22.6841 26.8366 24.0963C26.8366 25.5085 25.6914 26.6535 24.279 26.6535Z" fill="#FF7D44" fill-opacity="0.7"/>
    <path d="M24.279 37.4299C22.8665 37.4299 21.7213 36.2849 21.7213 34.8727C21.7213 33.4605 22.8665 32.3154 24.279 32.3154C25.6914 32.3154 26.8366 33.4605 26.8366 34.8727C26.8366 36.2849 25.6914 37.4299 24.279 37.4299Z" fill="#FF7D44" fill-opacity="0.7"/>
    <path d="M24.279 48.1931C22.8665 48.1931 21.7213 47.0481 21.7213 45.6359C21.7213 44.2237 22.8665 43.0786 24.279 43.0786C25.6914 43.0786 26.8366 44.2237 26.8366 45.6359C26.8366 47.0481 25.6914 48.1931 24.279 48.1931Z" fill="#FF7D44" fill-opacity="0.7"/>
    <path d="M24.279 58.9685C22.8665 58.9685 21.7213 57.8234 21.7213 56.4112C21.7213 54.999 22.8665 53.854 24.279 53.854C25.6914 53.854 26.8366 54.999 26.8366 56.4112C26.8366 57.8234 25.6914 58.9685 24.279 58.9685Z" fill="#FF7D44" fill-opacity="0.7"/>
    <path d="M24.279 69.7448C22.8665 69.7448 21.7213 68.5998 21.7213 67.1876C21.7213 65.7754 22.8665 64.6304 24.279 64.6304C25.6914 64.6304 26.8366 65.7754 26.8366 67.1876C26.8366 68.5998 25.6914 69.7448 24.279 69.7448Z" fill="#FF7D44" fill-opacity="0.7"/>
    <path d="M24.279 80.508C22.8665 80.508 21.7213 79.363 21.7213 77.9508C21.7213 76.5386 22.8665 75.3936 24.279 75.3936C25.6914 75.3936 26.8366 76.5386 26.8366 77.9508C26.8366 79.363 25.6914 80.508 24.279 80.508Z" fill="#FF7D44" fill-opacity="0.7"/>
    <path d="M24.279 91.2844C22.8665 91.2844 21.7213 90.1394 21.7213 88.7272C21.7213 87.315 22.8665 86.1699 24.279 86.1699C25.6914 86.1699 26.8366 87.315 26.8366 88.7272C26.8366 90.1394 25.6914 91.2844 24.279 91.2844Z" fill="#FF7D44" fill-opacity="0.7"/>
    <path d="M24.279 102.06C22.8665 102.06 21.7213 100.915 21.7213 99.503C21.7213 98.0908 22.8665 96.9458 24.279 96.9458C25.6914 96.9458 26.8366 98.0908 26.8366 99.503C26.8366 100.903 25.6914 102.06 24.279 102.06Z" fill="#FF7D44" fill-opacity="0.7"/>
    <path d="M24.279 112.823C22.8665 112.823 21.7213 111.678 21.7213 110.266C21.7213 108.854 22.8665 107.708 24.279 107.708C25.6914 107.708 26.8366 108.854 26.8366 110.266C26.8366 111.678 25.6914 112.823 24.279 112.823Z" fill="#FF7D44" fill-opacity="0.7"/>
    <path d="M24.279 123.599C22.8665 123.599 21.7213 122.454 21.7213 121.042C21.7213 119.63 22.8665 118.485 24.279 118.485C25.6914 118.485 26.8366 119.63 26.8366 121.042C26.8366 122.454 25.6914 123.599 24.279 123.599Z" fill="#FF7D44" fill-opacity="0.7"/>
    <path d="M13.4118 5.1144C11.9993 5.1144 10.8541 3.96936 10.8541 2.55716C10.8541 1.14496 11.9993 -1.7354e-07 13.4118 -1.118e-07C14.8242 -5.006e-08 15.9695 1.14496 15.9695 2.55716C15.9695 3.96936 14.8242 5.1144 13.4118 5.1144Z" fill="#FF7D44" fill-opacity="0.7"/>
    <path d="M13.4118 15.8908C11.9993 15.8908 10.8541 14.7458 10.8541 13.3336C10.8541 11.9214 11.9993 10.7764 13.4118 10.7764C14.8242 10.7764 15.9695 11.9214 15.9695 13.3336C15.9695 14.7331 14.8242 15.8908 13.4118 15.8908Z" fill="#FF7D44" fill-opacity="0.7"/>
    <path d="M13.4118 26.6535C11.9993 26.6535 10.8541 25.5085 10.8541 24.0963C10.8541 22.6841 11.9993 21.5391 13.4118 21.5391C14.8242 21.5391 15.9695 22.6841 15.9695 24.0963C15.9695 25.5085 14.8242 26.6535 13.4118 26.6535Z" fill="#FF7D44" fill-opacity="0.7"/>
    <path d="M13.4118 37.4299C11.9993 37.4299 10.8541 36.2849 10.8541 34.8727C10.8541 33.4605 11.9993 32.3154 13.4118 32.3154C14.8242 32.3154 15.9695 33.4605 15.9695 34.8727C15.9695 36.2849 14.8242 37.4299 13.4118 37.4299Z" fill="#FF7D44" fill-opacity="0.7"/>
    <path d="M13.4118 48.1931C11.9993 48.1931 10.8541 47.0481 10.8541 45.6359C10.8541 44.2237 11.9993 43.0786 13.4118 43.0786C14.8242 43.0786 15.9695 44.2237 15.9695 45.6359C15.9695 47.0481 14.8242 48.1931 13.4118 48.1931Z" fill="#FF7D44" fill-opacity="0.7"/>
    <path d="M13.4118 58.9685C11.9993 58.9685 10.8541 57.8234 10.8541 56.4112C10.8541 54.999 11.9993 53.854 13.4118 53.854C14.8242 53.854 15.9695 54.999 15.9695 56.4112C15.9695 57.8234 14.8242 58.9685 13.4118 58.9685Z" fill="#FF7D44" fill-opacity="0.7"/>
    <path d="M13.4118 69.7448C11.9993 69.7448 10.8541 68.5998 10.8541 67.1876C10.8541 65.7754 11.9993 64.6304 13.4118 64.6304C14.8242 64.6304 15.9695 65.7754 15.9695 67.1876C15.9695 68.5998 14.8242 69.7448 13.4118 69.7448Z" fill="#FF7D44" fill-opacity="0.7"/>
    <path d="M13.4118 80.508C11.9993 80.508 10.8541 79.363 10.8541 77.9508C10.8541 76.5386 11.9993 75.3936 13.4118 75.3936C14.8242 75.3936 15.9695 76.5386 15.9695 77.9508C15.9695 79.363 14.8242 80.508 13.4118 80.508Z" fill="#FF7D44" fill-opacity="0.7"/>
    <path d="M13.4118 91.2844C11.9993 91.2844 10.8541 90.1394 10.8541 88.7272C10.8541 87.315 11.9993 86.1699 13.4118 86.1699C14.8242 86.1699 15.9695 87.315 15.9695 88.7272C15.9695 90.1394 14.8242 91.2844 13.4118 91.2844Z" fill="#FF7D44" fill-opacity="0.7"/>
    <path d="M13.4118 102.06C11.9993 102.06 10.8541 100.915 10.8541 99.503C10.8541 98.0908 11.9993 96.9458 13.4118 96.9458C14.8242 96.9458 15.9695 98.0908 15.9695 99.503C15.9695 100.903 14.8242 102.06 13.4118 102.06Z" fill="#FF7D44" fill-opacity="0.7"/>
    <path d="M13.4118 112.823C11.9993 112.823 10.8541 111.678 10.8541 110.266C10.8541 108.854 11.9993 107.708 13.4118 107.708C14.8242 107.708 15.9695 108.854 15.9695 110.266C15.9695 111.678 14.8242 112.823 13.4118 112.823Z" fill="#FF7D44" fill-opacity="0.7"/>
    <path d="M13.4118 123.599C11.9993 123.599 10.8541 122.454 10.8541 121.042C10.8541 119.63 11.9993 118.485 13.4118 118.485C14.8242 118.485 15.9695 119.63 15.9695 121.042C15.9695 122.454 14.8242 123.599 13.4118 123.599Z" fill="#FF7D44" fill-opacity="0.7"/>
    <path d="M2.55767 5.1144C1.14522 5.1144 -1.97238e-05 3.96936 -1.96621e-05 2.55716C-1.96004e-05 1.14496 1.14522 -1.7354e-07 2.55767 -1.118e-07C3.97012 -5.006e-08 5.11536 1.14496 5.11536 2.55716C5.11536 3.96936 3.97012 5.1144 2.55767 5.1144Z" fill="#FF7D44" fill-opacity="0.7"/>
    <path d="M2.55758 15.8908C1.14513 15.8908 -0.000111277 14.7458 -0.000111215 13.3336C-0.000111153 11.9214 1.14513 10.7764 2.55758 10.7764C3.97002 10.7764 5.11526 11.9214 5.11526 13.3336C5.11526 14.7331 3.97002 15.8908 2.55758 15.8908Z" fill="#FF7D44" fill-opacity="0.7"/>
    <path d="M2.55758 26.6535C1.14513 26.6535 -0.000111277 25.5085 -0.000111215 24.0963C-0.000111153 22.6841 1.14513 21.5391 2.55758 21.5391C3.97002 21.5391 5.11526 22.6841 5.11526 24.0963C5.11526 25.5085 3.97002 26.6535 2.55758 26.6535Z" fill="#FF7D44" fill-opacity="0.7"/>
    <path d="M2.55758 37.4299C1.14513 37.4299 -0.000111277 36.2849 -0.000111215 34.8727C-0.000111153 33.4605 1.14513 32.3154 2.55758 32.3154C3.97002 32.3154 5.11526 33.4605 5.11526 34.8727C5.11526 36.2849 3.97002 37.4299 2.55758 37.4299Z" fill="#FF7D44" fill-opacity="0.7"/>
    <path d="M2.55755 48.1931C1.1451 48.1931 -0.000141794 47.0481 -0.000141732 45.6359C-0.000141671 44.2237 1.1451 43.0786 2.55755 43.0786C3.96999 43.0786 5.11523 44.2237 5.11523 45.6359C5.11523 47.0481 3.96999 48.1931 2.55755 48.1931Z" fill="#FF7D44" fill-opacity="0.7"/>
    <path d="M2.55755 58.9685C1.1451 58.9685 -0.000141794 57.8234 -0.000141732 56.4112C-0.000141671 54.999 1.1451 53.854 2.55755 53.854C3.96999 53.854 5.11523 54.999 5.11523 56.4112C5.11523 57.8234 3.96999 58.9685 2.55755 58.9685Z" fill="#FF7D44" fill-opacity="0.7"/>
    <path d="M2.55755 69.7448C1.1451 69.7448 -0.000141794 68.5998 -0.000141732 67.1876C-0.000141671 65.7754 1.1451 64.6304 2.55755 64.6304C3.96999 64.6304 5.11523 65.7754 5.11523 67.1876C5.11523 68.5998 3.96999 69.7448 2.55755 69.7448Z" fill="#FF7D44" fill-opacity="0.7"/>
    <path d="M2.55755 80.508C1.1451 80.508 -0.000141794 79.363 -0.000141732 77.9508C-0.000141671 76.5386 1.1451 75.3936 2.55755 75.3936C3.96999 75.3936 5.11523 76.5386 5.11523 77.9508C5.11523 79.363 3.96999 80.508 2.55755 80.508Z" fill="#FF7D44" fill-opacity="0.7"/>
    <path d="M2.55755 91.2844C1.1451 91.2844 -0.000141794 90.1394 -0.000141732 88.7272C-0.000141671 87.315 1.1451 86.1699 2.55755 86.1699C3.96999 86.1699 5.11523 87.315 5.11523 88.7272C5.11523 90.1394 3.96999 91.2844 2.55755 91.2844Z" fill="#FF7D44" fill-opacity="0.7"/>
    <path d="M2.55755 102.06C1.1451 102.06 -0.000141794 100.915 -0.000141732 99.503C-0.000141671 98.0908 1.1451 96.9458 2.55755 96.9458C3.96999 96.9458 5.11523 98.0908 5.11523 99.503C5.11523 100.903 3.96999 102.06 2.55755 102.06Z" fill="#FF7D44" fill-opacity="0.7"/>
    <path d="M2.55755 112.823C1.1451 112.823 -0.000141794 111.678 -0.000141732 110.266C-0.000141671 108.854 1.1451 107.708 2.55755 107.708C3.96999 107.708 5.11523 108.854 5.11523 110.266C5.11523 111.678 3.96999 112.823 2.55755 112.823Z" fill="#FF7D44" fill-opacity="0.7"/>
    <path d="M2.55755 123.599C1.1451 123.599 -0.000141794 122.454 -0.000141732 121.042C-0.000141671 119.63 1.1451 118.485 2.55755 118.485C3.96999 118.485 5.11523 119.63 5.11523 121.042C5.11523 122.454 3.96999 123.599 2.55755 123.599Z" fill="#FF7D44" fill-opacity="0.7"/>
    <path d="M89.4423 134.363C88.0299 134.363 86.8846 133.217 86.8846 131.805C86.8846 130.393 88.0299 129.248 89.4423 129.248C90.8548 129.248 92 130.393 92 131.805C92 133.217 90.8548 134.363 89.4423 134.363Z" fill="#FF7D44" fill-opacity="0.7"/>
    <path d="M89.4423 145.139C88.0299 145.139 86.8846 143.994 86.8846 142.582C86.8846 141.169 88.0299 140.024 89.4423 140.024C90.8548 140.024 92 141.169 92 142.582C92 143.994 90.8548 145.139 89.4423 145.139Z" fill="#FF7D44" fill-opacity="0.7"/>
    <path d="M89.4423 155.915C88.0299 155.915 86.8846 154.77 86.8846 153.358C86.8846 151.945 88.0299 150.8 89.4423 150.8C90.8548 150.8 92 151.945 92 153.358C92 154.77 90.8548 155.915 89.4423 155.915Z" fill="#FF7D44" fill-opacity="0.7"/>
    <path d="M89.4423 166.677C88.0299 166.677 86.8846 165.532 86.8846 164.12C86.8846 162.708 88.0299 161.563 89.4423 161.563C90.8548 161.563 92 162.708 92 164.12C92 165.532 90.8548 166.677 89.4423 166.677Z" fill="#FF7D44" fill-opacity="0.7"/>
    <path d="M89.4423 177.454C88.0299 177.454 86.8846 176.309 86.8846 174.897C86.8846 173.484 88.0299 172.339 89.4423 172.339C90.8548 172.339 92 173.484 92 174.897C92 176.309 90.8548 177.454 89.4423 177.454Z" fill="#FF7D44" fill-opacity="0.7"/>
    <path d="M89.4423 188.218C88.0299 188.218 86.8846 187.072 86.8846 185.66C86.8846 184.248 88.0299 183.103 89.4423 183.103C90.8548 183.103 92 184.248 92 185.66C92 187.072 90.8548 188.218 89.4423 188.218Z" fill="#FF7D44" fill-opacity="0.7"/>
    <path d="M89.4423 198.993C88.0299 198.993 86.8846 197.848 86.8846 196.436C86.8846 195.023 88.0299 193.878 89.4423 193.878C90.8548 193.878 92 195.023 92 196.436C92 197.848 90.8548 198.993 89.4423 198.993Z" fill="#FF7D44" fill-opacity="0.7"/>
    <path d="M89.4423 209.769C88.0299 209.769 86.8846 208.624 86.8846 207.212C86.8846 205.8 88.0299 204.655 89.4423 204.655C90.8548 204.655 92 205.8 92 207.212C92 208.624 90.8548 209.769 89.4423 209.769Z" fill="#FF7D44" fill-opacity="0.7"/>
    <path d="M89.4423 220.532C88.0299 220.532 86.8846 219.387 86.8846 217.975C86.8846 216.563 88.0299 215.418 89.4423 215.418C90.8548 215.418 92 216.563 92 217.975C92 219.387 90.8548 220.532 89.4423 220.532Z" fill="#FF7D44" fill-opacity="0.7"/>
    <path d="M89.4423 231.308C88.0299 231.308 86.8846 230.163 86.8846 228.751C86.8846 227.339 88.0299 226.194 89.4423 226.194C90.8548 226.194 92 227.339 92 228.751C92 230.163 90.8548 231.308 89.4423 231.308Z" fill="#FF7D44" fill-opacity="0.7"/>
    <path d="M89.4423 242.084C88.0299 242.084 86.8846 240.939 86.8846 239.527C86.8846 238.115 88.0299 236.97 89.4423 236.97C90.8548 236.97 92 238.115 92 239.527C92 240.926 90.8548 242.084 89.4423 242.084Z" fill="#FF7D44" fill-opacity="0.7"/>
    <path d="M78.5882 134.363C77.1757 134.363 76.0305 133.217 76.0305 131.805C76.0305 130.393 77.1757 129.248 78.5882 129.248C80.0006 129.248 81.1459 130.393 81.1459 131.805C81.1459 133.217 80.0006 134.363 78.5882 134.363Z" fill="#FF7D44" fill-opacity="0.7"/>
    <path d="M78.5881 145.139C77.1756 145.139 76.0304 143.994 76.0304 142.582C76.0304 141.169 77.1756 140.024 78.5881 140.024C80.0005 140.024 81.1458 141.169 81.1458 142.582C81.1458 143.994 80.0005 145.139 78.5881 145.139Z" fill="#FF7D44" fill-opacity="0.7"/>
    <path d="M78.5881 155.915C77.1756 155.915 76.0304 154.77 76.0304 153.358C76.0304 151.945 77.1756 150.8 78.5881 150.8C80.0005 150.8 81.1458 151.945 81.1458 153.358C81.1458 154.77 80.0005 155.915 78.5881 155.915Z" fill="#FF7D44" fill-opacity="0.7"/>
    <path d="M78.5881 166.677C77.1756 166.677 76.0304 165.532 76.0304 164.12C76.0304 162.708 77.1756 161.563 78.5881 161.563C80.0005 161.563 81.1458 162.708 81.1458 164.12C81.1458 165.532 80.0005 166.677 78.5881 166.677Z" fill="#FF7D44" fill-opacity="0.7"/>
    <path d="M78.5881 177.454C77.1756 177.454 76.0304 176.309 76.0304 174.897C76.0304 173.484 77.1756 172.339 78.5881 172.339C80.0005 172.339 81.1458 173.484 81.1458 174.897C81.1458 176.309 80.0005 177.454 78.5881 177.454Z" fill="#FF7D44" fill-opacity="0.7"/>
    <path d="M78.5881 188.218C77.1756 188.218 76.0304 187.072 76.0304 185.66C76.0304 184.248 77.1756 183.103 78.5881 183.103C80.0005 183.103 81.1458 184.248 81.1458 185.66C81.1458 187.072 80.0005 188.218 78.5881 188.218Z" fill="#FF7D44" fill-opacity="0.7"/>
    <path d="M78.5881 198.993C77.1756 198.993 76.0304 197.848 76.0304 196.436C76.0304 195.023 77.1756 193.878 78.5881 193.878C80.0005 193.878 81.1458 195.023 81.1458 196.436C81.1458 197.848 80.0005 198.993 78.5881 198.993Z" fill="#FF7D44" fill-opacity="0.7"/>
    <path d="M78.5881 209.769C77.1756 209.769 76.0304 208.624 76.0304 207.212C76.0304 205.8 77.1756 204.655 78.5881 204.655C80.0005 204.655 81.1458 205.8 81.1458 207.212C81.1458 208.624 80.0005 209.769 78.5881 209.769Z" fill="#FF7D44" fill-opacity="0.7"/>
    <path d="M78.5881 220.532C77.1756 220.532 76.0304 219.387 76.0304 217.975C76.0304 216.563 77.1756 215.418 78.5881 215.418C80.0005 215.418 81.1458 216.563 81.1458 217.975C81.1458 219.387 80.0005 220.532 78.5881 220.532Z" fill="#FF7D44" fill-opacity="0.7"/>
    <path d="M78.5881 231.308C77.1756 231.308 76.0304 230.163 76.0304 228.751C76.0304 227.339 77.1756 226.194 78.5881 226.194C80.0005 226.194 81.1458 227.339 81.1458 228.751C81.1458 230.163 80.0005 231.308 78.5881 231.308Z" fill="#FF7D44" fill-opacity="0.7"/>
    <path d="M78.5881 242.084C77.1756 242.084 76.0304 240.939 76.0304 239.527C76.0304 238.115 77.1756 236.97 78.5881 236.97C80.0005 236.97 81.1458 238.115 81.1458 239.527C81.1458 240.926 80.0005 242.084 78.5881 242.084Z" fill="#FF7D44" fill-opacity="0.7"/>
    <path d="M67.7212 134.363C66.3087 134.363 65.1635 133.217 65.1635 131.805C65.1635 130.393 66.3087 129.248 67.7212 129.248C69.1336 129.248 70.2788 130.393 70.2788 131.805C70.2788 133.217 69.1336 134.363 67.7212 134.363Z" fill="#FF7D44" fill-opacity="0.7"/>
    <path d="M67.7212 145.139C66.3087 145.139 65.1635 143.994 65.1635 142.582C65.1635 141.169 66.3087 140.024 67.7212 140.024C69.1336 140.024 70.2789 141.169 70.2789 142.582C70.2789 143.994 69.1336 145.139 67.7212 145.139Z" fill="#FF7D44" fill-opacity="0.7"/>
    <path d="M67.7212 155.915C66.3087 155.915 65.1635 154.77 65.1635 153.358C65.1635 151.945 66.3087 150.8 67.7212 150.8C69.1336 150.8 70.2789 151.945 70.2789 153.358C70.2789 154.77 69.1336 155.915 67.7212 155.915Z" fill="#FF7D44" fill-opacity="0.7"/>
    <path d="M67.7212 166.677C66.3087 166.677 65.1635 165.532 65.1635 164.12C65.1635 162.708 66.3087 161.563 67.7212 161.563C69.1336 161.563 70.2789 162.708 70.2789 164.12C70.2789 165.532 69.1336 166.677 67.7212 166.677Z" fill="#FF7D44" fill-opacity="0.7"/>
    <path d="M67.7212 177.454C66.3087 177.454 65.1635 176.309 65.1635 174.897C65.1635 173.484 66.3087 172.339 67.7212 172.339C69.1336 172.339 70.2789 173.484 70.2789 174.897C70.2789 176.309 69.1336 177.454 67.7212 177.454Z" fill="#FF7D44" fill-opacity="0.7"/>
    <path d="M67.7212 188.218C66.3087 188.218 65.1635 187.072 65.1635 185.66C65.1635 184.248 66.3087 183.103 67.7212 183.103C69.1336 183.103 70.2789 184.248 70.2789 185.66C70.2789 187.072 69.1336 188.218 67.7212 188.218Z" fill="#FF7D44" fill-opacity="0.7"/>
    <path d="M67.7212 198.993C66.3087 198.993 65.1635 197.848 65.1635 196.436C65.1635 195.023 66.3087 193.878 67.7212 193.878C69.1336 193.878 70.2789 195.023 70.2789 196.436C70.2789 197.848 69.1336 198.993 67.7212 198.993Z" fill="#FF7D44" fill-opacity="0.7"/>
    <path d="M67.7212 209.769C66.3087 209.769 65.1635 208.624 65.1635 207.212C65.1635 205.8 66.3087 204.655 67.7212 204.655C69.1336 204.655 70.2789 205.8 70.2789 207.212C70.2789 208.624 69.1336 209.769 67.7212 209.769Z" fill="#FF7D44" fill-opacity="0.7"/>
    <path d="M67.7212 220.532C66.3087 220.532 65.1635 219.387 65.1635 217.975C65.1635 216.563 66.3087 215.418 67.7212 215.418C69.1336 215.418 70.2789 216.563 70.2789 217.975C70.2789 219.387 69.1336 220.532 67.7212 220.532Z" fill="#FF7D44" fill-opacity="0.7"/>
    <path d="M67.7212 231.308C66.3087 231.308 65.1635 230.163 65.1635 228.751C65.1635 227.339 66.3087 226.194 67.7212 226.194C69.1336 226.194 70.2789 227.339 70.2789 228.751C70.2789 230.163 69.1336 231.308 67.7212 231.308Z" fill="#FF7D44" fill-opacity="0.7"/>
    <path d="M67.7212 242.084C66.3087 242.084 65.1635 240.939 65.1635 239.527C65.1635 238.115 66.3087 236.97 67.7212 236.97C69.1336 236.97 70.2789 238.115 70.2789 239.527C70.2789 240.926 69.1336 242.084 67.7212 242.084Z" fill="#FF7D44" fill-opacity="0.7"/>
    <path d="M56.8543 134.363C55.4418 134.363 54.2966 133.217 54.2966 131.805C54.2966 130.393 55.4418 129.248 56.8543 129.248C58.2667 129.248 59.4119 130.393 59.4119 131.805C59.4246 133.217 58.2794 134.363 56.8543 134.363Z" fill="#FF7D44" fill-opacity="0.7"/>
    <path d="M56.8542 145.139C55.4417 145.139 54.2965 143.994 54.2965 142.582C54.2965 141.169 55.4417 140.024 56.8542 140.024C58.2666 140.024 59.4118 141.169 59.4118 142.582C59.4245 143.994 58.2793 145.139 56.8542 145.139Z" fill="#FF7D44" fill-opacity="0.7"/>
    <path d="M56.8542 155.915C55.4417 155.915 54.2965 154.77 54.2965 153.358C54.2965 151.945 55.4417 150.8 56.8542 150.8C58.2666 150.8 59.4118 151.945 59.4118 153.358C59.4245 154.77 58.2793 155.915 56.8542 155.915Z" fill="#FF7D44" fill-opacity="0.7"/>
    <path d="M56.8542 166.677C55.4417 166.677 54.2965 165.532 54.2965 164.12C54.2965 162.708 55.4417 161.563 56.8542 161.563C58.2666 161.563 59.4118 162.708 59.4118 164.12C59.4245 165.532 58.2793 166.677 56.8542 166.677Z" fill="#FF7D44" fill-opacity="0.7"/>
    <path d="M56.8542 177.454C55.4417 177.454 54.2965 176.309 54.2965 174.897C54.2965 173.484 55.4417 172.339 56.8542 172.339C58.2666 172.339 59.4118 173.484 59.4118 174.897C59.4245 176.309 58.2793 177.454 56.8542 177.454Z" fill="#FF7D44" fill-opacity="0.7"/>
    <path d="M56.8542 188.218C55.4417 188.218 54.2965 187.072 54.2965 185.66C54.2965 184.248 55.4417 183.103 56.8542 183.103C58.2666 183.103 59.4118 184.248 59.4118 185.66C59.4245 187.072 58.2793 188.218 56.8542 188.218Z" fill="#FF7D44" fill-opacity="0.7"/>
    <path d="M56.8542 198.993C55.4417 198.993 54.2965 197.848 54.2965 196.436C54.2965 195.023 55.4417 193.878 56.8542 193.878C58.2666 193.878 59.4118 195.023 59.4118 196.436C59.4245 197.848 58.2793 198.993 56.8542 198.993Z" fill="#FF7D44" fill-opacity="0.7"/>
    <path d="M56.8542 209.769C55.4417 209.769 54.2965 208.624 54.2965 207.212C54.2965 205.8 55.4417 204.655 56.8542 204.655C58.2666 204.655 59.4118 205.8 59.4118 207.212C59.4245 208.624 58.2793 209.769 56.8542 209.769Z" fill="#FF7D44" fill-opacity="0.7"/>
    <path d="M56.8541 220.532C55.4416 220.532 54.2964 219.387 54.2964 217.975C54.2964 216.563 55.4416 215.418 56.8541 215.418C58.2665 215.418 59.4117 216.563 59.4117 217.975C59.4117 219.387 58.2792 220.532 56.8541 220.532Z" fill="#FF7D44" fill-opacity="0.7"/>
    <path d="M56.8542 231.308C55.4417 231.308 54.2965 230.163 54.2965 228.751C54.2965 227.339 55.4417 226.194 56.8542 226.194C58.2666 226.194 59.4118 227.339 59.4118 228.751C59.4245 230.163 58.2793 231.308 56.8542 231.308Z" fill="#FF7D44" fill-opacity="0.7"/>
    <path d="M56.8542 242.084C55.4417 242.084 54.2965 240.939 54.2965 239.527C54.2965 238.115 55.4417 236.97 56.8542 236.97C58.2666 236.97 59.4118 238.115 59.4118 239.527C59.4245 240.926 58.2793 242.084 56.8542 242.084Z" fill="#FF7D44" fill-opacity="0.7"/>
    <path d="M46 134.363C44.5876 134.363 43.4423 133.217 43.4423 131.805C43.4423 130.393 44.5876 129.248 46 129.248C47.4125 129.248 48.5577 130.393 48.5577 131.805C48.5577 133.217 47.4125 134.363 46 134.363Z" fill="#FF7D44" fill-opacity="0.7"/>
    <path d="M46.0001 145.139C44.5876 145.139 43.4424 143.994 43.4424 142.582C43.4424 141.169 44.5876 140.024 46.0001 140.024C47.4125 140.024 48.5577 141.169 48.5577 142.582C48.5577 143.994 47.4125 145.139 46.0001 145.139Z" fill="#FF7D44" fill-opacity="0.7"/>
    <path d="M46.0001 155.915C44.5876 155.915 43.4424 154.77 43.4424 153.358C43.4424 151.945 44.5876 150.8 46.0001 150.8C47.4125 150.8 48.5577 151.945 48.5577 153.358C48.5577 154.77 47.4125 155.915 46.0001 155.915Z" fill="#FF7D44" fill-opacity="0.7"/>
    <path d="M46.0001 166.677C44.5876 166.677 43.4424 165.532 43.4424 164.12C43.4424 162.708 44.5876 161.563 46.0001 161.563C47.4125 161.563 48.5577 162.708 48.5577 164.12C48.5577 165.532 47.4125 166.677 46.0001 166.677Z" fill="#FF7D44" fill-opacity="0.7"/>
    <path d="M46.0001 177.454C44.5876 177.454 43.4424 176.309 43.4424 174.897C43.4424 173.484 44.5876 172.339 46.0001 172.339C47.4125 172.339 48.5577 173.484 48.5577 174.897C48.5577 176.309 47.4125 177.454 46.0001 177.454Z" fill="#FF7D44" fill-opacity="0.7"/>
    <path d="M46.0001 188.218C44.5876 188.218 43.4424 187.072 43.4424 185.66C43.4424 184.248 44.5876 183.103 46.0001 183.103C47.4125 183.103 48.5577 184.248 48.5577 185.66C48.5577 187.072 47.4125 188.218 46.0001 188.218Z" fill="#FF7D44" fill-opacity="0.7"/>
    <path d="M46.0001 198.993C44.5876 198.993 43.4424 197.848 43.4424 196.436C43.4424 195.023 44.5876 193.878 46.0001 193.878C47.4125 193.878 48.5577 195.023 48.5577 196.436C48.5577 197.848 47.4125 198.993 46.0001 198.993Z" fill="#FF7D44" fill-opacity="0.7"/>
    <path d="M46.0001 209.769C44.5876 209.769 43.4424 208.624 43.4424 207.212C43.4424 205.8 44.5876 204.655 46.0001 204.655C47.4125 204.655 48.5577 205.8 48.5577 207.212C48.5577 208.624 47.4125 209.769 46.0001 209.769Z" fill="#FF7D44" fill-opacity="0.7"/>
    <path d="M46.0001 220.532C44.5876 220.532 43.4424 219.387 43.4424 217.975C43.4424 216.563 44.5876 215.418 46.0001 215.418C47.4125 215.418 48.5577 216.563 48.5577 217.975C48.5577 219.387 47.4125 220.532 46.0001 220.532Z" fill="#FF7D44" fill-opacity="0.7"/>
    <path d="M46.0001 231.308C44.5876 231.308 43.4424 230.163 43.4424 228.751C43.4424 227.339 44.5876 226.194 46.0001 226.194C47.4125 226.194 48.5577 227.339 48.5577 228.751C48.5577 230.163 47.4125 231.308 46.0001 231.308Z" fill="#FF7D44" fill-opacity="0.7"/>
    <path d="M46.0001 242.084C44.5876 242.084 43.4424 240.939 43.4424 239.527C43.4424 238.115 44.5876 236.97 46.0001 236.97C47.4125 236.97 48.5577 238.115 48.5577 239.527C48.5577 240.926 47.4125 242.084 46.0001 242.084Z" fill="#FF7D44" fill-opacity="0.7"/>
    <path d="M35.1331 134.363C33.7207 134.363 32.5754 133.217 32.5754 131.805C32.5754 130.393 33.7207 129.248 35.1331 129.248C36.5456 129.248 37.6908 130.393 37.6908 131.805C37.7035 133.217 36.5583 134.363 35.1331 134.363Z" fill="#FF7D44" fill-opacity="0.7"/>
    <path d="M35.133 145.139C33.7206 145.139 32.5754 143.994 32.5754 142.582C32.5754 141.169 33.7206 140.024 35.133 140.024C36.5455 140.024 37.6907 141.169 37.6907 142.582C37.7034 143.994 36.5582 145.139 35.133 145.139Z" fill="#FF7D44" fill-opacity="0.7"/>
    <path d="M35.133 155.915C33.7206 155.915 32.5754 154.77 32.5754 153.358C32.5754 151.945 33.7206 150.8 35.133 150.8C36.5455 150.8 37.6907 151.945 37.6907 153.358C37.7034 154.77 36.5582 155.915 35.133 155.915Z" fill="#FF7D44" fill-opacity="0.7"/>
    <path d="M35.133 166.677C33.7206 166.677 32.5754 165.532 32.5754 164.12C32.5754 162.708 33.7206 161.563 35.133 161.563C36.5455 161.563 37.6907 162.708 37.6907 164.12C37.7034 165.532 36.5582 166.677 35.133 166.677Z" fill="#FF7D44" fill-opacity="0.7"/>
    <path d="M35.133 177.454C33.7206 177.454 32.5754 176.309 32.5754 174.897C32.5754 173.484 33.7206 172.339 35.133 172.339C36.5455 172.339 37.6907 173.484 37.6907 174.897C37.7034 176.309 36.5582 177.454 35.133 177.454Z" fill="#FF7D44" fill-opacity="0.7"/>
    <path d="M35.133 188.218C33.7206 188.218 32.5754 187.072 32.5754 185.66C32.5754 184.248 33.7206 183.103 35.133 183.103C36.5455 183.103 37.6907 184.248 37.6907 185.66C37.7034 187.072 36.5582 188.218 35.133 188.218Z" fill="#FF7D44" fill-opacity="0.7"/>
    <path d="M35.133 198.993C33.7206 198.993 32.5754 197.848 32.5754 196.436C32.5754 195.023 33.7206 193.878 35.133 193.878C36.5455 193.878 37.6907 195.023 37.6907 196.436C37.7034 197.848 36.5582 198.993 35.133 198.993Z" fill="#FF7D44" fill-opacity="0.7"/>
    <path d="M35.133 209.769C33.7206 209.769 32.5754 208.624 32.5754 207.212C32.5754 205.8 33.7206 204.655 35.133 204.655C36.5455 204.655 37.6907 205.8 37.6907 207.212C37.7034 208.624 36.5582 209.769 35.133 209.769Z" fill="#FF7D44" fill-opacity="0.7"/>
    <path d="M35.1331 220.532C33.7207 220.532 32.5755 219.387 32.5755 217.975C32.5755 216.563 33.7207 215.418 35.1331 215.418C36.5456 215.418 37.6908 216.563 37.6908 217.975C37.6908 219.387 36.5583 220.532 35.1331 220.532Z" fill="#FF7D44" fill-opacity="0.7"/>
    <path d="M35.133 231.308C33.7206 231.308 32.5754 230.163 32.5754 228.751C32.5754 227.339 33.7206 226.194 35.133 226.194C36.5455 226.194 37.6907 227.339 37.6907 228.751C37.7034 230.163 36.5582 231.308 35.133 231.308Z" fill="#FF7D44" fill-opacity="0.7"/>
    <path d="M35.133 242.084C33.7206 242.084 32.5754 240.939 32.5754 239.527C32.5754 238.115 33.7206 236.97 35.133 236.97C36.5455 236.97 37.6907 238.115 37.6907 239.527C37.7034 240.926 36.5582 242.084 35.133 242.084Z" fill="#FF7D44" fill-opacity="0.7"/>
    <path d="M24.2789 134.363C22.8664 134.363 21.7212 133.217 21.7212 131.805C21.7212 130.393 22.8664 129.248 24.2789 129.248C25.6913 129.248 26.8365 130.393 26.8365 131.805C26.8365 133.217 25.6913 134.363 24.2789 134.363Z" fill="#FF7D44" fill-opacity="0.7"/>
    <path d="M24.279 145.139C22.8665 145.139 21.7213 143.994 21.7213 142.582C21.7213 141.169 22.8665 140.024 24.279 140.024C25.6914 140.024 26.8366 141.169 26.8366 142.582C26.8366 143.994 25.6914 145.139 24.279 145.139Z" fill="#FF7D44" fill-opacity="0.7"/>
    <path d="M24.279 155.915C22.8665 155.915 21.7213 154.77 21.7213 153.358C21.7213 151.945 22.8665 150.8 24.279 150.8C25.6914 150.8 26.8366 151.945 26.8366 153.358C26.8366 154.77 25.6914 155.915 24.279 155.915Z" fill="#FF7D44" fill-opacity="0.7"/>
    <path d="M24.279 166.677C22.8665 166.677 21.7213 165.532 21.7213 164.12C21.7213 162.708 22.8665 161.563 24.279 161.563C25.6914 161.563 26.8366 162.708 26.8366 164.12C26.8366 165.532 25.6914 166.677 24.279 166.677Z" fill="#FF7D44" fill-opacity="0.7"/>
    <path d="M24.279 177.454C22.8665 177.454 21.7213 176.309 21.7213 174.897C21.7213 173.484 22.8665 172.339 24.279 172.339C25.6914 172.339 26.8366 173.484 26.8366 174.897C26.8366 176.309 25.6914 177.454 24.279 177.454Z" fill="#FF7D44" fill-opacity="0.7"/>
    <path d="M24.279 188.218C22.8665 188.218 21.7213 187.072 21.7213 185.66C21.7213 184.248 22.8665 183.103 24.279 183.103C25.6914 183.103 26.8366 184.248 26.8366 185.66C26.8366 187.072 25.6914 188.218 24.279 188.218Z" fill="#FF7D44" fill-opacity="0.7"/>
    <path d="M24.279 198.993C22.8665 198.993 21.7213 197.848 21.7213 196.436C21.7213 195.023 22.8665 193.878 24.279 193.878C25.6914 193.878 26.8366 195.023 26.8366 196.436C26.8366 197.848 25.6914 198.993 24.279 198.993Z" fill="#FF7D44" fill-opacity="0.7"/>
    <path d="M24.279 209.769C22.8665 209.769 21.7213 208.624 21.7213 207.212C21.7213 205.8 22.8665 204.655 24.279 204.655C25.6914 204.655 26.8366 205.8 26.8366 207.212C26.8366 208.624 25.6914 209.769 24.279 209.769Z" fill="#FF7D44" fill-opacity="0.7"/>
    <path d="M24.279 220.532C22.8665 220.532 21.7213 219.387 21.7213 217.975C21.7213 216.563 22.8665 215.418 24.279 215.418C25.6914 215.418 26.8366 216.563 26.8366 217.975C26.8366 219.387 25.6914 220.532 24.279 220.532Z" fill="#FF7D44" fill-opacity="0.7"/>
    <path d="M24.279 231.308C22.8665 231.308 21.7213 230.163 21.7213 228.751C21.7213 227.339 22.8665 226.194 24.279 226.194C25.6914 226.194 26.8366 227.339 26.8366 228.751C26.8366 230.163 25.6914 231.308 24.279 231.308Z" fill="#FF7D44" fill-opacity="0.7"/>
    <path d="M24.279 242.084C22.8665 242.084 21.7213 240.939 21.7213 239.527C21.7213 238.115 22.8665 236.97 24.279 236.97C25.6914 236.97 26.8366 238.115 26.8366 239.527C26.8366 240.926 25.6914 242.084 24.279 242.084Z" fill="#FF7D44" fill-opacity="0.7"/>
    <path d="M13.4118 134.363C11.9993 134.363 10.8541 133.217 10.8541 131.805C10.8541 130.393 11.9993 129.248 13.4118 129.248C14.8242 129.248 15.9695 130.393 15.9695 131.805C15.9695 133.217 14.8242 134.363 13.4118 134.363Z" fill="#FF7D44" fill-opacity="0.7"/>
    <path d="M13.4118 145.139C11.9993 145.139 10.8541 143.994 10.8541 142.582C10.8541 141.169 11.9993 140.024 13.4118 140.024C14.8242 140.024 15.9695 141.169 15.9695 142.582C15.9695 143.994 14.8242 145.139 13.4118 145.139Z" fill="#FF7D44" fill-opacity="0.7"/>
    <path d="M13.4118 155.915C11.9993 155.915 10.8541 154.77 10.8541 153.358C10.8541 151.945 11.9993 150.8 13.4118 150.8C14.8242 150.8 15.9695 151.945 15.9695 153.358C15.9695 154.77 14.8242 155.915 13.4118 155.915Z" fill="#FF7D44" fill-opacity="0.7"/>
    <path d="M13.4118 166.677C11.9993 166.677 10.8541 165.532 10.8541 164.12C10.8541 162.708 11.9993 161.563 13.4118 161.563C14.8242 161.563 15.9695 162.708 15.9695 164.12C15.9695 165.532 14.8242 166.677 13.4118 166.677Z" fill="#FF7D44" fill-opacity="0.7"/>
    <path d="M13.4118 177.454C11.9993 177.454 10.8541 176.309 10.8541 174.897C10.8541 173.484 11.9993 172.339 13.4118 172.339C14.8242 172.339 15.9695 173.484 15.9695 174.897C15.9695 176.309 14.8242 177.454 13.4118 177.454Z" fill="#FF7D44" fill-opacity="0.7"/>
    <path d="M13.4118 188.218C11.9993 188.218 10.8541 187.072 10.8541 185.66C10.8541 184.248 11.9993 183.103 13.4118 183.103C14.8242 183.103 15.9695 184.248 15.9695 185.66C15.9695 187.072 14.8242 188.218 13.4118 188.218Z" fill="#FF7D44" fill-opacity="0.7"/>
    <path d="M13.4118 198.993C11.9993 198.993 10.8541 197.848 10.8541 196.436C10.8541 195.023 11.9993 193.878 13.4118 193.878C14.8242 193.878 15.9695 195.023 15.9695 196.436C15.9695 197.848 14.8242 198.993 13.4118 198.993Z" fill="#FF7D44" fill-opacity="0.7"/>
    <path d="M13.4118 209.769C11.9993 209.769 10.8541 208.624 10.8541 207.212C10.8541 205.8 11.9993 204.655 13.4118 204.655C14.8242 204.655 15.9695 205.8 15.9695 207.212C15.9695 208.624 14.8242 209.769 13.4118 209.769Z" fill="#FF7D44" fill-opacity="0.7"/>
    <path d="M13.4118 220.532C11.9993 220.532 10.8541 219.387 10.8541 217.975C10.8541 216.563 11.9993 215.418 13.4118 215.418C14.8242 215.418 15.9695 216.563 15.9695 217.975C15.9695 219.387 14.8242 220.532 13.4118 220.532Z" fill="#FF7D44" fill-opacity="0.7"/>
    <path d="M13.4118 231.308C11.9993 231.308 10.8541 230.163 10.8541 228.751C10.8541 227.339 11.9993 226.194 13.4118 226.194C14.8242 226.194 15.9695 227.339 15.9695 228.751C15.9695 230.163 14.8242 231.308 13.4118 231.308Z" fill="#FF7D44" fill-opacity="0.7"/>
    <path d="M13.4118 242.084C11.9993 242.084 10.8541 240.939 10.8541 239.527C10.8541 238.115 11.9993 236.97 13.4118 236.97C14.8242 236.97 15.9695 238.115 15.9695 239.527C15.9695 240.926 14.8242 242.084 13.4118 242.084Z" fill="#FF7D44" fill-opacity="0.7"/>
    <path d="M2.55767 134.363C1.14522 134.363 -1.97238e-05 133.217 -1.96621e-05 131.805C-1.96004e-05 130.393 1.14522 129.248 2.55767 129.248C3.97012 129.248 5.11536 130.393 5.11536 131.805C5.11536 133.217 3.97012 134.363 2.55767 134.363Z" fill="#FF7D44" fill-opacity="0.7"/>
    <path d="M2.55758 145.139C1.14513 145.139 -0.000111277 143.994 -0.000111215 142.582C-0.000111153 141.169 1.14513 140.024 2.55758 140.024C3.97002 140.024 5.11526 141.169 5.11526 142.582C5.11526 143.994 3.97002 145.139 2.55758 145.139Z" fill="#FF7D44" fill-opacity="0.7"/>
    <path d="M2.55758 155.915C1.14513 155.915 -0.000111277 154.77 -0.000111215 153.358C-0.000111153 151.945 1.14513 150.8 2.55758 150.8C3.97002 150.8 5.11526 151.945 5.11526 153.358C5.11526 154.77 3.97002 155.915 2.55758 155.915Z" fill="#FF7D44" fill-opacity="0.7"/>
    <path d="M2.55758 166.677C1.14513 166.677 -0.000111277 165.532 -0.000111215 164.12C-0.000111153 162.708 1.14513 161.563 2.55758 161.563C3.97002 161.563 5.11526 162.708 5.11526 164.12C5.11526 165.532 3.97002 166.677 2.55758 166.677Z" fill="#FF7D44" fill-opacity="0.7"/>
    <path d="M2.55755 177.454C1.1451 177.454 -0.000141794 176.309 -0.000141732 174.897C-0.000141671 173.484 1.1451 172.339 2.55755 172.339C3.96999 172.339 5.11523 173.484 5.11523 174.897C5.11523 176.309 3.96999 177.454 2.55755 177.454Z" fill="#FF7D44" fill-opacity="0.7"/>
    <path d="M2.55755 188.218C1.1451 188.218 -0.000141794 187.072 -0.000141732 185.66C-0.000141671 184.248 1.1451 183.103 2.55755 183.103C3.96999 183.103 5.11523 184.248 5.11523 185.66C5.11523 187.072 3.96999 188.218 2.55755 188.218Z" fill="#FF7D44" fill-opacity="0.7"/>
    <path d="M2.55755 198.993C1.1451 198.993 -0.000141794 197.848 -0.000141732 196.436C-0.000141671 195.023 1.1451 193.878 2.55755 193.878C3.96999 193.878 5.11523 195.023 5.11523 196.436C5.11523 197.848 3.96999 198.993 2.55755 198.993Z" fill="#FF7D44" fill-opacity="0.7"/>
    <path d="M2.55755 209.769C1.1451 209.769 -0.000141794 208.624 -0.000141732 207.212C-0.000141671 205.8 1.1451 204.655 2.55755 204.655C3.96999 204.655 5.11523 205.8 5.11523 207.212C5.11523 208.624 3.96999 209.769 2.55755 209.769Z" fill="#FF7D44" fill-opacity="0.7"/>
    <path d="M2.55755 220.532C1.1451 220.532 -0.000141794 219.387 -0.000141732 217.975C-0.000141671 216.563 1.1451 215.418 2.55755 215.418C3.96999 215.418 5.11523 216.563 5.11523 217.975C5.11523 219.387 3.96999 220.532 2.55755 220.532Z" fill="#FF7D44" fill-opacity="0.7"/>
    <path d="M2.55755 231.308C1.1451 231.308 -0.000141794 230.163 -0.000141732 228.751C-0.000141671 227.339 1.1451 226.194 2.55755 226.194C3.96999 226.194 5.11523 227.339 5.11523 228.751C5.11523 230.163 3.96999 231.308 2.55755 231.308Z" fill="#FF7D44" fill-opacity="0.7"/>
    <path d="M2.55755 242.084C1.1451 242.084 -0.000141794 240.939 -0.000141732 239.527C-0.000141671 238.115 1.1451 236.97 2.55755 236.97C3.96999 236.97 5.11523 238.115 5.11523 239.527C5.11523 240.926 3.96999 242.084 2.55755 242.084Z" fill="#FF7D44" fill-opacity="0.7"/>
</svg>
