<svg width="1183" height="1284" viewBox="0 0 1183 1284" fill="none" xmlns="http://www.w3.org/2000/svg">
    <path d="M1043.62 1.00025C1734.19 564.845 -409.359 731.579 71.5673 1272.85" stroke="#F2F8FA" stroke-miterlimit="10"/>
    <path d="M1012.06 2.42151C1724.24 546.722 -377.833 741.146 111.799 1273.33" stroke="#F2F8FA" stroke-miterlimit="10"/>
    <path d="M980.505 3.85695C1714.3 528.6 -346.305 750.698 151.998 1273.81" stroke="#F2F8FA" stroke-miterlimit="10"/>
    <path d="M948.946 5.29258C1704.36 510.492 -314.778 760.264 192.198 1274.3" stroke="#F2F8FA" stroke-miterlimit="10"/>
    <path d="M917.419 6.7284C1694.45 492.37 -283.251 769.816 232.398 1274.78" stroke="#F2F8FA" stroke-miterlimit="10"/>
    <path d="M885.859 8.14937C1684.5 474.247 -251.724 779.368 272.63 1275.26" stroke="#F2F8FA" stroke-miterlimit="10"/>
    <path d="M854.299 9.58529C1674.56 456.125 -220.197 788.935 312.829 1275.75" stroke="#F2F8FA" stroke-miterlimit="10"/>
    <path d="M822.74 11.0209C1664.61 438.003 -188.637 798.487 353.028 1276.23" stroke="#F2F8FA" stroke-miterlimit="10"/>
    <path d="M791.213 12.4567C1654.7 419.88 -157.109 808.054 393.229 1276.72" stroke="#F2F8FA" stroke-miterlimit="10"/>
    <path d="M759.653 13.878C1644.76 401.758 -125.583 817.606 433.46 1277.2" stroke="#F2F8FA" stroke-miterlimit="10"/>
    <path d="M728.093 15.3132C1634.81 383.635 -94.0564 827.157 473.659 1277.68" stroke="#F2F8FA" stroke-miterlimit="10"/>
    <path d="M696.534 16.7488C1624.87 365.513 -62.5286 836.724 513.859 1278.17" stroke="#F2F8FA" stroke-miterlimit="10"/>
    <path d="M664.974 18.1846C1614.96 347.391 -31.0018 846.276 554.058 1278.65" stroke="#F2F8FA" stroke-miterlimit="10"/>
    <path d="M633.447 19.6205C1605.02 329.283 0.557959 855.842 594.291 1279.15" stroke="#F2F8FA" stroke-miterlimit="10"/>
    <path d="M601.887 21.041C1595.07 311.145 32.0523 865.394 634.49 1279.62" stroke="#F2F8FA" stroke-miterlimit="10"/>
    <path d="M570.327 22.4769C1585.16 293.038 63.5791 874.961 674.689 1280.1" stroke="#F2F8FA" stroke-miterlimit="10"/>
    <path d="M538.768 23.9127C1575.22 274.916 95.1063 884.513 714.889 1280.58" stroke="#F2F8FA" stroke-miterlimit="10"/>
    <path d="M507.241 25.3483C1565.27 256.793 126.666 894.079 755.121 1281.07" stroke="#F2F8FA" stroke-miterlimit="10"/>
    <path d="M475.681 26.77C1555.36 238.671 158.193 903.632 795.321 1281.55" stroke="#F2F8FA" stroke-miterlimit="10"/>
    <path d="M444.121 28.2054C1545.42 220.549 189.72 913.198 835.52 1282.03" stroke="#F2F8FA" stroke-miterlimit="10"/>
    <path d="M412.562 29.6414C1535.47 202.427 221.248 922.75 875.72 1282.52" stroke="#F2F8FA" stroke-miterlimit="10"/>
    <path d="M381.002 31.077C1525.53 184.304 252.775 932.302 915.952 1283" stroke="#F2F8FA" stroke-miterlimit="10"/>
</svg>
