<svg width="61" height="61" viewBox="0 0 61 61" fill="none" xmlns="http://www.w3.org/2000/svg">
    <path d="M59.5703 29.4968L47.8833 22.7494C46.7224 17.6503 43.8635 13.0219 39.7983 9.6781C35.5638 6.19514 30.207 4.27686 24.7145 4.27686C11.6124 4.27686 0.953125 14.9362 0.953125 28.0384C0.953125 41.1405 11.6124 51.7997 24.7145 51.7997C29.7139 51.7997 34.47 50.2743 38.5116 47.3835L46.5604 52.0303C46.7079 52.1155 46.8724 52.158 47.037 52.158C47.2015 52.158 47.366 52.1155 47.5135 52.0303L59.5703 45.0695C59.8652 44.8993 60.0469 44.5848 60.0469 44.2441V30.3222C60.0469 29.9816 59.8652 29.667 59.5703 29.4968ZM47.037 24.4618L49.411 25.8324L39.2604 31.6928L36.8865 30.3222L47.037 24.4618ZM40.2135 34.4442L41.8037 35.3623V38.6433L40.2135 37.7252V34.4442ZM41.1665 32.7934L51.3171 26.933L52.9074 27.8511L42.7569 33.7115L41.1665 32.7934ZM35.9333 31.973L38.3072 33.3436V38.2755C38.3072 38.616 38.4889 38.9307 38.7837 39.1009L42.2801 41.1195C42.4276 41.2047 42.5922 41.2473 42.7567 41.2473C42.9212 41.2473 43.0858 41.2047 43.2333 41.1195C43.5281 40.9493 43.7098 40.6348 43.7098 40.2941V36.4628L46.0837 37.8334V49.5542L35.9332 43.6938V31.973H35.9333ZM47.037 36.1826L44.6631 34.812L54.8135 28.9516L57.1875 30.3222L47.037 36.1826ZM45.9565 22.8846L34.8009 29.3252C34.2849 29.2824 33.8612 29.2004 33.4673 29.0663C31.1106 27.4872 31.7088 26.5454 32.6914 24.998C33.2659 24.0932 33.91 23.0786 33.5899 21.9715C33.7234 21.757 33.9938 21.4611 34.1695 21.3634C36.0721 21.9206 40.4634 22.0215 41.3145 21.7883C42.3174 21.5132 43.1532 19.9473 43.0017 18.6267C42.8575 17.3703 41.8913 16.5856 40.4169 16.5278C40.2011 16.5193 39.8197 16.5548 39.0457 16.6289C38.2516 16.7049 36.3137 16.8909 35.4904 16.8401C35.2827 16.0072 35.1508 14.5277 35.7811 13.9513C36.5192 13.2765 37.8727 12.8246 38.8609 12.4946C39.1986 12.3819 39.4861 12.285 39.7341 12.1885C42.7309 15.02 44.9441 18.6984 45.9565 22.8846ZM12.171 10.1514C12.914 10.3854 13.4604 10.5807 13.913 10.7427C15.8549 11.4374 16.1115 11.4374 19.4048 10.7442C21.4472 10.3145 21.872 10.6624 22.5147 11.1895C23.1035 11.6722 23.8362 12.2729 25.3934 12.4947C26.3061 12.6247 26.5725 12.7435 26.6354 12.8202C26.6615 12.8521 26.7842 13.0668 26.6282 14.1572C26.6083 14.296 26.5912 14.4398 26.5741 14.5856C26.4616 15.5423 26.362 15.8229 26.111 15.8904C25.724 15.9946 25.2916 16.0842 24.8339 16.179C23.735 16.4067 22.5986 16.6422 21.7863 17.1495C21.5706 17.2842 21.3208 17.412 21.0562 17.5473C19.9407 18.1181 18.4128 18.8997 17.9763 21.1355C17.8838 21.6088 17.0547 21.7654 15.8935 21.9349C14.6794 22.1122 13.4239 22.2954 12.9279 23.3654C12.4635 24.3673 13.0391 25.4923 13.5125 26.2513L13.7528 26.6373C14.5836 27.974 15.0006 28.6449 15.6287 29.0362C16.3515 29.4862 17.0829 29.4008 18.1904 29.2718C18.6069 29.2232 19.0783 29.1682 19.669 29.1208C20.4427 29.147 25.5082 30.5825 27.1768 32.4156C27.3727 32.6309 27.6018 32.9466 27.5803 33.2285C27.4087 35.4899 26.3433 36.7468 25.2154 38.0776C24.1136 39.3775 22.9742 40.7215 22.7022 42.9213C22.4111 45.2755 21.6154 46.3829 21.3177 46.4669C21.2312 46.4248 20.3306 45.8846 19.6371 41.9963C18.8673 37.6803 17.6214 36.5266 16.1918 35.5567C15.2932 34.9472 14.6998 34.5445 14.6637 31.3289C14.6369 28.9404 13.6534 28.0177 12.9352 27.3438C12.8295 27.2447 12.7297 27.1511 12.6421 27.0607C12.382 26.7925 12.0069 26.5753 11.4878 26.2745C9.83113 25.3149 6.78196 23.5465 5.00891 18.5912C6.63959 15.2028 9.11998 12.2975 12.171 10.1514ZM24.7145 49.8934C12.6636 49.8934 2.85938 40.0892 2.85938 28.0384C2.85938 25.6104 3.2579 23.2739 3.99204 21.0902C6.0477 25.3235 9.00131 27.0374 10.532 27.924C10.8234 28.0928 11.1861 28.3029 11.2736 28.3878C11.3926 28.5105 11.5138 28.6242 11.6309 28.734C12.226 29.2925 12.7399 29.7745 12.7576 31.3504C12.8014 35.2695 13.7221 36.1849 15.1217 37.1343C16.0792 37.7838 17.0693 38.4556 17.7605 42.331C18.0998 44.2338 18.5451 45.7005 19.0836 46.6907C19.8361 48.0743 20.7028 48.3754 21.3143 48.3754C21.3311 48.3754 21.3476 48.3752 21.3641 48.3747C22.9392 48.3326 24.2071 46.2839 24.5941 43.1555C24.7964 41.5202 25.6644 40.4962 26.6695 39.3103C27.885 37.8763 29.2627 36.251 29.4811 33.3729C29.5447 32.5355 29.1842 31.7196 28.4099 30.948C26.2366 28.7824 20.6343 27.1305 19.5381 27.2189C18.903 27.2694 18.3854 27.3299 17.9695 27.3783C17.2611 27.4609 16.7931 27.5155 16.6366 27.418C16.3853 27.2616 15.9602 26.5776 15.3718 25.631L15.13 25.2425C14.7087 24.5671 14.6659 24.26 14.6637 24.1735C14.8755 24.01 15.6803 23.8925 16.1689 23.8212C17.57 23.6166 19.4889 23.3365 19.8473 21.5008C20.1063 20.1745 20.9087 19.7641 21.9245 19.2444C22.2131 19.0968 22.5115 18.944 22.7962 18.7663C23.3194 18.4395 24.286 18.2392 25.2209 18.0455C25.6853 17.9492 26.1657 17.8496 26.6065 17.731C28.1733 17.3094 28.3574 15.7435 28.4673 14.8081C28.4826 14.6785 28.4975 14.5507 28.5152 14.4273C28.6849 13.2421 28.6811 12.3099 28.1108 11.6129C27.549 10.9263 26.632 10.7456 25.6623 10.6075C24.6327 10.4608 24.2114 10.1153 23.7234 9.71539C22.6845 8.86365 21.7384 8.30512 19.0123 8.8789C16.0848 9.49521 16.0849 9.49533 14.5553 8.94788C14.4657 8.91583 14.37 8.88164 14.2688 8.84566C17.374 7.14874 20.9337 6.18322 24.7148 6.18322C29.6715 6.18322 34.3263 7.87609 38.0559 10.7539C36.9286 11.1321 35.4726 11.6507 34.495 12.5444C32.7874 14.1056 33.5458 17.1988 33.8424 17.9418C33.8532 17.9691 33.8654 17.9959 33.8788 18.0221C34.3124 18.8704 35.4082 18.8922 39.2275 18.5263C39.6867 18.4824 40.2064 18.4325 40.3371 18.4325C40.3389 18.4325 40.3407 18.4326 40.3423 18.4327C40.777 18.4497 41.0271 18.5522 41.086 18.7372C41.2038 19.1075 40.9343 19.748 40.7348 19.961C39.9089 20.0654 36.0925 19.9853 34.6292 19.5105C33.9172 19.2793 33.0994 19.6092 32.385 20.4158C31.9955 20.8555 31.3931 21.7036 31.736 22.441C31.8717 22.7332 31.4704 23.3651 31.0824 23.9763C30.1087 25.5096 28.4793 28.0759 32.5162 30.7229C32.577 30.7626 32.6421 30.7954 32.7104 30.8206C33.173 30.9903 33.6229 31.0905 34.0273 31.1528V44.2442C34.0273 44.5847 34.209 44.8994 34.5038 45.0697L36.6824 46.3274C33.1262 48.6645 29.0186 49.8934 24.7145 49.8934ZM47.9901 49.5542V37.8334L58.1406 31.973V43.6938L47.9901 49.5542ZM48.223 19.8066C48.223 19.2802 48.6498 18.8535 49.1761 18.8535H56.3246L56.1207 18.6943C55.7059 18.3702 55.6321 17.7713 55.9562 17.3565C56.2802 16.9416 56.8792 16.868 57.294 17.1918L59.6804 19.0554C59.9117 19.2362 60.0469 19.5133 60.0469 19.8067C60.0469 20.1002 59.9117 20.3773 59.6804 20.5579L57.294 22.4216C57.1198 22.5578 56.9131 22.6236 56.7081 22.6236C56.4246 22.6236 56.1442 22.4977 55.9562 22.2571C55.6322 21.8422 55.7059 21.2432 56.1207 20.9193L56.3248 20.7598H49.1762C48.6498 20.7597 48.223 20.333 48.223 19.8066ZM58.2786 53.9068C58.2786 54.4332 57.8518 54.8599 57.3255 54.8599H39.5176L39.7215 55.0191C40.1363 55.3432 40.2101 55.9421 39.886 56.3569C39.6981 56.5976 39.4176 56.7234 39.1341 56.7234C38.929 56.7234 38.7224 56.6575 38.5482 56.5216L36.1618 54.658C35.9305 54.4772 35.7953 54.2001 35.7953 53.9067C35.7953 53.6132 35.9305 53.3361 36.1618 53.1555L38.5482 51.2918C38.963 50.9675 39.5621 51.0413 39.886 51.4563C40.21 51.8713 40.1363 52.4702 39.7215 52.7941L39.5174 52.9535H57.3255C57.8519 52.9537 58.2786 53.3804 58.2786 53.9068Z" fill="#FF7D44"/>
</svg>
