<svg width="51" height="51" viewBox="0 0 51 51" fill="none" xmlns="http://www.w3.org/2000/svg">
    <path d="M33.4742 3.98438C32.9244 3.98438 32.4781 4.43062 32.4781 4.98047C32.4781 5.53031 32.9244 5.97656 33.4742 5.97656C34.0241 5.97656 34.4703 5.53031 34.4703 4.98047C34.4703 4.43062 34.0241 3.98438 33.4742 3.98438Z" fill="#FF7D44"/>
    <path d="M17.5367 3.98438C16.9869 3.98438 16.5406 4.43062 16.5406 4.98047C16.5406 5.53031 16.9869 5.97656 17.5367 5.97656C18.0866 5.97656 18.5328 5.53031 18.5328 4.98047C18.5328 4.43062 18.0866 3.98438 17.5367 3.98438Z" fill="#FF7D44"/>
    <path d="M46.2225 49.3151L39.6312 42.429C42.294 42.3336 44.4313 40.1389 44.4313 37.4531V7.89603C44.4313 6.28665 43.8688 4.71501 42.8472 3.47059C41.8249 2.22647 40.3927 1.36913 38.815 1.05705C35.2797 0.355606 31.66 0 28.0566 0H22.7942C19.367 0 15.7971 0.328312 12.1846 1.05028C8.93686 1.70003 6.5797 4.57586 6.5797 7.88807V37.4531C6.5797 40.1615 8.75318 42.3703 11.4473 42.4307L4.78155 49.3108C4.50315 49.5981 4.42366 50.024 4.57975 50.3923C4.73563 50.7606 5.09692 51 5.49695 51H12.619C12.9384 51 13.2383 50.8469 13.4257 50.5883L16.4472 46.418H34.6524L37.674 50.5884C37.8613 50.8469 38.1614 51 38.4806 51H45.5031C45.902 51 46.2624 50.7619 46.4191 50.3952C46.5758 50.0282 46.4985 49.6034 46.2225 49.3151ZM8.57189 37.4531V7.88807C8.57189 5.52205 10.2556 3.4679 12.5752 3.00372C15.8267 2.35387 19.2626 1.99219 22.7941 1.99219H28.0565C31.5302 1.99219 35.0193 2.33494 38.4276 3.01109C39.5546 3.23412 40.5776 3.84652 41.3075 4.73493C42.0372 5.62375 42.439 6.74634 42.439 7.89594V37.4531C42.439 39.1009 41.0984 40.4414 39.4507 40.4414H11.5601C9.91243 40.4414 8.57189 39.1009 8.57189 37.4531ZM12.1107 49.0078H7.84893L14.2182 42.4336H16.874L12.1107 49.0078ZM17.8906 44.4258L19.3341 42.4336H31.7656L33.209 44.4258H17.8906ZM38.9889 49.0078L34.2258 42.4336H36.8779L43.1707 49.0078H38.9889Z" fill="#FF7D44"/>
    <path d="M39.4508 7.96875H11.5602C11.0101 7.96875 10.5641 8.4148 10.5641 8.96484V25.5C10.5641 26.05 11.0101 26.4961 11.5602 26.4961H39.4508C40.0008 26.4961 40.4469 26.05 40.4469 25.5V8.96484C40.4469 8.4148 40.0008 7.96875 39.4508 7.96875ZM24.5094 24.5039H12.5563V9.96094H24.5094V24.5039ZM38.4547 24.5039H26.5016V9.96094H38.4547V24.5039Z" fill="#FF7D44"/>
    <path d="M29.4899 3.98438H21.5211C20.9711 3.98438 20.525 4.43043 20.525 4.98047C20.525 5.53051 20.9711 5.97656 21.5211 5.97656H29.4899C30.0399 5.97656 30.486 5.53051 30.486 4.98047C30.486 4.43043 30.0399 3.98438 29.4899 3.98438Z" fill="#FF7D44"/>
    <path d="M36.4625 29.4844C34.2655 29.4844 32.4781 31.2718 32.4781 33.4688C32.4781 35.6657 34.2655 37.4531 36.4625 37.4531C38.6595 37.4531 40.4469 35.6657 40.4469 33.4688C40.4469 31.2718 38.6595 29.4844 36.4625 29.4844ZM36.4625 35.4609C35.364 35.4609 34.4703 34.5672 34.4703 33.4688C34.4703 32.3703 35.364 31.4766 36.4625 31.4766C37.561 31.4766 38.4547 32.3703 38.4547 33.4688C38.4547 34.5672 37.561 35.4609 36.4625 35.4609Z" fill="#FF7D44"/>
    <path d="M14.5485 29.4844C12.3515 29.4844 10.5641 31.2718 10.5641 33.4688C10.5641 35.6657 12.3516 37.4531 14.5485 37.4531C16.7454 37.4531 18.5328 35.6657 18.5328 33.4688C18.5328 31.2718 16.7454 29.4844 14.5485 29.4844ZM14.5485 35.4609C13.45 35.4609 12.5563 34.5672 12.5563 33.4688C12.5563 32.3703 13.45 31.4766 14.5485 31.4766C15.647 31.4766 16.5406 32.3703 16.5406 33.4688C16.5406 34.5672 15.647 35.4609 14.5485 35.4609Z" fill="#FF7D44"/>
    <path d="M29.4899 30.4805H21.5211C20.9711 30.4805 20.525 30.9265 20.525 31.4766C20.525 32.0266 20.9711 32.4727 21.5211 32.4727H29.4899C30.0399 32.4727 30.486 32.0266 30.486 31.4766C30.486 30.9265 30.04 30.4805 29.4899 30.4805Z" fill="#FF7D44"/>
    <path d="M29.4899 34.4648H21.5211C20.9711 34.4648 20.525 34.9109 20.525 35.4609C20.525 36.011 20.9711 36.457 21.5211 36.457H29.4899C30.0399 36.457 30.486 36.011 30.486 35.4609C30.486 34.9109 30.04 34.4648 29.4899 34.4648Z" fill="#FF7D44"/>
</svg>
