<svg width="60" height="60" viewBox="0 0 60 60" fill="none" xmlns="http://www.w3.org/2000/svg">
    <path d="M38.1094 41.8687H24.0469C23.7982 41.8687 23.5598 41.9674 23.384 42.1432C23.2081 42.3191 23.1094 42.5575 23.1094 42.8062V54.0562C23.1094 54.3048 23.2081 54.5433 23.384 54.7191C23.5598 54.8949 23.7982 54.9937 24.0469 54.9937H38.1094C38.358 54.9937 38.5965 54.8949 38.7723 54.7191C38.9481 54.5433 39.0469 54.3048 39.0469 54.0562V42.8062C39.0469 42.5575 38.9481 42.3191 38.7723 42.1432C38.5965 41.9674 38.358 41.8687 38.1094 41.8687ZM37.1719 53.1187H24.9844V43.7437H30.1406V44.6812C30.1406 44.9298 30.2394 45.1683 30.4152 45.3441C30.591 45.5199 30.8295 45.6187 31.0781 45.6187C31.3268 45.6187 31.5652 45.5199 31.741 45.3441C31.9169 45.1683 32.0156 44.9298 32.0156 44.6812V43.7437H37.1719V53.1187Z" fill="#FF7D44"/>
    <path d="M54.9844 41.8687H40.9219C40.6732 41.8687 40.4348 41.9674 40.259 42.1432C40.0831 42.3191 39.9844 42.5575 39.9844 42.8062V54.0562C39.9844 54.3048 40.0831 54.5433 40.259 54.7191C40.4348 54.8949 40.6732 54.9937 40.9219 54.9937H54.9844C55.233 54.9937 55.4715 54.8949 55.6473 54.7191C55.8231 54.5433 55.9219 54.3048 55.9219 54.0562V42.8062C55.9219 42.5575 55.8231 42.3191 55.6473 42.1432C55.4715 41.9674 55.233 41.8687 54.9844 41.8687ZM54.0469 53.1187H41.8594V43.7437H47.0156V44.6812C47.0156 44.9298 47.1144 45.1683 47.2902 45.3441C47.466 45.5199 47.7045 45.6187 47.9531 45.6187C48.2018 45.6187 48.4402 45.5199 48.616 45.3441C48.7919 45.1683 48.8906 44.9298 48.8906 44.6812V43.7437H54.0469V53.1187Z" fill="#FF7D44"/>
    <path d="M54.9844 27.8062H40.9219C40.6732 27.8062 40.4348 27.9049 40.259 28.0807C40.0831 28.2566 39.9844 28.495 39.9844 28.7437V39.9937C39.9844 40.2423 40.0831 40.4808 40.259 40.6566C40.4348 40.8324 40.6732 40.9312 40.9219 40.9312H54.9844C55.233 40.9312 55.4715 40.8324 55.6473 40.6566C55.8231 40.4808 55.9219 40.2423 55.9219 39.9937V28.7437C55.9219 28.495 55.8231 28.2566 55.6473 28.0807C55.4715 27.9049 55.233 27.8062 54.9844 27.8062ZM54.0469 39.0562H41.8594V29.6812H47.0156V30.6187C47.0156 30.8673 47.1144 31.1058 47.2902 31.2816C47.466 31.4574 47.7045 31.5562 47.9531 31.5562C48.2018 31.5562 48.4402 31.4574 48.616 31.2816C48.7919 31.1058 48.8906 30.8673 48.8906 30.6187V29.6812H54.0469V39.0562Z" fill="#FF7D44"/>
    <path d="M40.7999 25.903C40.9196 25.8715 41.0319 25.8165 41.1303 25.7414C41.2286 25.6662 41.3111 25.5723 41.373 25.4651C41.4349 25.3579 41.4749 25.2395 41.4908 25.1168C41.5067 24.994 41.4981 24.8693 41.4656 24.7499L40.6406 21.6655L43.4531 19.2936L43.5281 19.228C45.4016 17.2558 46.8025 14.8835 47.6249 12.2905C48.2737 10.2376 48.5437 8.0838 48.4218 5.93426C48.4089 5.70792 48.3144 5.49391 48.1558 5.33188C47.9973 5.16986 47.7853 5.07078 47.5593 5.05301C45.4401 4.89897 43.3107 5.13733 41.2781 5.75614C38.6068 6.58857 36.1735 8.04793 34.1812 10.0124L31.7999 12.8249L26.2499 11.3155C26.4246 11.1399 26.5226 10.9023 26.5226 10.6546C26.5226 10.4069 26.4246 10.1693 26.2499 9.99364C26.1628 9.90577 26.0591 9.83602 25.9449 9.78843C25.8306 9.74083 25.7081 9.71633 25.5843 9.71633C25.4606 9.71633 25.338 9.74083 25.2238 9.78843C25.1095 9.83602 25.0058 9.90577 24.9187 9.99364L24.2624 10.6499C24.2249 10.6977 24.1905 10.7478 24.1593 10.7999L19.9406 9.66551L20.2781 9.32801C20.3659 9.24086 20.4357 9.13717 20.4833 9.02293C20.5309 8.90869 20.5554 8.78615 20.5554 8.66239C20.5554 8.53863 20.5309 8.41609 20.4833 8.30185C20.4357 8.18761 20.3659 8.08392 20.2781 7.99676C20.1024 7.82215 19.8648 7.72415 19.6171 7.72415C19.3695 7.72415 19.1318 7.82215 18.9562 7.99676L17.8124 9.08426L9.74057 6.92801C9.54115 6.87293 9.32911 6.88536 9.13749 6.96337C8.94587 7.04137 8.78544 7.18057 8.68119 7.35926L6.49681 11.2499C6.43352 11.356 6.39183 11.4736 6.37413 11.5958C6.35644 11.7181 6.36308 11.8427 6.39369 11.9624C6.4268 12.0829 6.48366 12.1956 6.56094 12.2938C6.63822 12.392 6.73435 12.4737 6.84369 12.5343L23.7937 22.1905L14.4187 33.1593L6.41244 32.3061C6.24427 32.2885 6.07444 32.3166 5.92095 32.3876C5.76746 32.4585 5.63602 32.5697 5.54056 32.7093L4.23744 34.603C4.16053 34.7173 4.10973 34.8471 4.08867 34.9832C4.0676 35.1193 4.07679 35.2584 4.11556 35.3905C4.15259 35.5221 4.21792 35.6439 4.30699 35.7476C4.39606 35.8512 4.50671 35.9341 4.63119 35.9905L11.6624 39.1311L14.3156 41.7843L17.4562 48.8155C17.5126 48.94 17.5955 49.0506 17.6991 49.1397C17.8028 49.2288 17.9246 49.2941 18.0562 49.3311C18.14 49.3448 18.2255 49.3448 18.3093 49.3311C18.499 49.3301 18.6844 49.2748 18.8437 49.1718L20.7843 47.8499C20.9254 47.7537 21.0375 47.6207 21.1086 47.4654C21.1796 47.3101 21.2069 47.1383 21.1874 46.9686L20.3343 38.9811L29.3624 31.2655L31.2937 29.6155L36.3562 38.503C36.4174 38.6104 36.4993 38.7047 36.5972 38.7803C36.695 38.856 36.8068 38.9115 36.9262 38.9438C37.0456 38.976 37.1701 38.9843 37.2928 38.9682C37.4154 38.9521 37.5336 38.9119 37.6406 38.8499C37.855 38.7262 38.0118 38.5228 38.0768 38.2839C38.1418 38.045 38.1097 37.7902 37.9874 37.5749L32.7468 28.4061L39.0562 23.0155L39.6562 25.2374C39.72 25.4771 39.8762 25.6817 40.0906 25.8065C40.3049 25.9312 40.56 25.9659 40.7999 25.903ZM8.58744 11.3249L9.98431 8.92489L30.4218 14.3811L25.0312 20.6999L8.58744 11.3249ZM38.9718 20.6249L30.9374 27.478L28.1249 29.8686L18.7499 37.9124C18.6344 38.0121 18.545 38.1386 18.4895 38.2807C18.4339 38.4228 18.4139 38.5764 18.4312 38.728L19.2749 46.6499L18.7218 47.0249L15.9374 40.8561C15.8897 40.7511 15.8229 40.6557 15.7406 40.5749L12.8437 37.678C12.7649 37.5999 12.6728 37.5364 12.5718 37.4905L6.42181 34.7343L6.79681 34.1811L14.7281 35.0249C14.8797 35.0422 15.0332 35.0221 15.1754 34.9666C15.3175 34.9111 15.4439 34.8216 15.5437 34.7061L32.8124 14.4468L35.4937 11.3155C37.2548 9.58256 39.4055 8.29668 41.7656 7.56551C43.3039 7.08869 44.9085 6.86081 46.5187 6.89051C46.5264 8.5349 46.2765 10.1703 45.7781 11.7374C45.0617 14.0353 43.8341 16.1411 42.1874 17.8968L38.9718 20.6249Z" fill="#FF7D44"/>
    <path d="M37.5656 17.2125L27.6187 25.8281C27.4397 25.9933 27.3321 26.2218 27.3186 26.4651C27.3051 26.7083 27.3868 26.9473 27.5465 27.1313C27.7061 27.3154 27.9312 27.43 28.1739 27.451C28.4166 27.472 28.658 27.3976 28.8469 27.2437L38.7938 18.6281C38.9728 18.4628 39.0804 18.2344 39.0939 17.9911C39.1074 17.7478 39.0257 17.5089 38.866 17.3249C38.7064 17.1408 38.4813 17.0262 38.2386 17.0052C37.9959 16.9842 37.7545 17.0586 37.5656 17.2125Z" fill="#FF7D44"/>
    <path d="M17.6531 34.4718L15.7781 36.3468C15.6035 36.5224 15.5055 36.76 15.5055 37.0077C15.5055 37.2554 15.6035 37.493 15.7781 37.6686C15.9512 37.8453 16.1871 37.9464 16.4344 37.9499C16.5584 37.9494 16.6811 37.9243 16.7954 37.876C16.9096 37.8277 17.0132 37.7572 17.1 37.6686L18.975 35.7936C19.1286 35.6143 19.2088 35.3836 19.1997 35.1477C19.1906 34.9117 19.0928 34.6879 18.9258 34.5209C18.7589 34.354 18.535 34.2562 18.2991 34.247C18.0632 34.2379 17.8325 34.3182 17.6531 34.4718Z" fill="#FF7D44"/>
</svg>
