<svg width="58" height="58" viewBox="0 0 58 58" fill="none" xmlns="http://www.w3.org/2000/svg">
    <g clip-path="url(#clip0_303_175568)">
        <path d="M14.4999 46.8826C13.4327 46.8826 12.5665 47.7487 12.5665 48.8159C12.5665 49.8832 13.4327 50.7492 14.4999 50.7492C15.5671 50.7492 16.4333 49.883 16.4333 48.8158C16.4333 47.7486 15.5671 46.8826 14.4999 46.8826Z" fill="#FF7D44"/>
        <path d="M24.1668 46.8826C23.0995 46.8826 22.2334 47.7487 22.2334 48.8159C22.2334 49.8832 23.0997 50.7492 24.1668 50.7492C25.234 50.7492 26.1001 49.883 26.1001 48.8158C26.1001 47.7486 25.234 46.8826 24.1668 46.8826Z" fill="#FF7D44"/>
        <path d="M49.2998 46.8826C48.2326 46.8826 47.3665 47.7487 47.3665 48.8159C47.3665 49.8832 48.2326 50.7492 49.2998 50.7492C50.3671 50.7492 51.2332 49.883 51.2332 48.8158C51.2332 47.7486 50.3671 46.8826 49.2998 46.8826Z" fill="#FF7D44"/>
        <path d="M45.4333 34.3163H51.2333C51.7669 34.3163 52.1999 33.8832 52.1999 33.3497V28.8314C52.1999 26.5249 50.3246 24.6497 48.0182 24.6497H45.4333C44.8997 24.6497 44.4667 25.0827 44.4667 25.6163V33.3497C44.4666 33.8832 44.8996 34.3163 45.4333 34.3163ZM46.3999 26.583H48.0182C49.2584 26.583 50.2667 27.5912 50.2667 28.8315V32.383H46.3999V26.583Z" fill="#FF7D44"/>
        <path d="M25.1333 22.7163C24.5997 22.7163 24.1666 23.1494 24.1666 23.6829V37.2163C24.1666 37.7499 24.5997 38.1829 25.1333 38.1829C25.6668 38.1829 26.0999 37.7499 26.0999 37.2163V23.6831C26.0999 23.1494 25.6668 22.7163 25.1333 22.7163Z" fill="#FF7D44"/>
        <path d="M30.9333 18.8494C30.3997 18.8494 29.9667 19.2824 29.9667 19.816V37.216C29.9667 37.7496 30.3997 38.1826 30.9333 38.1826C31.4669 38.1826 31.8999 37.7496 31.8999 37.216V19.816C31.8999 19.2824 31.4669 18.8494 30.9333 18.8494Z" fill="#FF7D44"/>
        <path d="M36.7332 18.8494C36.1997 18.8494 35.7666 19.2824 35.7666 19.816V37.216C35.7666 37.7496 36.1997 38.1826 36.7332 38.1826C37.2668 38.1826 37.6999 37.7496 37.6999 37.216V19.816C37.6999 19.2824 37.2668 18.8494 36.7332 18.8494Z" fill="#FF7D44"/>
        <path d="M57.0334 40.1158H56.0667V27.0011C56.0667 23.5723 53.277 20.7826 49.8482 20.7826H42.5334V15.9492C42.5334 15.4156 42.1003 14.9826 41.5667 14.9826H25.0966C24.8643 11.9437 23.5457 9.2042 21.5301 7.15121C21.5063 7.12074 21.4811 7.09106 21.4531 7.06296C21.425 7.03498 21.3953 7.00972 21.3648 6.98593C19.0963 4.75871 15.9893 3.38257 12.5666 3.38257C9.14395 3.38257 6.0371 4.75871 3.76841 6.98593C3.73794 7.00972 3.70826 7.03498 3.68017 7.06296C3.65219 7.09106 3.62693 7.12074 3.60314 7.15121C1.37603 9.41978 0 12.5266 0 15.9492C0 19.3726 1.37671 22.4801 3.60484 24.7489C3.62828 24.7787 3.65321 24.8077 3.68073 24.8352C3.70815 24.8626 3.73715 24.8874 3.76683 24.9109C4.90111 26.0249 6.24497 26.926 7.73337 27.5485V40.1158H6.76674C6.23319 40.1158 5.80011 40.5489 5.80011 41.0825V48.8158C5.80011 49.3494 6.23319 49.7825 6.76674 49.7825H8.78213C9.24375 52.5223 11.6308 54.6158 14.5001 54.6158C16.516 54.6158 18.2937 53.5822 19.3335 52.0176C20.3733 53.5822 22.151 54.6158 24.1669 54.6158C27.036 54.6158 29.4232 52.5223 29.8848 49.7825H43.5822C44.0439 52.5223 46.4309 54.6158 49.3002 54.6158C52.1695 54.6158 54.5566 52.5223 55.0182 49.7825H57.0336C57.5671 49.7825 58.0002 49.3494 58.0002 48.8158V41.0825C58 40.5489 57.5669 40.1158 57.0334 40.1158ZM49.848 22.7158C52.2116 22.7158 54.1333 24.6375 54.1333 27.001V40.1158H42.5333V22.7158H49.848ZM20.7341 22.7498L19.4013 21.4171C19.0243 21.0401 18.4124 21.0401 18.0345 21.4171C17.6575 21.7951 17.6575 22.4069 18.0345 22.7839L19.3672 24.1167C17.7551 25.4613 15.7404 26.3382 13.5333 26.5382V24.6492C13.5333 24.1156 13.1002 23.6826 12.5666 23.6826C12.0331 23.6826 11.6 24.1156 11.6 24.6492V26.5382C9.39283 26.3382 7.37823 25.4613 5.76602 24.1167L7.09877 22.7839C7.47577 22.4069 7.47577 21.795 7.09877 21.4171C6.72075 21.0401 6.10892 21.0401 5.73192 21.4171L4.39916 22.7498C3.05452 21.1377 2.17761 19.123 1.97766 16.9158H3.86663C4.40018 16.9158 4.83326 16.4828 4.83326 15.9492C4.83326 15.4156 4.40018 14.9826 3.86663 14.9826H1.97778C2.17772 12.7754 3.05463 10.7608 4.39916 9.1487L5.73158 10.4811C5.92008 10.6696 6.1676 10.7643 6.415 10.7643C6.66241 10.7643 6.90993 10.6696 7.09843 10.4811C7.47645 10.1031 7.47645 9.49217 7.09843 9.11426L5.76602 7.78173C7.37812 6.43708 9.39283 5.56017 11.6 5.36023V7.2492C11.6 7.78275 12.0331 8.21583 12.5666 8.21583C13.1002 8.21583 13.5333 7.78275 13.5333 7.2492V5.36023C15.7404 5.56017 17.7551 6.43708 19.3672 7.78173L18.0348 9.11415C17.6568 9.49205 17.6568 10.1031 18.0348 10.481C18.2233 10.6695 18.4708 10.7642 18.7183 10.7642C18.9658 10.7642 19.2132 10.6695 19.4017 10.481L20.7341 9.14858C22.0787 10.7607 22.9557 12.7753 23.1555 14.9825H21.2665C20.733 14.9825 20.2999 15.4155 20.2999 15.9491C20.2999 16.4826 20.733 16.9157 21.2665 16.9157H23.1555C22.9557 19.123 22.0787 21.1377 20.7341 22.7498ZM9.66663 28.1775C10.5979 28.3984 11.5687 28.5158 12.5666 28.5158V37.2158C12.5666 37.7494 12.9997 38.1825 13.5333 38.1825C14.0668 38.1825 14.4999 37.7494 14.4999 37.2158V28.3671C15.8747 28.1539 17.1762 27.7166 18.3665 27.0946V37.2158C18.3665 37.7494 18.7996 38.1825 19.3331 38.1825C19.8667 38.1825 20.2998 37.7494 20.2998 37.2158V25.8477C20.6728 25.5556 21.0286 25.2425 21.3663 24.9109C21.396 24.8874 21.425 24.8626 21.4524 24.8352C21.4799 24.8077 21.5047 24.7787 21.5283 24.7489C23.5447 22.6957 24.864 19.9555 25.0963 16.9158H40.6V21.7492V40.1158H9.66663V28.1775ZM14.5 52.6826C12.3675 52.6826 10.6334 50.9483 10.6334 48.8159C10.6334 46.6835 12.3675 44.9492 14.5 44.9492C16.6325 44.9492 18.3666 46.6834 18.3666 48.8158C18.3666 50.9482 16.6325 52.6826 14.5 52.6826ZM24.1666 52.6826C22.0341 52.6826 20.3 50.9483 20.3 48.8159C20.3 46.6835 22.0342 44.9493 24.1666 44.9493C26.2991 44.9493 28.0333 46.6835 28.0333 48.8159C28.0333 50.9483 26.2991 52.6826 24.1666 52.6826ZM49.3 52.6826C47.1675 52.6826 45.4334 50.9483 45.4334 48.8159C45.4334 46.6835 47.1675 44.9492 49.3 44.9492C51.4325 44.9492 53.1666 46.6834 53.1666 48.8158C53.1666 50.9482 51.4325 52.6826 49.3 52.6826ZM56.0666 47.8492H55.0179C54.5562 45.1094 52.1692 43.0158 49.2999 43.0158C46.4307 43.0158 44.0435 45.1094 43.5819 47.8492H29.8846C29.423 45.1094 27.0359 43.0158 24.1666 43.0158C22.1508 43.0158 20.3731 44.0494 19.3333 45.614C18.2934 44.0494 16.5157 43.0158 14.4999 43.0158C11.6306 43.0158 9.24352 45.1094 8.7819 47.8492H7.73314V42.0492H8.7H41.5666H55.1H56.0666V47.8492Z" fill="#FF7D44"/>
        <path d="M45.4334 38.1829H47.3668C47.9003 38.1829 48.3334 37.7498 48.3334 37.2163C48.3334 36.6827 47.9003 36.2495 47.3667 36.2495H45.4333C44.8998 36.2495 44.4667 36.6826 44.4667 37.2161C44.4667 37.7497 44.8997 38.1829 45.4334 38.1829Z" fill="#FF7D44"/>
        <path d="M15.4667 14.983H13.5334V11.1163C13.5334 10.5827 13.1003 10.1497 12.5667 10.1497C12.0332 10.1497 11.6001 10.5827 11.6001 11.1163V15.9497C11.6001 16.4832 12.0332 16.9163 12.5667 16.9163H15.4667C16.0003 16.9163 16.4334 16.4832 16.4334 15.9497C16.4334 15.4161 16.0004 14.983 15.4667 14.983Z" fill="#FF7D44"/>
    </g>
    <defs>
        <clipPath id="clip0_303_175568">
            <rect width="58" height="58" fill="white"/>
        </clipPath>
    </defs>
</svg>
