<svg width="14" height="10" viewBox="0 0 14 10" fill="none" xmlns="http://www.w3.org/2000/svg">
    <g clip-path="url(#clip0_303_199060)">
        <path d="M13.8801 4.69635L9.6808 0.151095C9.59088 0.0547445 9.46649 0 9.33386 0H6.53356C6.34997 0 6.18286 0.105109 6.10718 0.269343C6.03224 0.433577 6.06297 0.625547 6.18661 0.758394L10.1057 5L6.18661 9.24088C6.06372 9.37445 6.03149 9.56642 6.10718 9.72993C6.18286 9.89416 6.34997 10 6.53356 10H9.33311C9.46574 10 9.59088 9.94452 9.68005 9.85036L13.8801 5.30511C14.0397 5.13212 14.0397 4.86788 13.8801 4.69635Z" fill="#07847F"/>
        <path d="M7.8138 4.69635L3.61372 0.151095C3.52455 0.0547445 3.39941 0 3.26678 0H0.466478C0.282889 0 0.115785 0.105109 0.040101 0.269343C-0.0348334 0.433577 -0.00411032 0.625547 0.119531 0.758394L4.0386 5L0.119531 9.24088C-0.00336098 9.37445 -0.0355828 9.56642 0.040101 9.72993C0.115785 9.89416 0.282889 10 0.466478 10H3.26678C3.39941 10 3.52455 9.94452 3.61372 9.85036L7.8138 5.30511C7.97341 5.13212 7.97341 4.86788 7.8138 4.69635Z" fill="#07847F"/>
    </g>
    <defs>
        <clipPath id="clip0_303_199060">
            <rect width="14" height="10" fill="white"/>
        </clipPath>
    </defs>
</svg>
