<svg width="59" height="59" viewBox="0 0 59 59" fill="none" xmlns="http://www.w3.org/2000/svg">
    <circle cx="29.5" cy="29.5" r="29" stroke="white" stroke-dasharray="3 3"/>
    <path d="M16.3949 25.4166C16.0497 25.4166 15.736 25.1831 15.6481 24.8329C14.8541 21.6572 14.8541 18.3494 14.8541 16.9374V15.3957C14.8541 14.9702 15.1996 14.625 15.6251 14.625C16.0506 14.625 16.3958 14.9702 16.3958 15.3957V16.9374C16.3958 18.2933 16.3958 21.4675 17.1436 24.4583C17.2468 24.8715 16.9957 25.2902 16.5823 25.3934C16.5199 25.4096 16.4576 25.4166 16.3949 25.4166Z" fill="white"/>
    <path d="M39.5208 46.9999H37.979C23.1028 46.9999 11 34.8971 11 20.0208V18.4791C11 17.4485 11.4008 16.4802 12.1271 15.7527C12.856 15.0249 13.8243 14.625 14.8541 14.625H17.9375C18.5503 14.625 19.1299 14.8661 19.5695 15.3048C20.0088 15.7465 20.2499 16.3255 20.2499 16.9374C20.2499 18.5756 20.5775 20.8865 20.9806 22.088C21.7931 24.5254 20.4349 25.698 19.6233 26.3987C19.4901 26.5134 19.3628 26.6228 19.2534 26.7325L18.0669 27.9187C19.1508 30.6198 20.7851 33.1281 22.8114 35.1985C24.8736 37.2157 27.3809 38.8491 30.0806 39.9321L31.2677 38.745C31.3776 38.6356 31.4856 38.5083 31.6014 38.3757C32.3027 37.5632 33.4736 36.205 35.911 37.0183C37.1204 37.4206 39.4314 37.7491 41.0633 37.7491C41.6808 37.7491 42.2619 37.9905 42.6983 38.4265C43.1346 38.8629 43.3749 39.4443 43.3749 40.0623V42.3748C43.3749 42.8011 43.0305 43.1458 42.6042 43.1458H41.0625C39.6504 43.1458 36.3427 43.1458 33.1675 42.3518C32.7544 42.2486 32.5033 41.8299 32.6065 41.4176C32.7097 41.0036 33.1275 40.7522 33.5407 40.8563C36.5323 41.604 39.7066 41.604 41.0625 41.604H41.8335V40.0623C41.8335 39.8559 41.7532 39.6624 41.6076 39.5166C41.4618 39.3716 41.2683 39.2908 41.0625 39.2908C39.4855 39.2908 36.9446 38.987 35.4232 38.4798C33.9662 37.9949 33.4375 38.6071 32.7691 39.3825C32.6273 39.546 32.4933 39.701 32.3583 39.8356L30.8157 41.3773C30.6031 41.5917 30.2823 41.6611 30.0003 41.5541C26.9269 40.4017 24.0649 38.5809 21.7222 36.2885C19.4198 33.9367 17.5991 31.0744 16.4452 27.9996C16.3388 27.7167 16.4082 27.3976 16.6216 27.1842L18.1633 25.6425C18.2974 25.5084 18.4524 25.3725 18.6165 25.2317C19.3922 24.5618 20.0041 24.0337 19.5186 22.5767C19.012 21.0644 18.7082 18.5215 18.7082 16.9374C18.7082 16.7363 18.6268 16.5434 18.4786 16.394C18.3321 16.2476 18.1395 16.1667 17.9375 16.1667H14.8541C14.236 16.1667 13.6541 16.4069 13.2168 16.8433C12.7822 17.2788 12.5417 17.8601 12.5417 18.4791V20.0208C12.5417 34.0467 23.9532 45.4582 37.979 45.4582H39.5208C39.9771 45.4582 40.8143 45.3873 41.2883 44.9133C41.5897 44.6119 42.0769 44.6119 42.3783 44.9133C42.6797 45.2147 42.6797 45.7019 42.3783 46.0033C41.555 46.8264 40.3703 46.9999 39.5208 46.9999Z" fill="white"/>
    <path d="M31.5 18.5L34 16.5H35.5L36 17.5L36.5 19V20.5L36 21.5L35 22.5L36.5 23L38.5 25L39 26V27.5L37.5 28L36.5 28.5H35H31.5L30 28L29.5 27V25H30L32.5 23L33 22L31.5 21.5V18.5Z" fill="#FF7D44"/>
    <path d="M34.1604 23.2292C32.4894 23.2292 31.1299 21.8696 31.1299 20.1984V18.9863C31.1299 17.3151 32.4894 15.9556 34.1604 15.9556C35.8314 15.9556 37.191 17.3151 37.191 18.9863V20.1984C37.191 21.8696 35.8314 23.2292 34.1604 23.2292ZM34.1604 17.1678C33.1579 17.1678 32.3421 17.9838 32.3421 18.9863V20.1984C32.3421 21.2009 33.1579 22.0169 34.1604 22.0169C35.163 22.0169 35.9787 21.2009 35.9787 20.1984V18.9863C35.9787 17.9838 35.163 17.1678 34.1604 17.1678Z" fill="white"/>
    <path d="M35.9801 29.29H32.341C30.2952 29.29 28.9393 27.957 28.8824 27.9001C28.7689 27.7868 28.7053 27.6322 28.7053 27.4717V25.3713C28.7053 24.966 28.9065 24.5889 29.2443 24.3634L32.3421 22.2985V22.0166H33.5544V22.6226C33.5544 22.8252 33.4531 23.0143 33.2846 23.1269L29.9176 25.3713V27.1947C30.2813 27.4819 31.1747 28.0777 32.341 28.0777H35.9801C37.1577 28.0777 38.0425 27.4849 38.4032 27.1965V25.372L35.0363 23.1269C34.8677 23.0143 34.7667 22.8252 34.7667 22.6226V22.0166H35.9787V22.2985L39.0754 24.3628C39.4136 24.5889 39.6155 24.966 39.6155 25.372V27.4717C39.6155 27.6322 39.5519 27.7868 39.4379 27.9001C39.381 27.957 38.0256 29.2893 35.9801 29.29Z" fill="white"/>
    <path d="M28.7053 34.1393C28.6272 34.1393 28.5483 34.1247 28.4732 34.093C28.2471 33.9998 28.0993 33.7779 28.0993 33.533V31.1085C28.0993 30.7734 28.3708 30.5025 28.7053 30.5025C29.0399 30.5025 29.3116 30.7734 29.3116 31.1085V32.0699L30.7014 30.68C30.8147 30.566 30.9687 30.5025 31.1299 30.5025H42.04C42.3746 30.5025 42.6461 30.2308 42.6461 29.8962V15.9555C42.6461 15.6216 42.3746 15.3495 42.04 15.3495H26.2808C25.9469 15.3495 25.6748 15.6216 25.6748 15.9555V29.8962C25.6748 30.2308 25.9469 30.5025 26.2808 30.5025C26.6154 30.5025 26.8871 30.7734 26.8871 31.1085C26.8871 31.4437 26.6154 31.7147 26.2808 31.7147C25.2783 31.7147 24.4625 30.8988 24.4625 29.8962V15.9555C24.4625 14.9529 25.2783 14.1372 26.2808 14.1372H42.04C43.0426 14.1372 43.8583 14.9529 43.8583 15.9555V29.8962C43.8583 30.8988 43.0426 31.7147 42.04 31.7147H31.3807L29.1338 33.9615C29.0182 34.0773 28.863 34.1393 28.7053 34.1393Z" fill="white"/>
</svg>
