<svg width="59" height="59" viewBox="0 0 59 59" fill="none" xmlns="http://www.w3.org/2000/svg">
    <circle cx="29.5" cy="29.5" r="29" stroke="white" stroke-dasharray="3 3"/>
    <path d="M24.5 11.7498L23.25 12.5832V13.8332L24.0834 15.0832L23.25 16.3332H22.4167H21.5834V18.4165L22.4167 18.8332L23.25 19.2498V20.4998V21.7498L24.5 23.8332L25.75 23.4165H27L27.4167 23.8332L27.8334 24.6665L28.6667 25.4998H29.5H30.75V23.8332L32.4167 22.9998L34.5 23.8332L35.3334 22.9998V21.7498V20.4998V19.2498H37.4167V17.5832L36.5834 16.3332L35.3334 15.0832V12.5832L34.5 11.7498H32.4167H31.5834L29.5 9.6665L27.4167 11.7498H24.5Z" fill="#FF7D44"/>
    <path d="M14.7856 18.5425H20.9543C20.954 18.5309 20.9525 18.5195 20.9525 18.5078V16.9351C20.9525 16.2733 21.4909 15.7349 22.1527 15.7349C22.5939 15.7349 22.9584 15.4908 23.1277 15.082C23.2971 14.6731 23.2119 14.2428 22.8999 13.9308C22.4321 13.4628 22.4321 12.7014 22.8999 12.2335L24.0121 11.1213C24.48 10.6534 25.2414 10.6535 25.7094 11.1213C26.0215 11.4332 26.4518 11.5184 26.8606 11.3491C27.2694 11.1798 27.5135 10.8152 27.5135 10.374C27.5135 9.71223 28.0519 9.17383 28.7137 9.17383H30.2864C30.9482 9.17383 31.4866 9.71223 31.4866 10.374C31.4866 10.8153 31.7306 11.1798 32.1395 11.3491C32.5485 11.5185 32.9787 11.4332 33.2907 11.1213C33.7587 10.6534 34.52 10.6535 34.988 11.1213L36.1002 12.2335C36.5681 12.7014 36.5681 13.4628 36.1002 13.9308C35.7882 14.2428 35.703 14.6731 35.8723 15.082C36.0417 15.4908 36.4062 15.7349 36.8474 15.7349C37.5092 15.7349 38.0475 16.2733 38.0475 16.9351V18.5078C38.0475 18.5195 38.0461 18.5309 38.0457 18.5425H44.2144C45.7504 18.5425 47 19.7922 47 21.3282V39.0403C47 40.5764 45.7504 41.826 44.2144 41.826H14.7856C13.2496 41.826 12 40.5764 12 39.0403V21.3282C12 19.7922 13.2496 18.5425 14.7856 18.5425ZM13.3672 21.3282V39.0403C13.3672 39.2104 13.3988 39.3728 13.4539 39.5241L24.2577 30.1612L13.4526 20.8482C13.3983 20.9984 13.3672 21.1595 13.3672 21.3282ZM36.6803 17.0967C35.7542 17.0365 34.97 16.4765 34.6091 15.6052C34.2482 14.7338 34.4068 13.7834 35.0191 13.086L34.1355 12.2024C33.438 12.8147 32.4877 12.9732 31.6163 12.6123C30.7449 12.2514 30.185 11.4671 30.1248 10.5411H28.8754C28.8152 11.4671 28.2553 12.2514 27.3839 12.6122C26.5125 12.9732 25.5621 12.8146 24.8646 12.2023L23.981 13.0859C24.5932 13.7833 24.7519 14.7338 24.391 15.6051C24.03 16.4765 23.2459 17.0364 22.3198 17.0966V18.346C23.2459 18.4062 24.03 18.9661 24.391 19.8375C24.752 20.7089 24.5934 21.6593 23.981 22.3568L24.8646 23.2404C25.5621 22.628 26.5125 22.4695 27.3839 22.8305C28.2553 23.1914 28.8152 23.9755 28.8754 24.9016H30.1248C30.185 23.9747 30.7447 23.19 31.6159 22.8292C32.487 22.4684 33.4376 22.6274 34.1356 23.2403L35.0191 22.3567C34.4068 21.6593 34.2482 20.7089 34.6092 19.8374C34.9702 18.966 35.7543 18.4062 36.6804 18.3459V17.0967H36.6803ZM36.2182 19.9097C36.0695 20.0203 35.95 20.1729 35.8722 20.3608C35.7028 20.7696 35.788 21.2 36.1 21.512C36.3266 21.7387 36.4515 22.0401 36.4515 22.3607C36.4515 22.6813 36.3267 22.9827 36.1 23.2094L34.9878 24.3216C34.5198 24.7895 33.7584 24.7894 33.2905 24.3215C32.978 24.0088 32.5475 23.9231 32.1389 24.0924C31.7304 24.2617 31.4865 24.6266 31.4865 25.0688C31.4865 25.7306 30.9481 26.269 30.2863 26.269H28.7136C28.0518 26.269 27.5134 25.7306 27.5134 25.0688C27.5134 24.6276 27.2694 24.2631 26.8605 24.0937C26.4514 23.9244 26.0213 24.0097 25.7092 24.3216C25.2413 24.7894 24.4799 24.7894 24.0119 24.3216L22.8997 23.2094C22.4318 22.7414 22.4318 21.9801 22.8997 21.5121C23.2117 21.2001 23.2969 20.7697 23.1275 20.3608C23.0497 20.173 22.9303 20.0204 22.7815 19.9098H14.7856C14.6854 19.9098 14.5877 19.9205 14.4934 19.9404L29.4578 32.8383L44.2649 19.9123C44.248 19.9117 44.2314 19.9097 44.2144 19.9097H36.2182ZM45.4696 39.6986C45.5733 39.5017 45.6328 39.2779 45.6328 39.0402V21.3282C45.6328 21.0921 45.574 20.8698 45.4716 20.6737L34.6038 30.1609L45.4696 39.6986ZM44.2144 40.4587C44.2299 40.4587 44.245 40.4569 44.2605 40.4564L33.5647 31.0679L29.9102 34.2582C29.7814 34.3706 29.6211 34.4268 29.4606 34.4268C29.3016 34.4268 29.1426 34.3716 29.0143 34.261L25.3042 31.0633L14.4972 40.4291C14.5903 40.4485 14.6868 40.4588 14.7856 40.4588H44.2144V40.4587ZM29.5 21.6124C27.3545 21.6124 25.6091 19.8669 25.6091 17.7214C25.6091 15.576 27.3545 13.8304 29.5 13.8304C31.6455 13.8304 33.3909 15.5759 33.3909 17.7213C33.3909 19.8668 31.6455 21.6124 29.5 21.6124ZM29.5 15.1976C28.1084 15.1976 26.9762 16.3298 26.9762 17.7213C26.9762 19.1129 28.1084 20.2452 29.5 20.2452C30.8916 20.2452 32.0238 19.113 32.0238 17.7214C32.0238 16.3298 30.8916 15.1976 29.5 15.1976Z" fill="white"/>
</svg>
