<svg width="59" height="59" viewBox="0 0 59 59" fill="none" xmlns="http://www.w3.org/2000/svg">
    <circle cx="29.5" cy="29.5" r="29" stroke="white" stroke-dasharray="3 3"/>
    <path d="M13.6445 25.6953V22.0859C13.6445 21.1965 14.0055 20.3908 14.5888 19.8075C15.1721 19.2242 15.9777 18.8633 16.8672 18.8633C18.6467 18.8633 20.0898 20.3064 20.0898 22.0859V24.0195" stroke="white" stroke-width="1.28906" stroke-miterlimit="10" stroke-linecap="round" stroke-linejoin="round"/>
    <path d="M20.0898 27.8867V40.1328C20.0898 38.3533 18.6467 36.9102 16.8672 36.9102C15.0876 36.9102 13.6445 38.3533 13.6445 40.1328C13.6445 40.2424 13.6503 40.3532 13.6613 40.4654C13.8289 42.1425 15.3654 43.3555 17.0509 43.3555H20.0898" stroke="white" stroke-width="1.28906" stroke-miterlimit="10" stroke-linecap="round" stroke-linejoin="round"/>
    <path d="M25.6328 43.3555H42.1328C43.913 43.3555 45.3555 41.913 45.3555 40.1328" stroke="white" stroke-width="1.28906" stroke-miterlimit="10" stroke-linecap="round" stroke-linejoin="round"/>
    <path d="M38.9102 35.6211V40.1328C38.9102 38.0735 40.8412 36.4654 42.9913 37.021C44.0767 37.3014 44.9642 38.1889 45.2446 39.2743C45.32 39.5663 45.3555 39.8537 45.3555 40.1328V22.0859C45.3555 20.3064 43.9124 18.8633 42.1328 18.8633C41.2434 18.8633 40.4377 19.2242 39.8544 19.8075C39.2711 20.3908 38.9102 21.1965 38.9102 22.0859V31.7539" stroke="white" stroke-width="1.28906" stroke-miterlimit="10" stroke-linecap="round" stroke-linejoin="round"/>
    <path d="M13.6445 30.8516V40.1328" stroke="white" stroke-width="1.28906" stroke-miterlimit="10" stroke-linecap="round" stroke-linejoin="round"/>
    <path d="M38.9101 24.0195H32.4655" stroke="white" stroke-width="1.28906" stroke-miterlimit="10" stroke-linecap="round" stroke-linejoin="round"/>
    <path d="M38.9102 31.7539V35.6211H33.3672L25.6328 43.3555H20.0898L28.2109 35.6211L20.0898 27.8867V24.0195H21.6367C21.6367 24.0195 27.5302 29.6328 29.7578 31.7539H38.9102Z" stroke="white" stroke-width="1.28906" stroke-miterlimit="10" stroke-linecap="round" stroke-linejoin="round"/>
    <path d="M26.5345 24.0195H21.6367" stroke="white" stroke-width="1.28906" stroke-miterlimit="10" stroke-linecap="round" stroke-linejoin="round"/>
    <path d="M29.5 28L24 19V15L26 13L29.5 11.5L33.5 13L35.5 16L34.5 20L29.5 28Z" fill="#FF7D44"/>
    <path d="M32.4655 24.0195C33.8938 21.705 35.3008 19.0238 35.3008 17.4453C35.3008 14.2413 32.704 11.6445 29.5 11.6445C26.296 11.6445 23.6992 14.2413 23.6992 17.4453C23.6992 19.0238 25.1062 21.705 26.5345 24.0195C28.006 26.4056 29.5 28.4023 29.5 28.4023C29.5 28.4023 30.994 26.4056 32.4655 24.0195Z" stroke="white" stroke-width="1.28906" stroke-miterlimit="10" stroke-linecap="round" stroke-linejoin="round"/>
    <path d="M29.5 20.0234C30.9218 20.0234 32.0781 18.8671 32.0781 17.4453C32.0781 16.0235 30.9218 14.8672 29.5 14.8672C28.0782 14.8672 26.9219 16.0235 26.9219 17.4453C26.9219 18.8671 28.0782 20.0234 29.5 20.0234Z" stroke="white" stroke-width="1.28906" stroke-miterlimit="10" stroke-linecap="round" stroke-linejoin="round"/>
    <path d="M13.6445 27.6289C14.0003 27.6289 14.2891 27.9177 14.2891 28.2734C14.2891 28.6292 14.0003 28.918 13.6445 28.918C13.2887 28.918 13 28.6292 13 28.2734C13 27.9177 13.2887 27.6289 13.6445 27.6289Z" fill="white"/>
</svg>
