<svg width="78" height="78" viewBox="0 0 78 78" fill="none" xmlns="http://www.w3.org/2000/svg">
    <circle cx="39.0002" cy="39" r="38.5" fill="#E6F9FB" stroke="#07847F" stroke-dasharray="3 3"/>
    <g clip-path="url(#clip0_303_196720)">
        <path d="M57.5002 27.8125H55.3127V22.1875H58.7502C58.9988 22.1875 59.2373 22.0887 59.4131 21.9129C59.5889 21.7371 59.6877 21.4986 59.6877 21.25C59.6877 21.0014 59.5889 20.7629 59.4131 20.5871C59.2373 20.4113 58.9988 20.3125 58.7502 20.3125H50.0002C49.7515 20.3125 49.5131 20.4113 49.3373 20.5871C49.1615 20.7629 49.0627 21.0014 49.0627 21.25C49.0627 21.4986 49.1615 21.7371 49.3373 21.9129C49.5131 22.0887 49.7515 22.1875 50.0002 22.1875H53.4377V27.8125H52.4547L50.9047 24.7128C50.621 24.1404 50.1826 23.6589 49.6391 23.323C49.0957 22.9872 48.469 22.8103 47.8301 22.8125H32.1703C31.5315 22.8103 30.9048 22.9871 30.3613 23.3229C29.8179 23.6588 29.3794 24.1402 29.0956 24.7125L27.5456 27.8125H26.5627V22.1875H30.0002C30.2488 22.1875 30.4873 22.0887 30.6631 21.9129C30.8389 21.7371 30.9377 21.4986 30.9377 21.25C30.9377 21.0014 30.8389 20.7629 30.6631 20.5871C30.4873 20.4113 30.2488 20.3125 30.0002 20.3125H21.2502C21.0015 20.3125 20.7631 20.4113 20.5873 20.5871C20.4115 20.7629 20.3127 21.0014 20.3127 21.25C20.3127 21.4986 20.4115 21.7371 20.5873 21.9129C20.7631 22.0887 21.0015 22.1875 21.2502 22.1875H24.6877V27.8125H22.5002C21.9202 27.8132 21.3642 28.0439 20.9542 28.454C20.5441 28.8641 20.3134 29.4201 20.3127 30V31.25C20.3134 31.8299 20.5441 32.3859 20.9542 32.796C21.3642 33.2061 21.9202 33.4368 22.5002 33.4375H25.6252C26.3089 33.4367 26.9732 33.6649 27.5122 34.0856C28.0511 34.5064 28.4337 35.0955 28.5988 35.759L29.0922 37.7326L23.6785 43.7476C23.5236 43.9199 23.4378 44.1433 23.4377 44.375V51.875C23.4377 52.1236 23.5365 52.3621 23.7123 52.5379C23.8881 52.7137 24.1265 52.8125 24.3752 52.8125C24.6238 52.8125 24.8623 52.7137 25.0381 52.5379C25.2139 52.3621 25.3127 52.1236 25.3127 51.875V44.7345L29.899 39.6387C30.2187 40.0429 30.6257 40.3696 31.0894 40.5945C31.5531 40.8195 32.0617 40.9367 32.5771 40.9375H47.4233C47.9387 40.9367 48.4472 40.8195 48.911 40.5946C49.3747 40.3697 49.7817 40.0429 50.1014 39.6388L54.6877 44.7345V51.875C54.6877 52.1236 54.7865 52.3621 54.9623 52.5379C55.1381 52.7137 55.3765 52.8125 55.6252 52.8125C55.8738 52.8125 56.1123 52.7137 56.2881 52.5379C56.4639 52.3621 56.5627 52.1236 56.5627 51.875V44.375C56.5625 44.1433 56.4768 43.9199 56.3219 43.7476L50.9082 37.7326L51.4016 35.759C51.5667 35.0955 51.9492 34.5064 52.4882 34.0856C53.0271 33.6649 53.6914 33.4367 54.3752 33.4375H57.5002C58.0801 33.4368 58.6361 33.2061 59.0462 32.796C59.4563 32.3859 59.687 31.8299 59.6877 31.25V30C59.687 29.4201 59.4563 28.8641 59.0462 28.454C58.6361 28.0439 58.0801 27.8132 57.5002 27.8125ZM30.7729 25.5508C30.9019 25.2907 31.1012 25.072 31.3482 24.9194C31.5951 24.7668 31.88 24.6864 32.1703 24.6875H47.8301C48.1204 24.6864 48.4053 24.7668 48.6523 24.9195C48.8993 25.0721 49.0986 25.291 49.2275 25.5511L50.3582 27.8125H29.6422L30.7729 25.5508ZM49.5827 35.3043L48.9391 37.8793C48.8549 38.2175 48.6599 38.5178 48.3852 38.7322C48.1104 38.9467 47.7718 39.0629 47.4233 39.0625H32.5771C32.2285 39.0629 31.8899 38.9466 31.6151 38.7321C31.3404 38.5176 31.1454 38.2173 31.0613 37.879L30.4177 35.3043C30.2479 34.6239 29.9351 33.9875 29.5002 33.4375H50.5002C50.0653 33.9875 49.7525 34.6239 49.5827 35.3043ZM57.8127 31.25C57.8126 31.3329 57.7797 31.4123 57.7211 31.4709C57.6625 31.5295 57.583 31.5624 57.5002 31.5625H22.5002C22.4173 31.5624 22.3379 31.5295 22.2793 31.4709C22.2207 31.4123 22.1877 31.3329 22.1877 31.25V30C22.1877 29.9171 22.2207 29.8377 22.2793 29.7791C22.3379 29.7205 22.4173 29.6876 22.5002 29.6875H57.5002C57.583 29.6876 57.6625 29.7205 57.7211 29.7791C57.7797 29.8377 57.8126 29.9171 57.8127 30V31.25Z" fill="#07847F"/>
        <path d="M40.0002 37.8125C40.8631 37.8125 41.5627 37.1129 41.5627 36.25C41.5627 35.3871 40.8631 34.6875 40.0002 34.6875C39.1372 34.6875 38.4377 35.3871 38.4377 36.25C38.4377 37.1129 39.1372 37.8125 40.0002 37.8125Z" fill="#07847F"/>
        <path d="M50.0002 42.8125H46.5627V48.75C46.5626 48.9062 46.5234 49.0599 46.4489 49.1971C46.3743 49.3343 46.2666 49.4508 46.1356 49.5358C46.0046 49.6209 45.8545 49.6719 45.6988 49.6842C45.5431 49.6965 45.3868 49.6697 45.244 49.6063L42.8151 48.526L40.3841 49.6069C40.2642 49.6601 40.1345 49.6875 40.0034 49.6875C39.8723 49.6875 39.7426 49.6601 39.6227 49.6069L37.1892 48.526L34.7557 49.6069C34.613 49.6702 34.4567 49.6968 34.3011 49.6844C34.1454 49.6719 33.9953 49.6208 33.8644 49.5357C33.7335 49.4506 33.6259 49.3342 33.5514 49.197C33.4769 49.0598 33.4378 48.9061 33.4377 48.75V42.8125H30.0002C29.4202 42.8132 28.8642 43.0439 28.4542 43.454C28.0441 43.8641 27.8134 44.4201 27.8127 45V57.5C27.8134 58.0799 28.0441 58.6359 28.4542 59.046C28.8642 59.4561 29.4202 59.6868 30.0002 59.6875H50.0002C50.5801 59.6868 51.1361 59.4561 51.5462 59.046C51.9563 58.6359 52.187 58.0799 52.1877 57.5V45C52.187 44.4201 51.9563 43.8641 51.5462 43.454C51.1361 43.0439 50.5801 42.8132 50.0002 42.8125ZM48.7502 56.5625H46.8752C46.6265 56.5625 46.3881 56.4637 46.2123 56.2879C46.0365 56.1121 45.9377 55.8736 45.9377 55.625C45.9377 55.3764 46.0365 55.1379 46.2123 54.9621C46.3881 54.7863 46.6265 54.6875 46.8752 54.6875H48.7502C48.9988 54.6875 49.2373 54.7863 49.4131 54.9621C49.5889 55.1379 49.6877 55.3764 49.6877 55.625C49.6877 55.8736 49.5889 56.1121 49.4131 56.2879C49.2373 56.4637 48.9988 56.5625 48.7502 56.5625Z" fill="#FF7D44"/>
        <path d="M37.5698 46.6431L40.0032 47.724L42.4346 46.6431C42.5546 46.5899 42.6844 46.5625 42.8156 46.5626C42.9469 46.5627 43.0767 46.5903 43.1966 46.6437L44.6877 47.3071V42.8125H35.3127V47.3077L36.8087 46.6431C36.9285 46.5899 37.0581 46.5625 37.1892 46.5625C37.3203 46.5625 37.4499 46.5899 37.5698 46.6431Z" fill="#FF7D44"/>
    </g>
    <defs>
        <clipPath id="clip0_303_196720">
            <rect width="40" height="40" fill="white" transform="translate(20.0002 20)"/>
        </clipPath>
    </defs>
</svg>
