<svg width="78" height="78" viewBox="0 0 78 78" fill="none" xmlns="http://www.w3.org/2000/svg">
    <circle cx="38.9999" cy="39" r="38.5" fill="#E6F9FB" stroke="#07847F" stroke-dasharray="3 3"/>
    <g clip-path="url(#clip0_303_196788)">
        <path d="M53.4999 40.5616C53.2513 40.5616 53.0128 40.6604 52.837 40.8362C52.6612 41.012 52.5624 41.2505 52.5624 41.4991C52.5624 41.7478 52.6612 41.9862 52.837 42.1621C53.0128 42.3379 53.2513 42.4366 53.4999 42.4366C53.9143 42.4366 54.3118 42.6013 54.6048 42.8943C54.8978 43.1873 55.0624 43.5847 55.0624 43.9991C55.0624 44.4135 54.8978 44.811 54.6048 45.104C54.3118 45.397 53.9143 45.5616 53.4999 45.5616H46.3124V42.7491C46.3122 42.5699 46.2606 42.3946 46.1638 42.2437C46.067 42.0929 45.929 41.973 45.7662 41.8981C45.6034 41.8233 45.4225 41.7966 45.245 41.8213C45.0675 41.846 44.9008 41.921 44.7646 42.0375L36.0146 49.5375C35.912 49.6255 35.8297 49.7347 35.7733 49.8575C35.7168 49.9804 35.6876 50.114 35.6876 50.2491C35.6876 50.3843 35.7168 50.5179 35.7733 50.6407C35.8297 50.7636 35.912 50.8728 36.0146 50.9608L44.7646 58.4608C44.9008 58.5772 45.0675 58.6522 45.245 58.6769C45.4225 58.7016 45.6033 58.6749 45.7661 58.6C45.9289 58.5252 46.0669 58.4053 46.1637 58.2545C46.2605 58.1037 46.3121 57.9283 46.3124 57.7491V54.9366H53.4999C55.4062 54.9366 57.2344 54.1794 58.5823 52.8315C59.9302 51.4836 60.6874 49.6554 60.6874 47.7491C60.6874 45.8429 59.9302 44.0147 58.5823 42.6668C57.2344 41.3189 55.4062 40.5616 53.4999 40.5616Z" fill="#FF7D44"/>
        <path d="M55.9999 33.0625H53.1874V21.5C53.1867 20.9201 52.956 20.3641 52.546 19.954C52.1359 19.5439 51.5799 19.3132 50.9999 19.3125H28.4999C27.92 19.3132 27.364 19.5439 26.9539 19.954C26.5438 20.3641 26.3131 20.9201 26.3124 21.5V33.0625H23.4999C22.92 33.0632 22.364 33.2939 21.9539 33.704C21.5438 34.1141 21.3131 34.6701 21.3124 35.25V54C21.3131 54.5799 21.5438 55.1359 21.9539 55.546C22.364 55.9561 22.92 56.1868 23.4999 56.1875H37.2499C37.4986 56.1875 37.737 56.0887 37.9129 55.9129C38.0887 55.7371 38.1874 55.4986 38.1874 55.25C38.1874 55.0014 38.0887 54.7629 37.9129 54.5871C37.737 54.4113 37.4986 54.3125 37.2499 54.3125H23.4999C23.4171 54.3123 23.3377 54.2794 23.2792 54.2208C23.2206 54.1622 23.1876 54.0828 23.1874 54V35.25C23.1875 35.1672 23.2205 35.0877 23.2791 35.0291C23.3377 34.9706 23.4171 34.9376 23.4999 34.9375H34.4374V38.375C34.4375 38.5201 34.4712 38.6632 34.536 38.793C34.6007 38.9229 34.6947 39.0359 34.8105 39.1233C34.9263 39.2107 35.0609 39.27 35.2035 39.2966C35.3461 39.3232 35.493 39.3163 35.6325 39.2765L39.7499 38.1L43.8674 39.2765C44.0069 39.3163 44.1538 39.3232 44.2964 39.2966C44.4391 39.2701 44.5736 39.2108 44.6894 39.1234C44.8053 39.036 44.8992 38.9229 44.964 38.7931C45.0287 38.6632 45.0624 38.5201 45.0624 38.375V34.9375H55.9999C56.0828 34.9376 56.1622 34.9706 56.2208 35.0291C56.2794 35.0877 56.3123 35.1672 56.3124 35.25V39C56.3124 39.2486 56.4112 39.4871 56.587 39.6629C56.7628 39.8387 57.0013 39.9375 57.2499 39.9375C57.4986 39.9375 57.737 39.8387 57.9129 39.6629C58.0887 39.4871 58.1874 39.2486 58.1874 39V35.25C58.1867 34.6701 57.956 34.1141 57.546 33.704C57.1359 33.2939 56.5799 33.0632 55.9999 33.0625ZM43.1874 21.1875V23.382L40.0075 22.4735C39.8392 22.4255 39.6607 22.4255 39.4924 22.4735L36.3124 23.382V21.1875H43.1874ZM43.1874 37.132L40.0075 36.2235C39.8392 36.1755 39.6607 36.1755 39.4924 36.2235L36.3124 37.132V34.9375H43.1874V37.132ZM28.1874 33.0625V21.5C28.1875 21.4172 28.2205 21.3377 28.2791 21.2791C28.3377 21.2206 28.4171 21.1876 28.4999 21.1875H34.4374V24.625C34.4375 24.7701 34.4712 24.9132 34.5359 25.0431C34.6006 25.1729 34.6946 25.286 34.8104 25.3734C34.9263 25.4608 35.0608 25.5201 35.2035 25.5467C35.3461 25.5732 35.493 25.5663 35.6325 25.5265L39.7499 24.35L43.8674 25.5265C44.0069 25.5663 44.1538 25.5731 44.2964 25.5466C44.439 25.52 44.5735 25.4607 44.6894 25.3733C44.8052 25.2859 44.8992 25.1729 44.9639 25.043C45.0286 24.9132 45.0624 24.7701 45.0624 24.625V21.1875H50.9999C51.0828 21.1876 51.1622 21.2206 51.2208 21.2791C51.2794 21.3377 51.3123 21.4172 51.3124 21.5V33.0625H28.1874Z" fill="#07847F"/>
        <path d="M25.9999 48.6875H28.4999C28.7486 48.6875 28.987 48.5887 29.1629 48.4129C29.3387 48.2371 29.4374 47.9986 29.4374 47.75C29.4374 47.5014 29.3387 47.2629 29.1629 47.0871C28.987 46.9113 28.7486 46.8125 28.4999 46.8125H25.9999C25.7513 46.8125 25.5128 46.9113 25.337 47.0871C25.1612 47.2629 25.0624 47.5014 25.0624 47.75C25.0624 47.9986 25.1612 48.2371 25.337 48.4129C25.5128 48.5887 25.7513 48.6875 25.9999 48.6875Z" fill="#07847F"/>
        <path d="M25.9999 52.4375H30.3749C30.6236 52.4375 30.862 52.3387 31.0379 52.1629C31.2137 51.9871 31.3124 51.7486 31.3124 51.5C31.3124 51.2514 31.2137 51.0129 31.0379 50.8371C30.862 50.6613 30.6236 50.5625 30.3749 50.5625H25.9999C25.7513 50.5625 25.5128 50.6613 25.337 50.8371C25.1612 51.0129 25.0624 51.2514 25.0624 51.5C25.0624 51.7486 25.1612 51.9871 25.337 52.1629C25.5128 52.3387 25.7513 52.4375 25.9999 52.4375Z" fill="#07847F"/>
    </g>
    <defs>
        <clipPath id="clip0_303_196788">
            <rect width="40" height="40" fill="white" transform="translate(20.9999 19)"/>
        </clipPath>
    </defs>
</svg>
