<svg width="78" height="78" viewBox="0 0 78 78" fill="none" xmlns="http://www.w3.org/2000/svg">
    <circle cx="39" cy="39" r="38.5" fill="#E6F9FB" stroke="#07847F" stroke-dasharray="3 3"/>
    <path d="M41.2969 36.3281H36.7031V40.2656H41.2969V36.3281Z" fill="#FF7D44"/>
    <path d="M47.5312 36.3281H43.2656V41.25C43.2656 41.5111 43.1619 41.7614 42.9773 41.946C42.7927 42.1306 42.5423 42.2344 42.2812 42.2344H35.7188C35.4577 42.2344 35.2073 42.1306 35.0227 41.946C34.8381 41.7614 34.7344 41.5111 34.7344 41.25V36.3281H30.4688C29.8598 36.3289 29.276 36.5711 28.8454 37.0017C28.4148 37.4323 28.1726 38.0161 28.1719 38.625V54.375C28.1726 54.9839 28.4148 55.5677 28.8454 55.9983C29.276 56.4289 29.8598 56.6711 30.4688 56.6719H47.5312C48.1402 56.6711 48.724 56.4289 49.1546 55.9983C49.5852 55.5677 49.8274 54.9839 49.8281 54.375V38.625C49.8274 38.0161 49.5852 37.4323 49.1546 37.0017C48.724 36.5711 48.1402 36.3289 47.5312 36.3281ZM47.571 51.1335C47.4796 51.2249 47.3711 51.2974 47.2517 51.3469C47.1323 51.3964 47.0043 51.4219 46.875 51.4219C46.7457 51.4219 46.6177 51.3964 46.4983 51.3469C46.3789 51.2974 46.2704 51.2249 46.179 51.1335L45.2344 50.1888V53.7188C45.2344 53.9798 45.1307 54.2302 44.9461 54.4148C44.7615 54.5994 44.5111 54.7031 44.25 54.7031C43.9889 54.7031 43.7385 54.5994 43.5539 54.4148C43.3693 54.2302 43.2656 53.9798 43.2656 53.7188V50.1888L42.321 51.1335C42.2296 51.2249 42.1211 51.2974 42.0017 51.3468C41.8822 51.3963 41.7543 51.4218 41.625 51.4218C41.4957 51.4218 41.3678 51.3963 41.2483 51.3468C41.1289 51.2974 41.0204 51.2249 40.929 51.1335C40.8376 51.0421 40.7651 50.9336 40.7157 50.8142C40.6662 50.6947 40.6407 50.5668 40.6407 50.4375C40.6407 50.3082 40.6662 50.1803 40.7157 50.0608C40.7651 49.9414 40.8376 49.8329 40.929 49.7415L43.554 47.1165C43.6454 47.0251 43.7539 46.9526 43.8733 46.9031C43.9927 46.8536 44.1207 46.8281 44.25 46.8281C44.3793 46.8281 44.5073 46.8536 44.6267 46.9031C44.7461 46.9526 44.8546 47.0251 44.946 47.1165L47.571 49.7415C47.6624 49.8329 47.7349 49.9414 47.7844 50.0608C47.8339 50.1802 47.8594 50.3082 47.8594 50.4375C47.8594 50.5668 47.8339 50.6948 47.7844 50.8142C47.7349 50.9336 47.6624 51.0421 47.571 51.1335Z" fill="#FF7D44"/>
    <path d="M41.0613 27.9744C40.4537 28.3887 39.7354 28.6103 39 28.6103C38.2646 28.6103 37.5462 28.3887 36.9386 27.9744C36.8327 27.9004 36.7132 27.8479 36.5869 27.82C36.4607 27.7922 36.3302 27.7894 36.2029 27.812C36.0756 27.8345 35.954 27.8819 35.8451 27.9515C35.7361 28.021 35.6419 28.1114 35.5678 28.2173C35.4938 28.3233 35.4413 28.4428 35.4134 28.569C35.3855 28.6953 35.3828 28.8258 35.4054 28.953C35.4279 29.0803 35.4753 29.2019 35.5449 29.3109C35.6144 29.4199 35.7048 29.5141 35.8107 29.5882C36.7459 30.2415 37.8592 30.5919 39 30.5919C40.1408 30.5919 41.2541 30.2415 42.1893 29.5882C42.2952 29.5141 42.3856 29.4199 42.4551 29.3109C42.5247 29.2019 42.5721 29.0803 42.5946 28.953C42.6172 28.8258 42.6144 28.6953 42.5866 28.569C42.5587 28.4428 42.5062 28.3233 42.4322 28.2173C42.3581 28.1114 42.2639 28.021 42.1549 27.9515C42.046 27.8819 41.9244 27.8345 41.7971 27.812C41.6698 27.7894 41.5393 27.7922 41.413 27.82C41.2868 27.8479 41.1673 27.9004 41.0613 27.9744Z" fill="#07847F"/>
    <path d="M52.0853 49.423C51.9939 49.5144 51.9214 49.6229 51.8719 49.7423C51.8224 49.8618 51.797 49.9897 51.797 50.119C51.797 50.2483 51.8224 50.3762 51.8719 50.4957C51.9214 50.6151 51.9939 50.7236 52.0853 50.815C52.1767 50.9064 52.2852 50.9789 52.4046 51.0283C52.524 51.0778 52.652 51.1033 52.7813 51.1033C52.9105 51.1033 53.0385 51.0778 53.1579 51.0283C53.2773 50.9789 53.3858 50.9064 53.4772 50.815L54.2194 50.0729C54.5295 49.7616 54.7442 49.3682 54.8381 48.939C54.932 48.5098 54.9012 48.0627 54.7494 47.6504L53.4676 44.1897C53.3766 43.9454 53.1924 43.7472 52.9555 43.6386C52.7185 43.53 52.4481 43.5198 52.2037 43.6102C51.9592 43.7007 51.7606 43.8844 51.6514 44.1211C51.5422 44.3578 51.5314 44.6282 51.6213 44.8728L52.903 48.3336C52.9243 48.3927 52.9285 48.4567 52.9151 48.5181C52.9017 48.5795 52.8713 48.636 52.8274 48.6809L52.0853 49.423Z" fill="#07847F"/>
    <path d="M26.3788 44.8728C26.4686 44.6282 26.4578 44.3578 26.3486 44.1211C26.2394 43.8844 26.0408 43.7007 25.7964 43.6102C25.5519 43.5198 25.2815 43.53 25.0446 43.6386C24.8076 43.7472 24.6234 43.9454 24.5324 44.1897L23.2507 47.6504C23.0989 48.0627 23.0681 48.5098 23.162 48.939C23.2559 49.3682 23.4706 49.7616 23.7807 50.0728L24.5228 50.815C24.6142 50.9064 24.7227 50.9789 24.8421 51.0283C24.9615 51.0778 25.0895 51.1033 25.2188 51.1033C25.348 51.1033 25.476 51.0778 25.5954 51.0283C25.7149 50.9789 25.8234 50.9064 25.9148 50.815C26.0062 50.7236 26.0787 50.6151 26.1281 50.4957C26.1776 50.3762 26.2031 50.2482 26.2031 50.119C26.2031 49.9897 26.1776 49.8617 26.1281 49.7423C26.0787 49.6229 26.0062 49.5144 25.9148 49.423L25.1726 48.6809C25.1287 48.6359 25.0983 48.5795 25.0849 48.5181C25.0715 48.4566 25.0757 48.3927 25.097 48.3335L26.3788 44.8728Z" fill="#07847F"/>
    <path d="M58.2421 46.202L54.6293 37.1343C54.0781 35.7331 53.117 34.5308 51.8716 33.6845C50.6262 32.8381 49.1545 32.3872 47.6487 32.3906H44.7507C46.4689 31.0793 47.6873 29.2202 48.2042 27.1215C48.7211 25.0228 48.5054 22.8105 47.5928 20.8513L50.4332 19.8681C50.68 19.7833 50.883 19.604 50.9976 19.3696C51.1122 19.1351 51.129 18.8648 51.0442 18.618C50.9595 18.3712 50.7802 18.1682 50.5458 18.0536C50.3113 17.939 50.041 17.9222 49.7942 18.0069L46.5595 19.1266C45.7423 18.0482 44.7037 17.1572 43.5135 16.5135C42.3233 15.8697 41.0092 15.4882 39.6593 15.3945C38.3094 15.3008 36.9552 15.497 35.6874 15.9701C34.4197 16.4432 33.268 17.1821 32.3095 18.1372C31.3511 19.0924 30.6081 20.2416 30.1306 21.5076C29.6532 22.7737 29.4522 24.1273 29.5412 25.4774C29.6302 26.8276 30.0072 28.1431 30.6468 29.3355C31.2863 30.5279 32.1737 31.5696 33.2493 32.3906H30.3513C28.8455 32.3872 27.3737 32.8382 26.1283 33.6847C24.8829 34.5311 23.9218 35.7336 23.3708 37.135L19.7579 46.2014C19.3055 47.334 19.1947 48.5742 19.439 49.7691C19.6833 50.964 20.2721 52.0612 21.1328 52.9254L24.578 56.3835C24.6689 56.4748 24.7769 56.5473 24.8959 56.5968C25.0149 56.6463 25.1425 56.6718 25.2713 56.6719H25.9251C26.1862 56.6719 26.4365 56.5682 26.6211 56.3836C26.8057 56.1989 26.9095 55.9486 26.9095 55.6875C26.9095 55.4264 26.8057 55.176 26.6211 54.9914C26.4365 54.8068 26.1862 54.7031 25.9251 54.7031H25.6774L22.5197 51.5334C21.9308 50.9422 21.5279 50.1914 21.3606 49.3738C21.1934 48.5563 21.2692 47.7076 21.5787 46.9326L25.1915 37.8662C25.5989 36.8304 26.3092 35.9416 27.2298 35.3159C28.1503 34.6902 29.2382 34.3569 30.3513 34.3594H47.6487C48.7617 34.3569 49.8495 34.6902 50.77 35.3157C51.6906 35.9412 52.401 36.8299 52.8085 37.8656L56.4213 46.9332C56.7307 47.7081 56.8065 48.5566 56.6394 49.3741C56.4722 50.1916 56.0694 50.9422 55.4806 51.5334L52.3226 54.7031H52.0749C51.8139 54.7031 51.5635 54.8068 51.3789 54.9914C51.1943 55.1761 51.0906 55.4264 51.0906 55.6875C51.0906 55.9486 51.1943 56.199 51.3789 56.3836C51.5635 56.5682 51.8139 56.6719 52.0749 56.6719H52.7287C52.8575 56.6718 52.9851 56.6463 53.1041 56.5968C53.2231 56.5473 53.3311 56.4748 53.422 56.3835L56.8676 52.9254C57.7281 52.0613 58.3168 50.9642 58.561 49.7694C58.8053 48.5746 58.6944 47.3345 58.2421 46.202ZM39 17.2969C40.0556 17.2979 41.0991 17.5224 42.0617 17.9556C43.0244 18.3887 43.8845 19.0207 44.5855 19.8099L31.5075 24.3369C31.6326 22.4327 32.4756 20.6469 33.8663 19.3402C35.257 18.0335 37.0917 17.3033 39 17.2969ZM31.6378 26.374L45.7282 21.4967C46.2087 22.454 46.4791 23.503 46.5214 24.5733C46.5636 25.6436 46.3767 26.7106 45.9733 27.7029C45.5698 28.6952 44.959 29.5898 44.1818 30.3269C43.4045 31.064 42.4788 31.6266 41.4666 31.9769C40.4544 32.3273 39.379 32.4574 38.3124 32.3586C37.2458 32.2597 36.2126 31.9341 35.2821 31.4036C34.3515 30.8732 33.5449 30.15 32.9165 29.2826C32.288 28.4152 31.852 27.4236 31.6378 26.374Z" fill="#07847F"/>
</svg>
