<svg width="78" height="78" viewBox="0 0 78 78" fill="none" xmlns="http://www.w3.org/2000/svg">
    <circle cx="38.9999" cy="39" r="38.5" fill="#E6F9FB" stroke="#07847F" stroke-dasharray="3 3"/>
    <g clip-path="url(#clip0_303_196735)">
        <path d="M56.8142 37.7137C55.7911 37.2735 54.6701 37.1108 53.5641 37.242L44.5157 38.3091C44.2572 38.3402 44.0215 38.4725 43.8603 38.6771C43.6992 38.8817 43.6257 39.1418 43.656 39.4005C43.6863 39.6591 43.8179 39.8952 44.0219 40.0571C44.226 40.2189 44.4859 40.2932 44.7447 40.2637L53.793 39.1967C54.4955 39.1144 55.2075 39.2026 55.8687 39.454C56.5298 39.7053 57.1206 40.1124 57.5911 40.6405H55.1063C54.8453 40.6405 54.5949 40.7443 54.4103 40.9289C54.2257 41.1135 54.122 41.3639 54.122 41.6249C54.122 41.886 54.2257 42.1364 54.4103 42.321C54.5949 42.5056 54.8453 42.6093 55.1063 42.6093H58.5889C58.6641 42.9265 58.7039 43.251 58.7076 43.577C58.7076 45.1488 57.1546 46.2546 55.7605 46.2546H47.5119L49.9373 43.6027C50.0724 43.4546 50.159 43.2689 50.1857 43.0703C50.2124 42.8717 50.178 42.6697 50.0869 42.4912C49.9958 42.3127 49.8524 42.1662 49.6759 42.0713C49.4994 41.9764 49.2982 41.9376 49.0991 41.9601L37.9682 43.2726C37.8062 43.2917 37.6516 43.3507 37.5182 43.4445C37.3848 43.5383 37.2768 43.6638 37.2041 43.8097L35.9844 46.2546H25.9261L23.3895 44.6485L22.9375 42.8355L35.578 41.3449C35.8366 41.3138 36.0723 41.1814 36.2335 40.9769C36.3947 40.7723 36.4682 40.5121 36.4379 40.2534C36.4076 39.9947 36.276 39.7586 36.0719 39.5968C35.8678 39.435 35.6079 39.3607 35.3491 39.3902L27.7952 40.281C27.7424 40.1876 27.6745 40.1036 27.5943 40.0324L23.3735 36.3749C23.2044 36.2285 22.9903 36.1442 22.7667 36.1359L20.3465 36.0475C20.1916 36.0421 20.0376 36.0735 19.897 36.139C19.7565 36.2044 19.6334 36.3022 19.5378 36.4243C19.4422 36.5463 19.3768 36.6892 19.3469 36.8414C19.3169 36.9935 19.3234 37.1505 19.3657 37.2997C19.592 38.1391 18.5458 34.2589 21.5793 45.5093C21.6407 45.7547 21.7941 45.9672 22.0078 46.1027L25.1179 48.0715C25.2747 48.1707 25.4566 48.2234 25.6422 48.2233H35.0022L33.5446 51.1451C33.5293 51.1444 33.5148 51.1405 33.4993 51.1405H29.5707C29.3097 51.1405 29.0593 51.2443 28.8747 51.4289C28.6901 51.6135 28.5864 51.8639 28.5864 52.1249C28.5864 52.386 28.6901 52.6364 28.8747 52.821C29.0593 53.0056 29.3097 53.1093 29.5707 53.1093H32.5648L31.5827 55.0781H27.6064C27.3454 55.0781 27.095 55.1818 26.9104 55.3664C26.7258 55.551 26.6221 55.8014 26.6221 56.0624C26.6221 56.3235 26.7258 56.5739 26.9104 56.7585C27.095 56.9431 27.3454 57.0468 27.6064 57.0468H30.6005L30.0017 58.2471C29.9268 58.3971 29.8915 58.5637 29.899 58.7311C29.9066 58.8985 29.9567 59.0612 30.0446 59.2039C30.1326 59.3465 30.2555 59.4644 30.4017 59.5462C30.548 59.6281 30.7127 59.6713 30.8803 59.6718H34.8088C34.945 59.6718 35.0797 59.6433 35.2043 59.5884C35.3289 59.5335 35.4408 59.4532 35.5327 59.3526L45.7114 48.2233H55.7605C58.1709 48.2233 60.6718 46.3037 60.6718 43.577C60.6736 42.3293 60.3089 41.1086 59.6232 40.0663C58.9374 39.0239 57.9607 38.2059 56.8142 37.7137ZM22.3498 38.0905L25.2268 40.5838L22.4304 40.9136L21.6241 38.0643L22.3498 38.0905ZM34.3766 57.7031H32.4692L38.7239 45.1657L46.7038 44.2243L34.3766 57.7031Z" fill="#07847F"/>
        <path d="M43.0001 25.875C43.0001 26.1361 42.8963 26.3864 42.7117 26.571C42.5271 26.7556 42.2768 26.8593 42.0157 26.8594H38.0782C37.8172 26.8593 37.5669 26.7556 37.3823 26.571C37.1977 26.3864 37.0939 26.1361 37.0939 25.875V22.9219H35.1251V31.4531H44.9689V22.9219H43.0001V25.875Z" fill="#FF7D44"/>
        <path d="M39.0628 22.9219H41.0316V24.8906H39.0628V22.9219Z" fill="#FF7D44"/>
        <path d="M48.5782 18.3281H31.5157C30.9068 18.3289 30.323 18.5711 29.8924 19.0017C29.4618 19.4323 29.2196 20.0161 29.2189 20.625V33.75C29.2196 34.3589 29.4618 34.9427 29.8924 35.3733C30.323 35.8039 30.9068 36.0461 31.5157 36.0469H35.7019L39.351 39.696C39.4424 39.7874 39.5509 39.8599 39.6703 39.9094C39.7897 39.9589 39.9177 39.9844 40.047 39.9844C40.1763 39.9844 40.3043 39.9589 40.4237 39.9094C40.5431 39.8599 40.6516 39.7874 40.743 39.696L44.3921 36.0469H48.5782C49.1872 36.0461 49.771 35.8039 50.2016 35.3733C50.6322 34.9427 50.8744 34.3589 50.8751 33.75V20.625C50.8744 20.0161 50.6322 19.4323 50.2016 19.0017C49.771 18.5711 49.1872 18.3289 48.5782 18.3281ZM46.9376 32.4375C46.9376 32.6986 46.8338 32.9489 46.6492 33.1335C46.4646 33.3181 46.2143 33.4218 45.9532 33.4219H34.1407C33.8797 33.4218 33.6294 33.3181 33.4448 33.1335C33.2602 32.9489 33.1564 32.6986 33.1564 32.4375V21.9375C33.1564 21.6764 33.2602 21.4261 33.4448 21.2415C33.6294 21.0569 33.8797 20.9532 34.1407 20.9531H45.9532C46.2143 20.9532 46.4646 21.0569 46.6492 21.2415C46.8338 21.4261 46.9376 21.6764 46.9376 21.9375V32.4375Z" fill="#FF7D44"/>
    </g>
    <defs>
        <clipPath id="clip0_303_196735">
            <rect width="42" height="42" fill="white" transform="translate(18.9999 18)"/>
        </clipPath>
    </defs>
</svg>
