<svg width="78" height="78" viewBox="0 0 78 78" fill="none" xmlns="http://www.w3.org/2000/svg">
    <circle cx="39" cy="39" r="38.5" fill="#E6F9FB" stroke="#07847F" stroke-dasharray="3 3"/>
    <g clip-path="url(#clip0_303_196773)">
        <path d="M51.2812 29.3281H32.9062C32.6452 29.3281 32.3948 29.4319 32.2102 29.6165C32.0256 29.8011 31.9219 30.0514 31.9219 30.3125V40.8125C31.9219 41.0736 32.0256 41.3239 32.2102 41.5085C32.3948 41.6931 32.6452 41.7969 32.9062 41.7969H51.2812C51.5423 41.7968 51.7926 41.6931 51.9772 41.5085C52.1618 41.3239 52.2656 41.0736 52.2656 40.8125V30.3125C52.2656 30.0514 52.1618 29.8011 51.9772 29.6165C51.7926 29.4319 51.5423 29.3282 51.2812 29.3281ZM44.7188 33.2656H39.4688C39.2077 33.2656 38.9573 33.1619 38.7727 32.9773C38.5881 32.7927 38.4844 32.5423 38.4844 32.2812C38.4844 32.0202 38.5881 31.7698 38.7727 31.5852C38.9573 31.4006 39.2077 31.2969 39.4688 31.2969H44.7188C44.9798 31.2969 45.2302 31.4006 45.4148 31.5852C45.5994 31.7698 45.7031 32.0202 45.7031 32.2812C45.7031 32.5423 45.5994 32.7927 45.4148 32.9773C45.2302 33.1619 44.9798 33.2656 44.7188 33.2656Z" fill="#FF7D44"/>
        <path d="M49.3125 18.8281H34.875C34.6139 18.8281 34.3636 18.9319 34.179 19.1165C33.9944 19.3011 33.8906 19.5514 33.8906 19.8125V28.0156H50.2969V19.8125C50.2968 19.5514 50.1931 19.3011 50.0085 19.1165C49.8239 18.9319 49.5736 18.8282 49.3125 18.8281ZM44.0625 22.7656H40.125C39.8639 22.7656 39.6135 22.6619 39.4289 22.4773C39.2443 22.2927 39.1406 22.0423 39.1406 21.7812C39.1406 21.5202 39.2443 21.2698 39.4289 21.0852C39.6135 20.9006 39.8639 20.7969 40.125 20.7969H44.0625C44.3236 20.7969 44.574 20.9006 44.7586 21.0852C44.9432 21.2698 45.0469 21.5202 45.0469 21.7812C45.0469 22.0423 44.9432 22.2927 44.7586 22.4773C44.574 22.6619 44.3236 22.7656 44.0625 22.7656Z" fill="#FF7D44"/>
        <path d="M57.1875 50.3285H56.8594V38.1881C56.8593 37.927 56.7556 37.6767 56.571 37.4921C56.3864 37.3075 56.1361 37.2038 55.875 37.2037H54.5625C54.4327 37.2029 54.3041 37.2277 54.1839 37.2768C54.0638 37.3259 53.9545 37.3983 53.8624 37.4898C53.7704 37.5813 53.6973 37.6901 53.6474 37.8099C53.5976 37.9298 53.5719 38.0583 53.5719 38.1881C53.5719 38.3179 53.5976 38.4464 53.6474 38.5662C53.6973 38.686 53.7704 38.7948 53.8624 38.8863C53.9545 38.9778 54.0638 39.0502 54.1839 39.0993C54.3041 39.1484 54.4327 39.1732 54.5625 39.1724H54.8906V45.7348H29.2969V39.1724H29.625C29.7548 39.1733 29.8835 39.1484 30.0036 39.0993C30.1238 39.0502 30.233 38.9778 30.3251 38.8863C30.4172 38.7949 30.4902 38.6861 30.5401 38.5662C30.5899 38.4464 30.6156 38.3179 30.6156 38.1881C30.6156 38.0583 30.5899 37.9298 30.5401 37.8099C30.4902 37.6901 30.4172 37.5813 30.3251 37.4898C30.233 37.3983 30.1238 37.326 30.0036 37.2769C29.8835 37.2278 29.7548 37.2029 29.625 37.2037H28.3125C28.0514 37.2037 27.8011 37.3075 27.6165 37.4921C27.4319 37.6767 27.3282 37.927 27.3281 38.1881V50.3285H27C26.565 50.328 26.148 50.155 25.8404 49.8474C25.5328 49.5398 25.3598 49.1228 25.3594 48.6878V23.1709C25.3618 22.5002 25.1762 21.8422 24.8236 21.2716C24.4709 20.701 23.9654 20.2407 23.3644 19.9429L21.8804 19.2008C21.4094 18.9653 20.8911 18.8394 20.3645 18.8326C19.8379 18.8257 19.3166 18.9381 18.8396 19.1613C18.3625 19.3846 17.9422 19.7128 17.6101 20.1215C17.2779 20.5302 17.0425 21.0088 16.9215 21.5213C16.8005 22.0339 16.7971 22.5672 16.9114 23.0813C17.0257 23.5954 17.2549 24.0769 17.5817 24.4899C17.9086 24.9029 18.3246 25.2366 18.7987 25.4659C19.2728 25.6953 19.7926 25.8145 20.3193 25.8144H20.4375C20.5673 25.8153 20.696 25.7904 20.8161 25.7413C20.9363 25.6922 21.0455 25.6198 21.1376 25.5283C21.2297 25.4369 21.3027 25.3281 21.3526 25.2082C21.4024 25.0884 21.4281 24.9599 21.4281 24.8301C21.4281 24.7003 21.4024 24.5718 21.3526 24.452C21.3027 24.3321 21.2297 24.2233 21.1376 24.1318C21.0455 24.0403 20.9363 23.968 20.8161 23.9189C20.696 23.8698 20.5673 23.8449 20.4375 23.8457H20.3193C20.0896 23.8458 19.863 23.7938 19.6562 23.6938C19.4495 23.5938 19.2681 23.4483 19.1256 23.2682C18.983 23.0882 18.8831 22.8782 18.8332 22.654C18.7834 22.4299 18.7849 22.1973 18.8376 21.9738C18.8904 21.7503 18.993 21.5416 19.1378 21.3634C19.2826 21.1852 19.4659 21.0421 19.6739 20.9447C19.8819 20.8474 20.1092 20.7984 20.3389 20.8013C20.5685 20.8043 20.7945 20.8592 20.9999 20.9619L22.4841 21.704C22.7572 21.8394 22.9869 22.0485 23.1472 22.3078C23.3074 22.5671 23.3917 22.8661 23.3906 23.1709V48.6879C23.3918 49.6448 23.7724 50.5622 24.4491 51.2388C25.1257 51.9154 26.0431 52.296 27 52.2972H28.9781C28.4265 53.0277 28.0897 53.8976 28.0053 54.8091C27.921 55.7205 28.0925 56.6375 28.5006 57.4568C28.9086 58.2762 29.5371 58.9655 30.3154 59.4474C31.0937 59.9292 31.9909 60.1845 32.9063 60.1845C33.8216 60.1845 34.7189 59.9292 35.4971 59.4474C36.2754 58.9655 36.9039 58.2762 37.312 57.4568C37.7201 56.6375 37.8915 55.7205 37.8072 54.8091C37.7228 53.8976 37.386 53.0277 36.8345 52.2972H47.3531C46.8015 53.0277 46.4647 53.8976 46.3803 54.8091C46.296 55.7205 46.4675 56.6375 46.8756 57.4568C47.2836 58.2762 47.9121 58.9655 48.6904 59.4474C49.4687 59.9292 50.3659 60.1845 51.2813 60.1845C52.1966 60.1845 53.0939 59.9292 53.8721 59.4474C54.6504 58.9655 55.2789 58.2762 55.687 57.4568C56.0951 56.6375 56.2665 55.7205 56.1822 54.8091C56.0978 53.8976 55.761 53.0277 55.2095 52.2972H57.1875C57.3173 52.298 57.4461 52.2732 57.5663 52.2242C57.6865 52.1751 57.7958 52.1027 57.8879 52.0112C57.98 51.9197 58.0532 51.8109 58.103 51.6911C58.1529 51.5712 58.1786 51.4426 58.1786 51.3128C58.1786 51.183 58.1529 51.0544 58.103 50.9346C58.0532 50.8147 57.98 50.7059 57.8879 50.6144C57.7958 50.5229 57.6865 50.4505 57.5663 50.4014C57.4461 50.3524 57.3173 50.3276 57.1875 50.3285ZM29.2969 47.7035H54.8906V50.3285H29.2969V47.7035ZM35.8594 55.2502C35.8594 55.8343 35.6862 56.4053 35.3617 56.8909C35.0372 57.3766 34.576 57.7551 34.0364 57.9786C33.4968 58.2021 32.903 58.2606 32.3302 58.1467C31.7573 58.0327 31.2311 57.7515 30.8181 57.3385C30.4051 56.9255 30.1238 56.3993 30.0099 55.8264C29.8959 55.2536 29.9544 54.6598 30.1779 54.1202C30.4014 53.5806 30.78 53.1194 31.2656 52.7949C31.7512 52.4704 32.3222 52.2972 32.9063 52.2972C33.6892 52.298 34.4399 52.6094 34.9935 53.163C35.5471 53.7166 35.8585 54.4673 35.8594 55.2502ZM54.2344 55.2502C54.2344 55.8343 54.0612 56.4053 53.7367 56.8909C53.4122 57.3766 52.951 57.7551 52.4114 57.9786C51.8718 58.2021 51.278 58.2606 50.7052 58.1467C50.1323 58.0327 49.6061 57.7515 49.1931 57.3385C48.7801 56.9255 48.4988 56.3993 48.3849 55.8264C48.2709 55.2536 48.3294 54.6598 48.5529 54.1202C48.7764 53.5806 49.1549 53.1194 49.6406 52.7949C50.1262 52.4704 50.6972 52.2972 51.2813 52.2972C52.0642 52.298 52.8149 52.6094 53.3685 53.163C53.9221 53.7166 54.2335 54.4673 54.2344 55.2502Z" fill="#07847F"/>
    </g>
    <defs>
        <clipPath id="clip0_303_196773">
            <rect width="42" height="42" fill="white" transform="translate(16.5 18.5)"/>
        </clipPath>
    </defs>
</svg>
