<svg width="78" height="78" viewBox="0 0 78 78" fill="none" xmlns="http://www.w3.org/2000/svg">
    <circle cx="39" cy="39" r="38.5" fill="#E6F9FB" stroke="#07847F" stroke-dasharray="3 3"/>
    <g clip-path="url(#clip0_303_196753)">
        <path d="M45.25 15.1118H34.75C34.2529 15.1123 33.7763 15.3101 33.4248 15.6616C33.0732 16.0131 32.8755 16.4897 32.875 16.9868V22.2368C32.8755 22.7339 33.0732 23.2105 33.4248 23.5621C33.7763 23.9136 34.2529 24.1113 34.75 24.1118H45.25C45.7471 24.1113 46.2237 23.9136 46.5752 23.5621C46.9268 23.2105 47.1245 22.7339 47.125 22.2368V16.9868C47.1245 16.4897 46.9268 16.0131 46.5752 15.6616C46.2237 15.3101 45.7471 15.1123 45.25 15.1118ZM35.125 17.3618H38.875V21.8618H35.125V17.3618ZM44.875 21.8618H41.125V17.3618H44.875V21.8618Z" fill="#07847F"/>
        <path d="M45.25 53.3618H34.75C34.2529 53.3623 33.7763 53.5601 33.4248 53.9116C33.0732 54.2631 32.8755 54.7397 32.875 55.2368V60.4868C32.8755 60.9839 33.0732 61.4605 33.4248 61.8121C33.7763 62.1636 34.2529 62.3613 34.75 62.3618H45.25C45.7471 62.3613 46.2237 62.1636 46.5752 61.8121C46.9268 61.4605 47.1245 60.9839 47.125 60.4868V55.2368C47.1245 54.7397 46.9268 54.2631 46.5752 53.9116C46.2237 53.5601 45.7471 53.3623 45.25 53.3618ZM35.125 55.6118H38.875V60.1118H35.125V55.6118ZM44.875 60.1118H41.125V55.6118H44.875V60.1118Z" fill="#07847F"/>
        <path d="M50.6516 42.2883C49.7925 42.2634 48.1924 42.2055 47.7743 43.08C47.6281 43.7302 47.6938 44.4101 47.9618 45.0202L48.7056 47.52C50.1728 46.0667 51.2533 44.2696 51.8488 42.2921C51.4347 42.3099 51.0309 42.3005 50.6516 42.2883Z" fill="#FF7D44"/>
        <path d="M40.0813 31.1386C40.0894 32.4196 40.1504 32.5094 41.5985 32.8862C43.0089 33.2538 43.7197 33.5391 44.4981 34.693C44.5751 34.8201 44.6656 34.9385 44.768 35.0461C44.8538 35.0408 44.9379 35.021 45.017 34.9875C45.3241 34.8361 45.6125 34.6495 45.8765 34.4316C47.3129 33.4359 48.9597 32.7851 50.6886 32.5297C49.6067 30.6638 48.0557 29.1132 46.1896 28.0317C44.3234 26.9501 42.2069 26.3753 40.05 26.3643L40.0813 31.1386Z" fill="#FF7D44"/>
        <path d="M38.3191 46.8843C36.295 45.951 36.2347 45.1903 35.8241 43.2397C35.6408 42.3819 35.2287 41.5897 34.6313 40.9473C34.2849 40.5752 33.9839 40.4602 33.9062 40.4814C33.7783 40.5146 33.4749 40.7263 33.0866 40.8579C32.4438 41.0307 31.7699 41.0527 31.1171 40.9224C30.0252 40.8233 28.9286 41.0525 27.9678 41.5805C28.6658 44.6357 30.507 47.3078 33.1135 49.048C35.7199 50.7881 38.8937 51.4643 41.9831 50.9377C41.6898 50.0433 41.2122 49.2205 40.5811 48.5223C39.9499 47.8241 39.1793 47.266 38.3191 46.8843Z" fill="#FF7D44"/>
        <path d="M31.3303 38.6825C32.1246 38.7715 32.2445 38.7676 32.3652 38.7265C32.4489 38.694 32.5297 38.6548 32.6069 38.6093C32.8392 38.4782 33.0863 38.3754 33.343 38.3031C33.8871 38.2029 34.4482 38.2535 34.9656 38.4493C35.4829 38.6452 35.9369 38.9789 36.2782 39.4142C37.1532 40.3546 37.7567 41.5147 38.0247 42.7709C38.3426 44.2701 38.1246 44.3172 39.2617 44.8414C40.4233 45.365 41.4604 46.1292 42.3045 47.0836C43.1486 48.038 43.7803 49.1608 44.158 50.3776C45.0937 50.0454 45.9859 49.6015 46.8153 49.0555L45.8056 45.6617C45.5529 44.8136 45.1303 43.3942 45.7441 42.1102C46.6362 40.2422 48.7043 39.9849 50.7183 40.0397C51.2499 40.0727 51.7834 40.055 52.3117 39.987C52.3537 39.5716 52.3749 39.1543 52.375 38.7367C52.3722 37.35 52.1349 35.9737 51.6729 34.6662C50.0534 34.7843 48.4964 35.3399 47.1678 36.2736C46.7733 36.5851 46.3437 36.8496 45.8879 37.0617C45.5424 37.2201 45.1656 37.2988 44.7855 37.2919C44.4055 37.2851 44.0318 37.1929 43.6921 37.0221C43.2553 36.7591 42.8912 36.391 42.6331 35.9513C42.2518 35.3877 42.0766 35.3363 41.0316 35.0636C38.7696 34.4736 37.846 33.6639 37.8313 31.1525L37.8013 26.5688C34.9495 27.0862 32.3695 28.5871 30.5101 30.8103C28.6507 33.0336 27.6298 35.8384 27.625 38.7367C27.625 38.9076 27.6437 39.0739 27.6506 39.2432C28.8138 38.7613 30.0765 38.5689 31.3303 38.6825Z" fill="#FF7D44"/>
        <path d="M54.9648 55.3268L53.6488 55.1838C56.271 53.0079 58.3351 50.2368 59.669 47.1014C61.0029 43.966 61.5679 40.5571 61.3169 37.159C61.0659 33.7609 60.0063 30.472 58.2263 27.5665C56.4463 24.6611 53.9975 22.2232 51.0841 20.4562C50.829 20.3022 50.5234 20.2556 50.234 20.3267C49.9447 20.3977 49.6954 20.5806 49.5407 20.8352C49.386 21.0899 49.3387 21.3955 49.409 21.685C49.4793 21.9745 49.6616 22.2243 49.9159 22.3796C52.5412 23.971 54.7447 26.1711 56.3401 28.794C57.9355 31.4169 58.876 34.3853 59.0819 37.4484C59.2878 40.5115 58.7531 43.5791 57.5231 46.3919C56.2931 49.2047 54.4039 51.68 52.0152 53.6085L52.2017 51.8902C52.2181 51.7432 52.2053 51.5943 52.164 51.4522C52.1227 51.3101 52.0539 51.1776 51.9613 51.0621C51.8687 50.9467 51.7543 50.8507 51.6245 50.7795C51.4948 50.7084 51.3523 50.6635 51.2052 50.6475C51.0581 50.6315 50.9093 50.6447 50.7673 50.6863C50.6253 50.7279 50.4929 50.7971 50.3777 50.89C50.2625 50.9828 50.1667 51.0975 50.0959 51.2274C50.0251 51.3573 49.9806 51.4999 49.9649 51.6471L49.5068 55.8651C49.4746 56.1617 49.5616 56.4589 49.7485 56.6914C49.9354 56.924 50.207 57.0727 50.5036 57.105L54.7216 57.5635C55.0179 57.595 55.3145 57.5077 55.5464 57.3208C55.7784 57.1339 55.9267 56.8626 55.9589 56.5664C55.9911 56.2703 55.9045 55.9734 55.7182 55.741C55.5318 55.5086 55.2609 55.3597 54.9648 55.3268Z" fill="#07847F"/>
        <path d="M30.0841 55.025C27.4754 53.4432 25.283 51.2603 23.6898 48.6585C22.0967 46.0567 21.1491 43.1115 20.9261 40.0689C20.7031 37.0262 21.2112 33.9744 22.408 31.1681C23.6048 28.3619 25.4556 25.8826 27.8058 23.9374L27.5554 25.4125C27.5054 25.7067 27.5744 26.0087 27.7471 26.252C27.9199 26.4953 28.1822 26.6601 28.4764 26.71C28.7706 26.7599 29.0725 26.6909 29.3159 26.5182C29.5592 26.3455 29.7239 26.0832 29.7739 25.789L30.4839 21.6061C30.5338 21.312 30.4647 21.0101 30.292 20.7668C30.1193 20.5236 29.8571 20.3589 29.5629 20.309L25.3801 19.5993C25.2341 19.5738 25.0846 19.5774 24.9401 19.6099C24.7956 19.6424 24.6589 19.7031 24.5379 19.7886C24.4169 19.874 24.3139 19.9826 24.235 20.1079C24.1561 20.2333 24.1027 20.373 24.0779 20.519C24.0531 20.6651 24.0574 20.8146 24.0905 20.959C24.1237 21.1033 24.185 21.2397 24.271 21.3604C24.357 21.481 24.466 21.5834 24.5918 21.6618C24.7175 21.7401 24.8574 21.7929 25.0036 21.817L26.5336 22.0766C23.872 24.2353 21.7687 27.0025 20.4009 30.1446C19.0331 33.2867 18.441 36.7118 18.6746 40.1307C18.9081 43.5497 19.9605 46.8624 21.7429 49.7893C23.5253 52.7163 25.9854 55.1716 28.9158 56.9484C29.1708 57.103 29.4768 57.1501 29.7666 57.0792C30.0563 57.0083 30.306 56.8253 30.4608 56.5704C30.6157 56.3154 30.663 56.0094 30.5923 55.7197C30.5216 55.4299 30.3389 55.1801 30.0841 55.025Z" fill="#07847F"/>
    </g>
    <defs>
        <clipPath id="clip0_303_196753">
            <rect width="48" height="48" fill="white" transform="translate(16 14.7368)"/>
        </clipPath>
    </defs>
</svg>
