<svg width="60" height="27" viewBox="0 0 60 27" fill="none" xmlns="http://www.w3.org/2000/svg">
    <path d="M53.4434 15.9249V14.6569H58.7617C58.9801 13.9948 59.0787 13.5862 59.0787 13.5862C59.2196 12.8818 58.7406 12.3042 58.0221 12.3042C58.0221 12.3042 48.3927 12.3042 45.1806 12.3042C44.448 12.3042 44.131 12.6987 43.976 13.065C43.5252 14.1145 42.5531 15.8897 42.0037 16.7632C41.2499 17.9677 38.7352 17.7352 25.8232 17.8973C18.3423 17.9888 15.419 18.0734 13.4678 18.017C12.4252 17.9888 11.8828 17.8832 11.6785 17.5591C11.5095 17.2915 11.5024 16.9815 11.4531 16.5307C11.3263 15.4107 11.2911 15.0373 11.2911 15.0373C11.2277 14.3188 10.5796 13.7342 9.86114 13.7342H1.70401C0.985501 13.7342 0.295173 14.1568 0.330394 14.8683C0.351527 15.3191 0.393791 15.7206 0.964369 16.7561C1.84489 18.3481 2.76063 18.3763 3.09171 22.0815C3.19737 23.286 3.26781 24.1032 3.31712 24.6526C3.41574 25.7867 4.08493 25.9699 4.49349 26.0333C4.94432 26.1037 5.41628 26.146 5.78962 26.146C5.78962 26.146 38.2421 26.146 43.6379 26.146C49.0337 26.146 50.4848 25.674 53.9153 22.638C56.1554 20.6515 57.5431 17.8832 58.3109 15.9319H53.4434V15.9249ZM18.1099 20.7995C17.7013 20.7995 17.3702 20.4684 17.3702 20.0598C17.3702 19.6513 17.7013 19.3202 18.1099 19.3202C18.5184 19.3202 18.8425 19.6513 18.8425 20.0598C18.8425 20.4684 18.5184 20.7995 18.1099 20.7995ZM22.3504 20.7995C21.9419 20.7995 21.6178 20.4684 21.6178 20.0598C21.6178 19.6513 21.9489 19.3202 22.3504 19.3202C22.759 19.3202 23.0901 19.6513 23.0901 20.0598C23.083 20.4684 22.759 20.7995 22.3504 20.7995ZM26.591 20.7995C26.1825 20.7995 25.8514 20.4684 25.8514 20.0598C25.8514 19.6513 26.1825 19.3202 26.591 19.3202C26.9996 19.3202 27.3307 19.6513 27.3307 20.0598C27.3236 20.4684 26.9925 20.7995 26.591 20.7995ZM30.8246 20.7995C30.416 20.7995 30.0849 20.4684 30.0849 20.0598C30.0849 19.6513 30.416 19.3202 30.8246 19.3202C31.2331 19.3202 31.5572 19.6513 31.5572 20.0598C31.5642 20.4684 31.2331 20.7995 30.8246 20.7995ZM35.0652 20.7995C34.6566 20.7995 34.3255 20.4684 34.3255 20.0598C34.3255 19.6513 34.6566 19.3202 35.0652 19.3202C35.4737 19.3202 35.8048 19.6513 35.8048 20.0598C35.8048 20.4684 35.4737 20.7995 35.0652 20.7995ZM39.3057 20.7995C38.8972 20.7995 38.5661 20.4684 38.5661 20.0598C38.5661 19.6513 38.8972 19.3202 39.3057 19.3202C39.7143 19.3202 40.0454 19.6513 40.0454 20.0598C40.0383 20.4684 39.7143 20.7995 39.3057 20.7995Z" fill="#1C3F39"/>
    <path d="M43.5604 11.8045L43.511 11.1564H48.4208V9.56445H41.7993V13.7769H42.6376C43.1095 12.8823 43.497 12.0722 43.5604 11.8045Z" fill="#FF7D44"/>
    <path d="M41.0245 4.51367H34.403V8.72608H41.0245V4.51367Z" fill="#FF7D44"/>
    <path d="M42.1938 14.6152H41.8064V15.3126C41.9332 15.0872 42.06 14.8547 42.1938 14.6152Z" fill="#FF7D44"/>
    <path d="M55.8243 9.56445H49.2028V11.1564H55.8243V9.56445Z" fill="#FF7D44"/>
    <path d="M48.4279 4.51367H41.8064V8.72608H48.4279V4.51367Z" fill="#FF7D44"/>
    <path d="M33.621 9.56445H26.9995V13.7769H33.621V9.56445Z" fill="#FF7D44"/>
    <path d="M29.789 16.6933C31.226 16.6792 32.494 16.6651 33.6281 16.644V14.6152H27.0066V16.7285L29.789 16.6933Z" fill="#FF7D44"/>
    <path d="M41.0245 16.1861V14.6152H34.403V16.6369C38.1857 16.5735 40.2003 16.4749 41.0245 16.1861Z" fill="#FF7D44"/>
    <path d="M41.0245 9.56445H34.403V13.7769H41.0245V9.56445Z" fill="#FF7D44"/>
    <path d="M14.3835 3.35109V1.56187H16.539V1.45621C16.539 0.737706 15.9473 0.145996 15.2287 0.145996H7.83942C7.12092 0.145996 6.53625 0.737706 6.53625 1.45621V1.56892H7.90987V2.5551H6.53625V6.45052H16.539V3.35109H14.3835ZM10.643 2.54806H8.84674V1.56187H10.643V2.54806ZM13.3761 2.54806H11.5799V1.56187H13.3761V2.54806Z" fill="#1C3F39"/>
    <path d="M18.3845 10.9658V8.72574H20.9768C20.9768 8.00724 20.3851 7.41553 19.6666 7.41553H5.19083C4.47232 7.41553 3.88062 8.00019 3.88062 8.72574H6.71941V9.95847H3.88062V11.2828C3.88062 12.0013 4.47232 12.593 5.19083 12.593H10.8755C11.8757 12.5859 12.1716 12.762 12.242 13.2481C12.2913 13.5721 12.2913 13.7764 12.3618 14.4879C12.3618 14.4879 12.4111 15.0021 12.4745 15.5727C12.5379 16.1432 12.8549 16.6011 13.2634 16.6293C14.0383 16.6856 14.6511 16.735 15.3696 16.735H19.6666C20.3851 16.735 20.9768 16.1503 20.9768 15.4247V10.9587H18.3845V10.9658ZM10.2908 9.95143H8.04372V8.7187H10.2908V9.95143ZM13.7072 9.95143H11.4601V8.7187H13.7072V9.95143ZM17.1236 9.95143H14.8766V8.7187H17.1236V9.95143Z" fill="#1C3F39"/>
</svg>