<svg width="49" height="27" viewBox="0 0 49 27" fill="none" xmlns="http://www.w3.org/2000/svg">
    <path d="M15.1833 18.4736C13.0813 18.4736 11.3796 20.1753 11.3796 22.2773C11.3796 24.3793 13.0813 26.0809 15.1833 26.0809C17.2853 26.0809 18.987 24.3793 18.987 22.2773C18.987 20.1815 17.2853 18.4736 15.1833 18.4736ZM15.1833 24.9424C13.7131 24.9424 12.5245 23.7537 12.5245 22.2835C12.5245 20.8134 13.7131 19.6247 15.1833 19.6247C16.6535 19.6247 17.8421 20.8134 17.8421 22.2835C17.8421 23.7475 16.6535 24.9424 15.1833 24.9424Z" fill="#1C3F39"/>
    <path d="M40.9831 18.4736C38.8811 18.4736 37.1794 20.1753 37.1794 22.2773C37.1794 24.3793 38.8811 26.0809 40.9831 26.0809C43.0851 26.0809 44.7868 24.3793 44.7868 22.2773C44.7868 20.1815 43.0851 18.4736 40.9831 18.4736ZM40.9831 24.9424C39.5129 24.9424 38.3243 23.7537 38.3243 22.2835C38.3243 20.8134 39.5192 19.6247 40.9831 19.6247C42.4533 19.6247 43.6419 20.8134 43.6419 22.2835C43.6482 23.7475 42.4533 24.9424 40.9831 24.9424Z" fill="#1C3F39"/>
    <path d="M6.30598 18.4736C4.20396 18.4736 2.50232 20.1753 2.50232 22.2773C2.50232 24.3793 4.20396 26.0809 6.30598 26.0809C8.408 26.0809 10.1096 24.3793 10.1096 22.2773C10.1034 20.1815 8.40174 18.4736 6.30598 18.4736ZM6.30598 24.9424C4.83581 24.9424 3.64717 23.7537 3.64717 22.2835C3.64717 20.8134 4.83581 19.6247 6.30598 19.6247C7.77614 19.6247 8.96478 20.8134 8.96478 22.2835C8.96478 23.7475 7.77614 24.9424 6.30598 24.9424Z" fill="#1C3F39"/>
    <path d="M29.0341 0.0810547H1.83921C0.831989 0.0810547 0.0124512 0.900593 0.0124512 1.90781V20.4506C0.0124512 20.9511 0.15634 21.4891 0.550469 21.7394C1.40129 22.2774 1.59522 21.2764 1.73911 20.8323C2.3522 18.8929 4.16645 17.4915 6.306 17.4915C7.71986 17.4915 8.98358 18.1046 9.85942 19.0743C10.2285 19.4872 11.2295 19.5373 11.5736 19.1369C12.4494 18.1297 13.7444 17.4915 15.1833 17.4915C17.3479 17.4915 19.1371 18.9429 19.7752 20.9011C20.0442 21.7394 20.8012 22.2837 21.3142 22.2837C23.3724 22.2837 29.0341 22.2837 29.0341 22.2837C30.0413 22.2837 30.8609 21.4641 30.8609 20.4569V1.90781C30.8609 0.900593 30.0351 0.0810547 29.0341 0.0810547Z" fill="#1C3F39"/>
    <path d="M48.2526 18.9429C48.1088 14.4699 46.1131 14.9578 44.8932 11.9237C42.3595 5.63011 39.9196 4.7793 36.5226 4.7793C34.6083 4.7793 33.5635 4.7793 33.5635 4.7793C32.6752 4.7793 32.2247 5.64263 32.2247 6.64985V20.4819C32.2247 21.4891 33.0443 22.2961 34.0515 22.2711C34.0515 22.2711 34.4706 22.2336 35.14 22.2523C35.8219 22.2711 36.2411 21.5204 36.3224 21.1826C36.8166 19.0618 38.7185 17.479 40.9894 17.479C43.129 17.479 44.9057 18.8866 45.55 20.8135C45.8378 21.6643 46.4321 21.927 46.7449 21.8895C47.3205 21.8144 47.552 21.4578 47.8147 21.1012C48.3277 21.0199 48.7281 20.5257 48.7281 19.9251C48.7218 19.5247 48.5342 19.1619 48.2526 18.9429ZM41.4336 12.6369H35.6343C34.627 12.6369 33.8075 11.8173 33.8075 10.8101V8.3202C33.8075 7.31298 34.4018 6.49345 35.409 6.49345H35.9909C36.9981 6.49345 37.6737 6.51847 38.756 6.68113C39.5818 6.79999 40.3575 7.27545 41.6525 9.13974C42.3908 10.2033 42.6535 10.8914 42.7536 11.6171C42.8349 12.2552 42.4345 12.6369 41.4336 12.6369Z" fill="#FF7D44"/>
</svg>